<svg width="1440" height="906" viewBox="0 0 1440 906" fill="none" xmlns="http://www.w3.org/2000/svg">
<path d="M0 0H1440V906H0L0 0Z" fill="url(#paint0_linear)"/>
<mask id="mask0" mask-type="alpha" maskUnits="userSpaceOnUse" x="0" y="0" width="1440" height="906">
<path d="M0 0H1440V906H0V0Z" fill="url(#paint1_linear)"/>
</mask>
<g mask="url(#mask0)">
<rect x="-112" y="274" width="286" height="295" fill="url(#paint2_linear)"/>
<rect x="88" y="214" width="285" height="295" fill="url(#paint3_linear)"/>
<path d="M988 0H1553V554L1107.5 428L988 0Z" fill="url(#paint4_linear)"/>
<circle cx="870" cy="253" r="3" fill="#4541A4"/>
<circle cx="884" cy="253" r="3" fill="#4541A4"/>
<circle cx="898" cy="253" r="3" fill="#4541A4"/>
<circle cx="912" cy="253" r="3" fill="#4541A4"/>
<circle cx="926" cy="253" r="3" fill="#4541A4"/>
<circle cx="940" cy="253" r="3" fill="#4541A4"/>
<circle cx="954" cy="253" r="3" fill="#4541A4"/>
<circle cx="870" cy="267" r="3" fill="#4541A4"/>
<circle cx="884" cy="267" r="3" fill="#4541A4"/>
<circle cx="898" cy="267" r="3" fill="#4541A4"/>
<circle cx="912" cy="267" r="3" fill="#4541A4"/>
<circle cx="926" cy="267" r="3" fill="#4541A4"/>
<circle cx="940" cy="267" r="3" fill="#4541A4"/>
<circle cx="954" cy="267" r="3" fill="#4541A4"/>
<circle cx="870" cy="281" r="3" fill="#4541A4"/>
<circle cx="884" cy="281" r="3" fill="#4541A4"/>
<circle cx="898" cy="281" r="3" fill="#4541A4"/>
<circle cx="912" cy="281" r="3" fill="#4541A4"/>
<circle cx="926" cy="281" r="3" fill="#4541A4"/>
<circle cx="940" cy="281" r="3" fill="#4541A4"/>
<circle cx="954" cy="281" r="3" fill="#4541A4"/>
<circle cx="870" cy="295" r="3" fill="#4541A4"/>
<circle cx="884" cy="295" r="3" fill="#4541A4"/>
<circle cx="898" cy="295" r="3" fill="#4541A4"/>
<circle cx="912" cy="295" r="3" fill="#4541A4"/>
<circle cx="926" cy="295" r="3" fill="#4541A4"/>
<circle cx="940" cy="295" r="3" fill="#4541A4"/>
<circle cx="954" cy="295" r="3" fill="#4541A4"/>
<circle cx="870" cy="309" r="3" fill="#4541A4"/>
<circle cx="884" cy="309" r="3" fill="#4541A4"/>
<circle cx="898" cy="309" r="3" fill="#4541A4"/>
<circle cx="912" cy="309" r="3" fill="#4541A4"/>
<circle cx="926" cy="309" r="3" fill="#4541A4"/>
<circle cx="940" cy="309" r="3" fill="#4541A4"/>
<circle cx="954" cy="309" r="3" fill="#4541A4"/>
<circle cx="870" cy="323" r="3" fill="#4541A4"/>
<circle cx="884" cy="323" r="3" fill="#4541A4"/>
<circle cx="898" cy="323" r="3" fill="#4541A4"/>
<circle cx="912" cy="323" r="3" fill="#4541A4"/>
<circle cx="926" cy="323" r="3" fill="#4541A4"/>
<circle cx="940" cy="323" r="3" fill="#4541A4"/>
<circle cx="954" cy="323" r="3" fill="#4541A4"/>
<circle cx="870" cy="337" r="3" fill="#4541A4"/>
<circle cx="884" cy="337" r="3" fill="#4541A4"/>
<circle cx="898" cy="337" r="3" fill="#4541A4"/>
<circle cx="912" cy="337" r="3" fill="#4541A4"/>
<circle cx="926" cy="337" r="3" fill="#4541A4"/>
<circle cx="940" cy="337" r="3" fill="#4541A4"/>
<circle cx="954" cy="337" r="3" fill="#4541A4"/>
<circle cx="870" cy="351" r="3" fill="#4541A4"/>
<circle cx="884" cy="351" r="3" fill="#4541A4"/>
<circle cx="898" cy="351" r="3" fill="#4541A4"/>
<circle cx="912" cy="351" r="3" fill="#4541A4"/>
<circle cx="926" cy="351" r="3" fill="#4541A4"/>
<circle cx="940" cy="351" r="3" fill="#4541A4"/>
<circle cx="954" cy="351" r="3" fill="#4541A4"/>
<circle cx="870" cy="365" r="3" fill="#4541A4"/>
<circle cx="884" cy="365" r="3" fill="#4541A4"/>
<circle cx="898" cy="365" r="3" fill="#4541A4"/>
<circle cx="912" cy="365" r="3" fill="#4541A4"/>
<circle cx="926" cy="365" r="3" fill="#4541A4"/>
<circle cx="940" cy="365" r="3" fill="#4541A4"/>
<circle cx="954" cy="365" r="3" fill="#4541A4"/>
<circle cx="870" cy="379" r="3" fill="#4541A4"/>
<circle cx="884" cy="379" r="3" fill="#4541A4"/>
<circle cx="898" cy="379" r="3" fill="#4541A4"/>
<circle cx="912" cy="379" r="3" fill="#4541A4"/>
<circle cx="926" cy="379" r="3" fill="#4541A4"/>
<circle cx="940" cy="379" r="3" fill="#4541A4"/>
<circle cx="954" cy="379" r="3" fill="#4541A4"/>
<circle cx="870" cy="393" r="3" fill="#4541A4"/>
<circle cx="884" cy="393" r="3" fill="#4541A4"/>
<circle cx="898" cy="393" r="3" fill="#4541A4"/>
<circle cx="912" cy="393" r="3" fill="#4541A4"/>
<circle cx="926" cy="393" r="3" fill="#4541A4"/>
<circle cx="940" cy="393" r="3" fill="#4541A4"/>
<circle cx="954" cy="393" r="3" fill="#4541A4"/>
<circle cx="870" cy="407" r="3" fill="#4541A4"/>
<circle cx="884" cy="407" r="3" fill="#4541A4"/>
<circle cx="898" cy="407" r="3" fill="#4541A4"/>
<circle cx="912" cy="407" r="3" fill="#4541A4"/>
<circle cx="926" cy="407" r="3" fill="#4541A4"/>
<circle cx="940" cy="407" r="3" fill="#4541A4"/>
<circle cx="954" cy="407" r="3" fill="#4541A4"/>
<circle cx="968" cy="253" r="3" fill="#4541A4"/>
<circle cx="982" cy="253" r="3" fill="#4541A4"/>
<circle cx="996" cy="253" r="3" fill="#4541A4"/>
<circle cx="1010" cy="253" r="3" fill="#4541A4"/>
<circle cx="1024" cy="253" r="3" fill="#4541A4"/>
<circle cx="1038" cy="253" r="3" fill="#4541A4"/>
<circle cx="1052" cy="253" r="3" fill="#4541A4"/>
<circle cx="968" cy="267" r="3" fill="#4541A4"/>
<circle cx="982" cy="267" r="3" fill="#4541A4"/>
<circle cx="996" cy="267" r="3" fill="#4541A4"/>
<circle cx="1010" cy="267" r="3" fill="#4541A4"/>
<circle cx="1024" cy="267" r="3" fill="#4541A4"/>
<circle cx="1038" cy="267" r="3" fill="#4541A4"/>
<circle cx="1052" cy="267" r="3" fill="#4541A4"/>
<circle cx="968" cy="281" r="3" fill="#4541A4"/>
<circle cx="982" cy="281" r="3" fill="#4541A4"/>
<circle cx="996" cy="281" r="3" fill="#4541A4"/>
<circle cx="1010" cy="281" r="3" fill="#4541A4"/>
<circle cx="1024" cy="281" r="3" fill="#4541A4"/>
<circle cx="1038" cy="281" r="3" fill="#4541A4"/>
<circle cx="1052" cy="281" r="3" fill="#4541A4"/>
<circle cx="968" cy="295" r="3" fill="#4541A4"/>
<circle cx="982" cy="295" r="3" fill="#4541A4"/>
<circle cx="996" cy="295" r="3" fill="#4541A4"/>
<circle cx="1010" cy="295" r="3" fill="#4541A4"/>
<circle cx="1024" cy="295" r="3" fill="#4541A4"/>
<circle cx="1038" cy="295" r="3" fill="#4541A4"/>
<circle cx="1052" cy="295" r="3" fill="#4541A4"/>
<circle cx="968" cy="309" r="3" fill="#4541A4"/>
<circle cx="982" cy="309" r="3" fill="#4541A4"/>
<circle cx="996" cy="309" r="3" fill="#4541A4"/>
<circle cx="1010" cy="309" r="3" fill="#4541A4"/>
<circle cx="1024" cy="309" r="3" fill="#4541A4"/>
<circle cx="1038" cy="309" r="3" fill="#4541A4"/>
<circle cx="1052" cy="309" r="3" fill="#4541A4"/>
<circle cx="968" cy="323" r="3" fill="#4541A4"/>
<circle cx="982" cy="323" r="3" fill="#4541A4"/>
<circle cx="996" cy="323" r="3" fill="#4541A4"/>
<circle cx="1010" cy="323" r="3" fill="#4541A4"/>
<circle cx="1024" cy="323" r="3" fill="#4541A4"/>
<circle cx="1038" cy="323" r="3" fill="#4541A4"/>
<circle cx="1052" cy="323" r="3" fill="#4541A4"/>
<circle cx="968" cy="337" r="3" fill="#4541A4"/>
<circle cx="982" cy="337" r="3" fill="#4541A4"/>
<circle cx="996" cy="337" r="3" fill="#4541A4"/>
<circle cx="1010" cy="337" r="3" fill="#4541A4"/>
<circle cx="1024" cy="337" r="3" fill="#4541A4"/>
<circle cx="1038" cy="337" r="3" fill="#4541A4"/>
<circle cx="1052" cy="337" r="3" fill="#4541A4"/>
<circle cx="968" cy="351" r="3" fill="#4541A4"/>
<circle cx="982" cy="351" r="3" fill="#4541A4"/>
<circle cx="996" cy="351" r="3" fill="#4541A4"/>
<circle cx="1010" cy="351" r="3" fill="#4541A4"/>
<circle cx="1024" cy="351" r="3" fill="#4541A4"/>
<circle cx="1038" cy="351" r="3" fill="#4541A4"/>
<circle cx="1052" cy="351" r="3" fill="#4541A4"/>
<circle cx="968" cy="365" r="3" fill="#4541A4"/>
<circle cx="982" cy="365" r="3" fill="#4541A4"/>
<circle cx="996" cy="365" r="3" fill="#4541A4"/>
<circle cx="1010" cy="365" r="3" fill="#4541A4"/>
<circle cx="1024" cy="365" r="3" fill="#4541A4"/>
<circle cx="1038" cy="365" r="3" fill="#4541A4"/>
<circle cx="1052" cy="365" r="3" fill="#4541A4"/>
<circle cx="968" cy="379" r="3" fill="#4541A4"/>
<circle cx="982" cy="379" r="3" fill="#4541A4"/>
<circle cx="996" cy="379" r="3" fill="#4541A4"/>
<circle cx="1010" cy="379" r="3" fill="#4541A4"/>
<circle cx="1024" cy="379" r="3" fill="#4541A4"/>
<circle cx="1038" cy="379" r="3" fill="#4541A4"/>
<circle cx="1052" cy="379" r="3" fill="#4541A4"/>
<circle cx="968" cy="393" r="3" fill="#4541A4"/>
<circle cx="982" cy="393" r="3" fill="#4541A4"/>
<circle cx="996" cy="393" r="3" fill="#4541A4"/>
<circle cx="1010" cy="393" r="3" fill="#4541A4"/>
<circle cx="1024" cy="393" r="3" fill="#4541A4"/>
<circle cx="1038" cy="393" r="3" fill="#4541A4"/>
<circle cx="1052" cy="393" r="3" fill="#4541A4"/>
<circle cx="968" cy="407" r="3" fill="#4541A4"/>
<circle cx="982" cy="407" r="3" fill="#4541A4"/>
<circle cx="996" cy="407" r="3" fill="#4541A4"/>
<circle cx="1010" cy="407" r="3" fill="#4541A4"/>
<circle cx="1024" cy="407" r="3" fill="#4541A4"/>
<circle cx="1038" cy="407" r="3" fill="#4541A4"/>
<circle cx="1052" cy="407" r="3" fill="#4541A4"/>
<path d="M1129 737H1415L1129 442V737Z" fill="url(#paint5_linear)"/>
<path d="M1553 214H1267L1553 509V214Z" fill="url(#paint6_linear)"/>
</g>
<defs>
<linearGradient id="paint0_linear" x1="720" y1="0" x2="720" y2="944.744" gradientUnits="userSpaceOnUse">
<stop stop-color="#1C1B7E"/>
<stop offset="1" stop-color="#1E1079"/>
</linearGradient>
<linearGradient id="paint1_linear" x1="720" y1="0" x2="720" y2="944.744" gradientUnits="userSpaceOnUse">
<stop stop-color="#1C1B7E"/>
<stop offset="1" stop-color="#1E1079"/>
</linearGradient>
<linearGradient id="paint2_linear" x1="31" y1="274" x2="31" y2="569" gradientUnits="userSpaceOnUse">
<stop stop-color="#5652CC"/>
<stop offset="1" stop-color="#32279B"/>
</linearGradient>
<linearGradient id="paint3_linear" x1="230.5" y1="214" x2="230.5" y2="509" gradientUnits="userSpaceOnUse">
<stop stop-color="#282599"/>
<stop offset="1" stop-color="#261B86"/>
</linearGradient>
<linearGradient id="paint4_linear" x1="1285" y1="0" x2="1285" y2="554" gradientUnits="userSpaceOnUse">
<stop stop-color="#2D29A3"/>
<stop offset="1" stop-color="#261B86" stop-opacity="0"/>
</linearGradient>
<linearGradient id="paint5_linear" x1="1272" y1="442" x2="1272" y2="737" gradientUnits="userSpaceOnUse">
<stop stop-color="#282599"/>
<stop offset="1" stop-color="#261B86"/>
</linearGradient>
<linearGradient id="paint6_linear" x1="1410" y1="509" x2="1410" y2="214" gradientUnits="userSpaceOnUse">
<stop stop-color="#413EB4"/>
<stop offset="1" stop-color="#453BA4"/>
</linearGradient>
</defs>
</svg>
