<svg width="1440" height="954" viewBox="0 0 1440 954" fill="none" xmlns="http://www.w3.org/2000/svg">
<path d="M0 0H1440V954H0V0Z" fill="url(#paint0_linear)"/>
<mask id="mask0" mask-type="alpha" maskUnits="userSpaceOnUse" x="0" y="0" width="1440" height="954">
<path d="M0 0H1440V954H0V0Z" fill="url(#paint1_linear)"/>
</mask>
<g mask="url(#mask0)">
<rect x="-127" y="698" width="286" height="295" fill="url(#paint2_linear)"/>
<rect x="73" y="544" width="285" height="295" fill="url(#paint3_linear)"/>
<path d="M988 0H1553V554L1107.5 428L988 0Z" fill="url(#paint4_linear)"/>
<circle cx="906" cy="206" r="3" fill="#4541A4"/>
<circle cx="920" cy="206" r="3" fill="#4541A4"/>
<circle cx="934" cy="206" r="3" fill="#4541A4"/>
<circle cx="948" cy="206" r="3" fill="#4541A4"/>
<circle cx="962" cy="206" r="3" fill="#4541A4"/>
<circle cx="976" cy="206" r="3" fill="#4541A4"/>
<circle cx="990" cy="206" r="3" fill="#4541A4"/>
<circle cx="906" cy="220" r="3" fill="#4541A4"/>
<circle cx="920" cy="220" r="3" fill="#4541A4"/>
<circle cx="934" cy="220" r="3" fill="#4541A4"/>
<circle cx="948" cy="220" r="3" fill="#4541A4"/>
<circle cx="962" cy="220" r="3" fill="#4541A4"/>
<circle cx="976" cy="220" r="3" fill="#4541A4"/>
<circle cx="990" cy="220" r="3" fill="#4541A4"/>
<circle cx="906" cy="234" r="3" fill="#4541A4"/>
<circle cx="920" cy="234" r="3" fill="#4541A4"/>
<circle cx="934" cy="234" r="3" fill="#4541A4"/>
<circle cx="948" cy="234" r="3" fill="#4541A4"/>
<circle cx="962" cy="234" r="3" fill="#4541A4"/>
<circle cx="976" cy="234" r="3" fill="#4541A4"/>
<circle cx="990" cy="234" r="3" fill="#4541A4"/>
<circle cx="906" cy="248" r="3" fill="#4541A4"/>
<circle cx="920" cy="248" r="3" fill="#4541A4"/>
<circle cx="934" cy="248" r="3" fill="#4541A4"/>
<circle cx="948" cy="248" r="3" fill="#4541A4"/>
<circle cx="962" cy="248" r="3" fill="#4541A4"/>
<circle cx="976" cy="248" r="3" fill="#4541A4"/>
<circle cx="990" cy="248" r="3" fill="#4541A4"/>
<circle cx="906" cy="262" r="3" fill="#4541A4"/>
<circle cx="920" cy="262" r="3" fill="#4541A4"/>
<circle cx="934" cy="262" r="3" fill="#4541A4"/>
<circle cx="948" cy="262" r="3" fill="#4541A4"/>
<circle cx="962" cy="262" r="3" fill="#4541A4"/>
<circle cx="976" cy="262" r="3" fill="#4541A4"/>
<circle cx="990" cy="262" r="3" fill="#4541A4"/>
<circle cx="906" cy="276" r="3" fill="#4541A4"/>
<circle cx="920" cy="276" r="3" fill="#4541A4"/>
<circle cx="934" cy="276" r="3" fill="#4541A4"/>
<circle cx="948" cy="276" r="3" fill="#4541A4"/>
<circle cx="962" cy="276" r="3" fill="#4541A4"/>
<circle cx="976" cy="276" r="3" fill="#4541A4"/>
<circle cx="990" cy="276" r="3" fill="#4541A4"/>
<circle cx="906" cy="290" r="3" fill="#4541A4"/>
<circle cx="920" cy="290" r="3" fill="#4541A4"/>
<circle cx="934" cy="290" r="3" fill="#4541A4"/>
<circle cx="948" cy="290" r="3" fill="#4541A4"/>
<circle cx="962" cy="290" r="3" fill="#4541A4"/>
<circle cx="976" cy="290" r="3" fill="#4541A4"/>
<circle cx="990" cy="290" r="3" fill="#4541A4"/>
<circle cx="906" cy="304" r="3" fill="#4541A4"/>
<circle cx="920" cy="304" r="3" fill="#4541A4"/>
<circle cx="934" cy="304" r="3" fill="#4541A4"/>
<circle cx="948" cy="304" r="3" fill="#4541A4"/>
<circle cx="962" cy="304" r="3" fill="#4541A4"/>
<circle cx="976" cy="304" r="3" fill="#4541A4"/>
<circle cx="990" cy="304" r="3" fill="#4541A4"/>
<circle cx="906" cy="318" r="3" fill="#4541A4"/>
<circle cx="920" cy="318" r="3" fill="#4541A4"/>
<circle cx="934" cy="318" r="3" fill="#4541A4"/>
<circle cx="948" cy="318" r="3" fill="#4541A4"/>
<circle cx="962" cy="318" r="3" fill="#4541A4"/>
<circle cx="976" cy="318" r="3" fill="#4541A4"/>
<circle cx="990" cy="318" r="3" fill="#4541A4"/>
<circle cx="906" cy="332" r="3" fill="#4541A4"/>
<circle cx="920" cy="332" r="3" fill="#4541A4"/>
<circle cx="934" cy="332" r="3" fill="#4541A4"/>
<circle cx="948" cy="332" r="3" fill="#4541A4"/>
<circle cx="962" cy="332" r="3" fill="#4541A4"/>
<circle cx="976" cy="332" r="3" fill="#4541A4"/>
<circle cx="990" cy="332" r="3" fill="#4541A4"/>
<circle cx="906" cy="346" r="3" fill="#4541A4"/>
<circle cx="920" cy="346" r="3" fill="#4541A4"/>
<circle cx="934" cy="346" r="3" fill="#4541A4"/>
<circle cx="948" cy="346" r="3" fill="#4541A4"/>
<circle cx="962" cy="346" r="3" fill="#4541A4"/>
<circle cx="976" cy="346" r="3" fill="#4541A4"/>
<circle cx="990" cy="346" r="3" fill="#4541A4"/>
<circle cx="906" cy="360" r="3" fill="#4541A4"/>
<circle cx="920" cy="360" r="3" fill="#4541A4"/>
<circle cx="934" cy="360" r="3" fill="#4541A4"/>
<circle cx="948" cy="360" r="3" fill="#4541A4"/>
<circle cx="962" cy="360" r="3" fill="#4541A4"/>
<circle cx="976" cy="360" r="3" fill="#4541A4"/>
<circle cx="990" cy="360" r="3" fill="#4541A4"/>
<circle cx="1004" cy="206" r="3" fill="#4541A4"/>
<circle cx="1018" cy="206" r="3" fill="#4541A4"/>
<circle cx="1032" cy="206" r="3" fill="#4541A4"/>
<circle cx="1046" cy="206" r="3" fill="#4541A4"/>
<circle cx="1060" cy="206" r="3" fill="#4541A4"/>
<circle cx="1074" cy="206" r="3" fill="#4541A4"/>
<circle cx="1088" cy="206" r="3" fill="#4541A4"/>
<circle cx="1004" cy="220" r="3" fill="#4541A4"/>
<circle cx="1018" cy="220" r="3" fill="#4541A4"/>
<circle cx="1032" cy="220" r="3" fill="#4541A4"/>
<circle cx="1046" cy="220" r="3" fill="#4541A4"/>
<circle cx="1060" cy="220" r="3" fill="#4541A4"/>
<circle cx="1074" cy="220" r="3" fill="#4541A4"/>
<circle cx="1088" cy="220" r="3" fill="#4541A4"/>
<circle cx="1004" cy="234" r="3" fill="#4541A4"/>
<circle cx="1018" cy="234" r="3" fill="#4541A4"/>
<circle cx="1032" cy="234" r="3" fill="#4541A4"/>
<circle cx="1046" cy="234" r="3" fill="#4541A4"/>
<circle cx="1060" cy="234" r="3" fill="#4541A4"/>
<circle cx="1074" cy="234" r="3" fill="#4541A4"/>
<circle cx="1088" cy="234" r="3" fill="#4541A4"/>
<circle cx="1004" cy="248" r="3" fill="#4541A4"/>
<circle cx="1018" cy="248" r="3" fill="#4541A4"/>
<circle cx="1032" cy="248" r="3" fill="#4541A4"/>
<circle cx="1046" cy="248" r="3" fill="#4541A4"/>
<circle cx="1060" cy="248" r="3" fill="#4541A4"/>
<circle cx="1074" cy="248" r="3" fill="#4541A4"/>
<circle cx="1088" cy="248" r="3" fill="#4541A4"/>
<circle cx="1004" cy="262" r="3" fill="#4541A4"/>
<circle cx="1018" cy="262" r="3" fill="#4541A4"/>
<circle cx="1032" cy="262" r="3" fill="#4541A4"/>
<circle cx="1046" cy="262" r="3" fill="#4541A4"/>
<circle cx="1060" cy="262" r="3" fill="#4541A4"/>
<circle cx="1074" cy="262" r="3" fill="#4541A4"/>
<circle cx="1088" cy="262" r="3" fill="#4541A4"/>
<circle cx="1004" cy="276" r="3" fill="#4541A4"/>
<circle cx="1018" cy="276" r="3" fill="#4541A4"/>
<circle cx="1032" cy="276" r="3" fill="#4541A4"/>
<circle cx="1046" cy="276" r="3" fill="#4541A4"/>
<circle cx="1060" cy="276" r="3" fill="#4541A4"/>
<circle cx="1074" cy="276" r="3" fill="#4541A4"/>
<circle cx="1088" cy="276" r="3" fill="#4541A4"/>
<circle cx="1004" cy="290" r="3" fill="#4541A4"/>
<circle cx="1018" cy="290" r="3" fill="#4541A4"/>
<circle cx="1032" cy="290" r="3" fill="#4541A4"/>
<circle cx="1046" cy="290" r="3" fill="#4541A4"/>
<circle cx="1060" cy="290" r="3" fill="#4541A4"/>
<circle cx="1074" cy="290" r="3" fill="#4541A4"/>
<circle cx="1088" cy="290" r="3" fill="#4541A4"/>
<circle cx="1004" cy="304" r="3" fill="#4541A4"/>
<circle cx="1018" cy="304" r="3" fill="#4541A4"/>
<circle cx="1032" cy="304" r="3" fill="#4541A4"/>
<circle cx="1046" cy="304" r="3" fill="#4541A4"/>
<circle cx="1060" cy="304" r="3" fill="#4541A4"/>
<circle cx="1074" cy="304" r="3" fill="#4541A4"/>
<circle cx="1088" cy="304" r="3" fill="#4541A4"/>
<circle cx="1004" cy="318" r="3" fill="#4541A4"/>
<circle cx="1018" cy="318" r="3" fill="#4541A4"/>
<circle cx="1032" cy="318" r="3" fill="#4541A4"/>
<circle cx="1046" cy="318" r="3" fill="#4541A4"/>
<circle cx="1060" cy="318" r="3" fill="#4541A4"/>
<circle cx="1074" cy="318" r="3" fill="#4541A4"/>
<circle cx="1088" cy="318" r="3" fill="#4541A4"/>
<circle cx="1004" cy="332" r="3" fill="#4541A4"/>
<circle cx="1018" cy="332" r="3" fill="#4541A4"/>
<circle cx="1032" cy="332" r="3" fill="#4541A4"/>
<circle cx="1046" cy="332" r="3" fill="#4541A4"/>
<circle cx="1060" cy="332" r="3" fill="#4541A4"/>
<circle cx="1074" cy="332" r="3" fill="#4541A4"/>
<circle cx="1088" cy="332" r="3" fill="#4541A4"/>
<circle cx="1004" cy="346" r="3" fill="#4541A4"/>
<circle cx="1018" cy="346" r="3" fill="#4541A4"/>
<circle cx="1032" cy="346" r="3" fill="#4541A4"/>
<circle cx="1046" cy="346" r="3" fill="#4541A4"/>
<circle cx="1060" cy="346" r="3" fill="#4541A4"/>
<circle cx="1074" cy="346" r="3" fill="#4541A4"/>
<circle cx="1088" cy="346" r="3" fill="#4541A4"/>
<circle cx="1004" cy="360" r="3" fill="#4541A4"/>
<circle cx="1018" cy="360" r="3" fill="#4541A4"/>
<circle cx="1032" cy="360" r="3" fill="#4541A4"/>
<circle cx="1046" cy="360" r="3" fill="#4541A4"/>
<circle cx="1060" cy="360" r="3" fill="#4541A4"/>
<circle cx="1074" cy="360" r="3" fill="#4541A4"/>
<circle cx="1088" cy="360" r="3" fill="#4541A4"/>
<path d="M777 728H1063L777 433V728Z" fill="url(#paint5_linear)"/>
<path d="M1505 219H1219L1505 514V219Z" fill="url(#paint6_linear)"/>
</g>
<defs>
<linearGradient id="paint0_linear" x1="720" y1="0" x2="720" y2="915.546" gradientUnits="userSpaceOnUse">
<stop stop-color="#1C1B7E"/>
<stop offset="1" stop-color="#1E1079"/>
</linearGradient>
<linearGradient id="paint1_linear" x1="720" y1="0" x2="720" y2="915.546" gradientUnits="userSpaceOnUse">
<stop stop-color="#1C1B7E"/>
<stop offset="1" stop-color="#1E1079"/>
</linearGradient>
<linearGradient id="paint2_linear" x1="16" y1="698" x2="16" y2="993" gradientUnits="userSpaceOnUse">
<stop stop-color="#5652CC"/>
<stop offset="1" stop-color="#32279B"/>
</linearGradient>
<linearGradient id="paint3_linear" x1="215.5" y1="544" x2="215.5" y2="839" gradientUnits="userSpaceOnUse">
<stop stop-color="#282599"/>
<stop offset="1" stop-color="#261B86"/>
</linearGradient>
<linearGradient id="paint4_linear" x1="1285" y1="0" x2="1285" y2="554" gradientUnits="userSpaceOnUse">
<stop stop-color="#2D29A3"/>
<stop offset="1" stop-color="#261B86" stop-opacity="0"/>
</linearGradient>
<linearGradient id="paint5_linear" x1="920" y1="433" x2="920" y2="728" gradientUnits="userSpaceOnUse">
<stop stop-color="#282599"/>
<stop offset="1" stop-color="#261B86"/>
</linearGradient>
<linearGradient id="paint6_linear" x1="1362" y1="514" x2="1362" y2="219" gradientUnits="userSpaceOnUse">
<stop stop-color="#413EB4"/>
<stop offset="1" stop-color="#453BA4"/>
</linearGradient>
</defs>
</svg>
