<svg width="1440" height="965" viewBox="0 0 1440 965" fill="none" xmlns="http://www.w3.org/2000/svg">
<path d="M0 0H1440V964.076H0L0 0Z" fill="url(#paint0_linear)"/>
<mask id="mask0" mask-type="alpha" maskUnits="userSpaceOnUse" x="0" y="0" width="1440" height="965">
<path d="M0 0H1440V743.574L0 964.076L0 0Z" fill="url(#paint1_linear)"/>
</mask>
<g mask="url(#mask0)">
<rect x="-56" y="516.478" width="212" height="219" fill="url(#paint2_linear)"/>
<rect x="90" y="412" width="211" height="219" fill="url(#paint3_linear)"/>
<path d="M901 0H1466V554L1020.5 428L901 0Z" fill="url(#paint4_linear)"/>
<circle cx="1021" cy="450" r="3" fill="#4541A4"/>
<circle cx="1035" cy="450" r="3" fill="#4541A4"/>
<circle cx="1049" cy="450" r="3" fill="#4541A4"/>
<circle cx="1063" cy="450" r="3" fill="#4541A4"/>
<circle cx="1077" cy="450" r="3" fill="#4541A4"/>
<circle cx="1091" cy="450" r="3" fill="#4541A4"/>
<circle cx="1105" cy="450" r="3" fill="#4541A4"/>
<circle cx="1021" cy="464" r="3" fill="#4541A4"/>
<circle cx="1035" cy="464" r="3" fill="#4541A4"/>
<circle cx="1049" cy="464" r="3" fill="#4541A4"/>
<circle cx="1063" cy="464" r="3" fill="#4541A4"/>
<circle cx="1077" cy="464" r="3" fill="#4541A4"/>
<circle cx="1091" cy="464" r="3" fill="#4541A4"/>
<circle cx="1105" cy="464" r="3" fill="#4541A4"/>
<circle cx="1021" cy="478" r="3" fill="#4541A4"/>
<circle cx="1035" cy="478" r="3" fill="#4541A4"/>
<circle cx="1049" cy="478" r="3" fill="#4541A4"/>
<circle cx="1063" cy="478" r="3" fill="#4541A4"/>
<circle cx="1077" cy="478" r="3" fill="#4541A4"/>
<circle cx="1091" cy="478" r="3" fill="#4541A4"/>
<circle cx="1105" cy="478" r="3" fill="#4541A4"/>
<circle cx="1021" cy="492" r="3" fill="#4541A4"/>
<circle cx="1035" cy="492" r="3" fill="#4541A4"/>
<circle cx="1049" cy="492" r="3" fill="#4541A4"/>
<circle cx="1063" cy="492" r="3" fill="#4541A4"/>
<circle cx="1077" cy="492" r="3" fill="#4541A4"/>
<circle cx="1091" cy="492" r="3" fill="#4541A4"/>
<circle cx="1105" cy="492" r="3" fill="#4541A4"/>
<circle cx="1021" cy="506" r="3" fill="#4541A4"/>
<circle cx="1035" cy="506" r="3" fill="#4541A4"/>
<circle cx="1049" cy="506" r="3" fill="#4541A4"/>
<circle cx="1063" cy="506" r="3" fill="#4541A4"/>
<circle cx="1077" cy="506" r="3" fill="#4541A4"/>
<circle cx="1091" cy="506" r="3" fill="#4541A4"/>
<circle cx="1105" cy="506" r="3" fill="#4541A4"/>
<circle cx="1021" cy="520" r="3" fill="#4541A4"/>
<circle cx="1035" cy="520" r="3" fill="#4541A4"/>
<circle cx="1049" cy="520" r="3" fill="#4541A4"/>
<circle cx="1063" cy="520" r="3" fill="#4541A4"/>
<circle cx="1077" cy="520" r="3" fill="#4541A4"/>
<circle cx="1091" cy="520" r="3" fill="#4541A4"/>
<circle cx="1105" cy="520" r="3" fill="#4541A4"/>
<circle cx="1021" cy="534" r="3" fill="#4541A4"/>
<circle cx="1035" cy="534" r="3" fill="#4541A4"/>
<circle cx="1049" cy="534" r="3" fill="#4541A4"/>
<circle cx="1063" cy="534" r="3" fill="#4541A4"/>
<circle cx="1077" cy="534" r="3" fill="#4541A4"/>
<circle cx="1091" cy="534" r="3" fill="#4541A4"/>
<circle cx="1105" cy="534" r="3" fill="#4541A4"/>
<circle cx="1021" cy="548" r="3" fill="#4541A4"/>
<circle cx="1035" cy="548" r="3" fill="#4541A4"/>
<circle cx="1049" cy="548" r="3" fill="#4541A4"/>
<circle cx="1063" cy="548" r="3" fill="#4541A4"/>
<circle cx="1077" cy="548" r="3" fill="#4541A4"/>
<circle cx="1091" cy="548" r="3" fill="#4541A4"/>
<circle cx="1105" cy="548" r="3" fill="#4541A4"/>
<circle cx="1021" cy="562" r="3" fill="#4541A4"/>
<circle cx="1035" cy="562" r="3" fill="#4541A4"/>
<circle cx="1049" cy="562" r="3" fill="#4541A4"/>
<circle cx="1063" cy="562" r="3" fill="#4541A4"/>
<circle cx="1077" cy="562" r="3" fill="#4541A4"/>
<circle cx="1091" cy="562" r="3" fill="#4541A4"/>
<circle cx="1105" cy="562" r="3" fill="#4541A4"/>
<circle cx="1021" cy="576" r="3" fill="#4541A4"/>
<circle cx="1035" cy="576" r="3" fill="#4541A4"/>
<circle cx="1049" cy="576" r="3" fill="#4541A4"/>
<circle cx="1063" cy="576" r="3" fill="#4541A4"/>
<circle cx="1077" cy="576" r="3" fill="#4541A4"/>
<circle cx="1091" cy="576" r="3" fill="#4541A4"/>
<circle cx="1105" cy="576" r="3" fill="#4541A4"/>
<circle cx="1021" cy="590" r="3" fill="#4541A4"/>
<circle cx="1035" cy="590" r="3" fill="#4541A4"/>
<circle cx="1049" cy="590" r="3" fill="#4541A4"/>
<circle cx="1063" cy="590" r="3" fill="#4541A4"/>
<circle cx="1077" cy="590" r="3" fill="#4541A4"/>
<circle cx="1091" cy="590" r="3" fill="#4541A4"/>
<circle cx="1105" cy="590" r="3" fill="#4541A4"/>
<circle cx="1021" cy="604" r="3" fill="#4541A4"/>
<circle cx="1035" cy="604" r="3" fill="#4541A4"/>
<circle cx="1049" cy="604" r="3" fill="#4541A4"/>
<circle cx="1063" cy="604" r="3" fill="#4541A4"/>
<circle cx="1077" cy="604" r="3" fill="#4541A4"/>
<circle cx="1091" cy="604" r="3" fill="#4541A4"/>
<circle cx="1105" cy="604" r="3" fill="#4541A4"/>
<circle cx="1119" cy="450" r="3" fill="#4541A4"/>
<circle cx="1133" cy="450" r="3" fill="#4541A4"/>
<circle cx="1147" cy="450" r="3" fill="#4541A4"/>
<circle cx="1161" cy="450" r="3" fill="#4541A4"/>
<circle cx="1175" cy="450" r="3" fill="#4541A4"/>
<circle cx="1189" cy="450" r="3" fill="#4541A4"/>
<circle cx="1203" cy="450" r="3" fill="#4541A4"/>
<circle cx="1119" cy="464" r="3" fill="#4541A4"/>
<circle cx="1133" cy="464" r="3" fill="#4541A4"/>
<circle cx="1147" cy="464" r="3" fill="#4541A4"/>
<circle cx="1161" cy="464" r="3" fill="#4541A4"/>
<circle cx="1175" cy="464" r="3" fill="#4541A4"/>
<circle cx="1189" cy="464" r="3" fill="#4541A4"/>
<circle cx="1203" cy="464" r="3" fill="#4541A4"/>
<circle cx="1119" cy="478" r="3" fill="#4541A4"/>
<circle cx="1133" cy="478" r="3" fill="#4541A4"/>
<circle cx="1147" cy="478" r="3" fill="#4541A4"/>
<circle cx="1161" cy="478" r="3" fill="#4541A4"/>
<circle cx="1175" cy="478" r="3" fill="#4541A4"/>
<circle cx="1189" cy="478" r="3" fill="#4541A4"/>
<circle cx="1203" cy="478" r="3" fill="#4541A4"/>
<circle cx="1119" cy="492" r="3" fill="#4541A4"/>
<circle cx="1133" cy="492" r="3" fill="#4541A4"/>
<circle cx="1147" cy="492" r="3" fill="#4541A4"/>
<circle cx="1161" cy="492" r="3" fill="#4541A4"/>
<circle cx="1175" cy="492" r="3" fill="#4541A4"/>
<circle cx="1189" cy="492" r="3" fill="#4541A4"/>
<circle cx="1203" cy="492" r="3" fill="#4541A4"/>
<circle cx="1119" cy="506" r="3" fill="#4541A4"/>
<circle cx="1133" cy="506" r="3" fill="#4541A4"/>
<circle cx="1147" cy="506" r="3" fill="#4541A4"/>
<circle cx="1161" cy="506" r="3" fill="#4541A4"/>
<circle cx="1175" cy="506" r="3" fill="#4541A4"/>
<circle cx="1189" cy="506" r="3" fill="#4541A4"/>
<circle cx="1203" cy="506" r="3" fill="#4541A4"/>
<circle cx="1119" cy="520" r="3" fill="#4541A4"/>
<circle cx="1133" cy="520" r="3" fill="#4541A4"/>
<circle cx="1147" cy="520" r="3" fill="#4541A4"/>
<circle cx="1161" cy="520" r="3" fill="#4541A4"/>
<circle cx="1175" cy="520" r="3" fill="#4541A4"/>
<circle cx="1189" cy="520" r="3" fill="#4541A4"/>
<circle cx="1203" cy="520" r="3" fill="#4541A4"/>
<circle cx="1119" cy="534" r="3" fill="#4541A4"/>
<circle cx="1133" cy="534" r="3" fill="#4541A4"/>
<circle cx="1147" cy="534" r="3" fill="#4541A4"/>
<circle cx="1161" cy="534" r="3" fill="#4541A4"/>
<circle cx="1175" cy="534" r="3" fill="#4541A4"/>
<circle cx="1189" cy="534" r="3" fill="#4541A4"/>
<circle cx="1203" cy="534" r="3" fill="#4541A4"/>
<circle cx="1119" cy="548" r="3" fill="#4541A4"/>
<circle cx="1133" cy="548" r="3" fill="#4541A4"/>
<circle cx="1147" cy="548" r="3" fill="#4541A4"/>
<circle cx="1161" cy="548" r="3" fill="#4541A4"/>
<circle cx="1175" cy="548" r="3" fill="#4541A4"/>
<circle cx="1189" cy="548" r="3" fill="#4541A4"/>
<circle cx="1203" cy="548" r="3" fill="#4541A4"/>
<circle cx="1119" cy="562" r="3" fill="#4541A4"/>
<circle cx="1133" cy="562" r="3" fill="#4541A4"/>
<circle cx="1147" cy="562" r="3" fill="#4541A4"/>
<circle cx="1161" cy="562" r="3" fill="#4541A4"/>
<circle cx="1175" cy="562" r="3" fill="#4541A4"/>
<circle cx="1189" cy="562" r="3" fill="#4541A4"/>
<circle cx="1203" cy="562" r="3" fill="#4541A4"/>
<circle cx="1119" cy="576" r="3" fill="#4541A4"/>
<circle cx="1133" cy="576" r="3" fill="#4541A4"/>
<circle cx="1147" cy="576" r="3" fill="#4541A4"/>
<circle cx="1161" cy="576" r="3" fill="#4541A4"/>
<circle cx="1175" cy="576" r="3" fill="#4541A4"/>
<circle cx="1189" cy="576" r="3" fill="#4541A4"/>
<circle cx="1203" cy="576" r="3" fill="#4541A4"/>
<circle cx="1119" cy="590" r="3" fill="#4541A4"/>
<circle cx="1133" cy="590" r="3" fill="#4541A4"/>
<circle cx="1147" cy="590" r="3" fill="#4541A4"/>
<circle cx="1161" cy="590" r="3" fill="#4541A4"/>
<circle cx="1175" cy="590" r="3" fill="#4541A4"/>
<circle cx="1189" cy="590" r="3" fill="#4541A4"/>
<circle cx="1203" cy="590" r="3" fill="#4541A4"/>
<circle cx="1119" cy="604" r="3" fill="#4541A4"/>
<circle cx="1133" cy="604" r="3" fill="#4541A4"/>
<circle cx="1147" cy="604" r="3" fill="#4541A4"/>
<circle cx="1161" cy="604" r="3" fill="#4541A4"/>
<circle cx="1175" cy="604" r="3" fill="#4541A4"/>
<circle cx="1189" cy="604" r="3" fill="#4541A4"/>
<circle cx="1203" cy="604" r="3" fill="#4541A4"/>
<path d="M374 735H660L374 440V735Z" fill="url(#paint5_linear)"/>
<path d="M1486 219H1200L1486 514V219Z" fill="url(#paint6_linear)"/>
</g>
<defs>
<linearGradient id="paint0_linear" x1="720" y1="0" x2="720" y2="1005.3" gradientUnits="userSpaceOnUse">
<stop stop-color="#1C1B7E"/>
<stop offset="1" stop-color="#1E1079"/>
</linearGradient>
<linearGradient id="paint1_linear" x1="720" y1="0" x2="720" y2="1005.3" gradientUnits="userSpaceOnUse">
<stop stop-color="#1C1B7E"/>
<stop offset="1" stop-color="#1E1079"/>
</linearGradient>
<linearGradient id="paint2_linear" x1="50" y1="516.478" x2="50" y2="735.478" gradientUnits="userSpaceOnUse">
<stop stop-color="#5652CC"/>
<stop offset="1" stop-color="#32279B"/>
</linearGradient>
<linearGradient id="paint3_linear" x1="195.5" y1="412" x2="195.5" y2="631" gradientUnits="userSpaceOnUse">
<stop stop-color="#282599"/>
<stop offset="1" stop-color="#261B86"/>
</linearGradient>
<linearGradient id="paint4_linear" x1="1198" y1="0" x2="1198" y2="554" gradientUnits="userSpaceOnUse">
<stop stop-color="#2D29A3"/>
<stop offset="1" stop-color="#261B86" stop-opacity="0"/>
</linearGradient>
<linearGradient id="paint5_linear" x1="517" y1="440" x2="517" y2="735" gradientUnits="userSpaceOnUse">
<stop stop-color="#282599"/>
<stop offset="1" stop-color="#261B86"/>
</linearGradient>
<linearGradient id="paint6_linear" x1="1343" y1="514" x2="1343" y2="219" gradientUnits="userSpaceOnUse">
<stop stop-color="#413EB4"/>
<stop offset="1" stop-color="#453BA4"/>
</linearGradient>
</defs>
</svg>
