<svg width="1440" height="650" viewBox="0 0 1440 650" fill="none" xmlns="http://www.w3.org/2000/svg">
<path d="M0 0H1440V650H0L0 0Z" fill="url(#paint0_linear)"/>
<mask id="mask0" mask-type="alpha" maskUnits="userSpaceOnUse" x="0" y="0" width="1440" height="650">
<path d="M0 0H1440V650H0L0 0Z" fill="url(#paint1_linear)"/>
</mask>
<g mask="url(#mask0)">
<circle cx="876" cy="139" r="3" fill="#4541A4"/>
<circle cx="890" cy="139" r="3" fill="#4541A4"/>
<circle cx="904" cy="139" r="3" fill="#4541A4"/>
<circle cx="918" cy="139" r="3" fill="#4541A4"/>
<circle cx="932" cy="139" r="3" fill="#4541A4"/>
<circle cx="946" cy="139" r="3" fill="#4541A4"/>
<circle cx="960" cy="139" r="3" fill="#4541A4"/>
<circle cx="876" cy="153" r="3" fill="#4541A4"/>
<circle cx="890" cy="153" r="3" fill="#4541A4"/>
<circle cx="904" cy="153" r="3" fill="#4541A4"/>
<circle cx="918" cy="153" r="3" fill="#4541A4"/>
<circle cx="932" cy="153" r="3" fill="#4541A4"/>
<circle cx="946" cy="153" r="3" fill="#4541A4"/>
<circle cx="960" cy="153" r="3" fill="#4541A4"/>
<circle cx="876" cy="167" r="3" fill="#4541A4"/>
<circle cx="890" cy="167" r="3" fill="#4541A4"/>
<circle cx="904" cy="167" r="3" fill="#4541A4"/>
<circle cx="918" cy="167" r="3" fill="#4541A4"/>
<circle cx="932" cy="167" r="3" fill="#4541A4"/>
<circle cx="946" cy="167" r="3" fill="#4541A4"/>
<circle cx="960" cy="167" r="3" fill="#4541A4"/>
<circle cx="876" cy="181" r="3" fill="#4541A4"/>
<circle cx="890" cy="181" r="3" fill="#4541A4"/>
<circle cx="904" cy="181" r="3" fill="#4541A4"/>
<circle cx="918" cy="181" r="3" fill="#4541A4"/>
<circle cx="932" cy="181" r="3" fill="#4541A4"/>
<circle cx="946" cy="181" r="3" fill="#4541A4"/>
<circle cx="960" cy="181" r="3" fill="#4541A4"/>
<circle cx="876" cy="195" r="3" fill="#4541A4"/>
<circle cx="890" cy="195" r="3" fill="#4541A4"/>
<circle cx="904" cy="195" r="3" fill="#4541A4"/>
<circle cx="918" cy="195" r="3" fill="#4541A4"/>
<circle cx="932" cy="195" r="3" fill="#4541A4"/>
<circle cx="946" cy="195" r="3" fill="#4541A4"/>
<circle cx="960" cy="195" r="3" fill="#4541A4"/>
<circle cx="876" cy="209" r="3" fill="#4541A4"/>
<circle cx="890" cy="209" r="3" fill="#4541A4"/>
<circle cx="904" cy="209" r="3" fill="#4541A4"/>
<circle cx="918" cy="209" r="3" fill="#4541A4"/>
<circle cx="932" cy="209" r="3" fill="#4541A4"/>
<circle cx="946" cy="209" r="3" fill="#4541A4"/>
<circle cx="960" cy="209" r="3" fill="#4541A4"/>
<circle cx="876" cy="223" r="3" fill="#4541A4"/>
<circle cx="890" cy="223" r="3" fill="#4541A4"/>
<circle cx="904" cy="223" r="3" fill="#4541A4"/>
<circle cx="918" cy="223" r="3" fill="#4541A4"/>
<circle cx="932" cy="223" r="3" fill="#4541A4"/>
<circle cx="946" cy="223" r="3" fill="#4541A4"/>
<circle cx="960" cy="223" r="3" fill="#4541A4"/>
<circle cx="876" cy="237" r="3" fill="#4541A4"/>
<circle cx="890" cy="237" r="3" fill="#4541A4"/>
<circle cx="904" cy="237" r="3" fill="#4541A4"/>
<circle cx="918" cy="237" r="3" fill="#4541A4"/>
<circle cx="932" cy="237" r="3" fill="#4541A4"/>
<circle cx="946" cy="237" r="3" fill="#4541A4"/>
<circle cx="960" cy="237" r="3" fill="#4541A4"/>
<circle cx="876" cy="251" r="3" fill="#4541A4"/>
<circle cx="890" cy="251" r="3" fill="#4541A4"/>
<circle cx="904" cy="251" r="3" fill="#4541A4"/>
<circle cx="918" cy="251" r="3" fill="#4541A4"/>
<circle cx="932" cy="251" r="3" fill="#4541A4"/>
<circle cx="946" cy="251" r="3" fill="#4541A4"/>
<circle cx="960" cy="251" r="3" fill="#4541A4"/>
<circle cx="876" cy="265" r="3" fill="#4541A4"/>
<circle cx="890" cy="265" r="3" fill="#4541A4"/>
<circle cx="904" cy="265" r="3" fill="#4541A4"/>
<circle cx="918" cy="265" r="3" fill="#4541A4"/>
<circle cx="932" cy="265" r="3" fill="#4541A4"/>
<circle cx="946" cy="265" r="3" fill="#4541A4"/>
<circle cx="960" cy="265" r="3" fill="#4541A4"/>
<circle cx="876" cy="279" r="3" fill="#4541A4"/>
<circle cx="890" cy="279" r="3" fill="#4541A4"/>
<circle cx="904" cy="279" r="3" fill="#4541A4"/>
<circle cx="918" cy="279" r="3" fill="#4541A4"/>
<circle cx="932" cy="279" r="3" fill="#4541A4"/>
<circle cx="946" cy="279" r="3" fill="#4541A4"/>
<circle cx="960" cy="279" r="3" fill="#4541A4"/>
<circle cx="876" cy="293" r="3" fill="#4541A4"/>
<circle cx="890" cy="293" r="3" fill="#4541A4"/>
<circle cx="904" cy="293" r="3" fill="#4541A4"/>
<circle cx="918" cy="293" r="3" fill="#4541A4"/>
<circle cx="932" cy="293" r="3" fill="#4541A4"/>
<circle cx="946" cy="293" r="3" fill="#4541A4"/>
<circle cx="960" cy="293" r="3" fill="#4541A4"/>
<circle cx="974" cy="139" r="3" fill="#4541A4"/>
<circle cx="988" cy="139" r="3" fill="#4541A4"/>
<circle cx="1002" cy="139" r="3" fill="#4541A4"/>
<circle cx="1016" cy="139" r="3" fill="#4541A4"/>
<circle cx="1030" cy="139" r="3" fill="#4541A4"/>
<circle cx="1044" cy="139" r="3" fill="#4541A4"/>
<circle cx="1058" cy="139" r="3" fill="#4541A4"/>
<circle cx="974" cy="153" r="3" fill="#4541A4"/>
<circle cx="988" cy="153" r="3" fill="#4541A4"/>
<circle cx="1002" cy="153" r="3" fill="#4541A4"/>
<circle cx="1016" cy="153" r="3" fill="#4541A4"/>
<circle cx="1030" cy="153" r="3" fill="#4541A4"/>
<circle cx="1044" cy="153" r="3" fill="#4541A4"/>
<circle cx="1058" cy="153" r="3" fill="#4541A4"/>
<circle cx="974" cy="167" r="3" fill="#4541A4"/>
<circle cx="988" cy="167" r="3" fill="#4541A4"/>
<circle cx="1002" cy="167" r="3" fill="#4541A4"/>
<circle cx="1016" cy="167" r="3" fill="#4541A4"/>
<circle cx="1030" cy="167" r="3" fill="#4541A4"/>
<circle cx="1044" cy="167" r="3" fill="#4541A4"/>
<circle cx="1058" cy="167" r="3" fill="#4541A4"/>
<circle cx="974" cy="181" r="3" fill="#4541A4"/>
<circle cx="988" cy="181" r="3" fill="#4541A4"/>
<circle cx="1002" cy="181" r="3" fill="#4541A4"/>
<circle cx="1016" cy="181" r="3" fill="#4541A4"/>
<circle cx="1030" cy="181" r="3" fill="#4541A4"/>
<circle cx="1044" cy="181" r="3" fill="#4541A4"/>
<circle cx="1058" cy="181" r="3" fill="#4541A4"/>
<circle cx="974" cy="195" r="3" fill="#4541A4"/>
<circle cx="988" cy="195" r="3" fill="#4541A4"/>
<circle cx="1002" cy="195" r="3" fill="#4541A4"/>
<circle cx="1016" cy="195" r="3" fill="#4541A4"/>
<circle cx="1030" cy="195" r="3" fill="#4541A4"/>
<circle cx="1044" cy="195" r="3" fill="#4541A4"/>
<circle cx="1058" cy="195" r="3" fill="#4541A4"/>
<circle cx="974" cy="209" r="3" fill="#4541A4"/>
<circle cx="988" cy="209" r="3" fill="#4541A4"/>
<circle cx="1002" cy="209" r="3" fill="#4541A4"/>
<circle cx="1016" cy="209" r="3" fill="#4541A4"/>
<circle cx="1030" cy="209" r="3" fill="#4541A4"/>
<circle cx="1044" cy="209" r="3" fill="#4541A4"/>
<circle cx="1058" cy="209" r="3" fill="#4541A4"/>
<circle cx="974" cy="223" r="3" fill="#4541A4"/>
<circle cx="988" cy="223" r="3" fill="#4541A4"/>
<circle cx="1002" cy="223" r="3" fill="#4541A4"/>
<circle cx="1016" cy="223" r="3" fill="#4541A4"/>
<circle cx="1030" cy="223" r="3" fill="#4541A4"/>
<circle cx="1044" cy="223" r="3" fill="#4541A4"/>
<circle cx="1058" cy="223" r="3" fill="#4541A4"/>
<circle cx="974" cy="237" r="3" fill="#4541A4"/>
<circle cx="988" cy="237" r="3" fill="#4541A4"/>
<circle cx="1002" cy="237" r="3" fill="#4541A4"/>
<circle cx="1016" cy="237" r="3" fill="#4541A4"/>
<circle cx="1030" cy="237" r="3" fill="#4541A4"/>
<circle cx="1044" cy="237" r="3" fill="#4541A4"/>
<circle cx="1058" cy="237" r="3" fill="#4541A4"/>
<circle cx="974" cy="251" r="3" fill="#4541A4"/>
<circle cx="988" cy="251" r="3" fill="#4541A4"/>
<circle cx="1002" cy="251" r="3" fill="#4541A4"/>
<circle cx="1016" cy="251" r="3" fill="#4541A4"/>
<circle cx="1030" cy="251" r="3" fill="#4541A4"/>
<circle cx="1044" cy="251" r="3" fill="#4541A4"/>
<circle cx="1058" cy="251" r="3" fill="#4541A4"/>
<circle cx="974" cy="265" r="3" fill="#4541A4"/>
<circle cx="988" cy="265" r="3" fill="#4541A4"/>
<circle cx="1002" cy="265" r="3" fill="#4541A4"/>
<circle cx="1016" cy="265" r="3" fill="#4541A4"/>
<circle cx="1030" cy="265" r="3" fill="#4541A4"/>
<circle cx="1044" cy="265" r="3" fill="#4541A4"/>
<circle cx="1058" cy="265" r="3" fill="#4541A4"/>
<circle cx="974" cy="279" r="3" fill="#4541A4"/>
<circle cx="988" cy="279" r="3" fill="#4541A4"/>
<circle cx="1002" cy="279" r="3" fill="#4541A4"/>
<circle cx="1016" cy="279" r="3" fill="#4541A4"/>
<circle cx="1030" cy="279" r="3" fill="#4541A4"/>
<circle cx="1044" cy="279" r="3" fill="#4541A4"/>
<circle cx="1058" cy="279" r="3" fill="#4541A4"/>
<circle cx="974" cy="293" r="3" fill="#4541A4"/>
<circle cx="988" cy="293" r="3" fill="#4541A4"/>
<circle cx="1002" cy="293" r="3" fill="#4541A4"/>
<circle cx="1016" cy="293" r="3" fill="#4541A4"/>
<circle cx="1030" cy="293" r="3" fill="#4541A4"/>
<circle cx="1044" cy="293" r="3" fill="#4541A4"/>
<circle cx="1058" cy="293" r="3" fill="#4541A4"/>
<circle cx="821" cy="479" r="3" transform="rotate(-180 821 479)" fill="#BDA6FF"/>
<circle cx="807" cy="479" r="3" transform="rotate(-180 807 479)" fill="#BDA6FF"/>
<circle cx="793" cy="479" r="3" transform="rotate(-180 793 479)" fill="#BDA6FF"/>
<circle cx="821" cy="465" r="3" transform="rotate(-180 821 465)" fill="#BDA6FF"/>
<circle cx="807" cy="465" r="3" transform="rotate(-180 807 465)" fill="#BDA6FF"/>
<circle cx="793" cy="465" r="3" transform="rotate(-180 793 465)" fill="#BDA6FF"/>
<circle cx="779" cy="465" r="3" transform="rotate(-180 779 465)" fill="#BDA6FF"/>
<circle cx="765" cy="465" r="3" transform="rotate(-180 765 465)" fill="#BDA6FF"/>
<circle cx="821" cy="451" r="3" transform="rotate(-180 821 451)" fill="#BDA6FF"/>
<circle cx="807" cy="451" r="3" transform="rotate(-180 807 451)" fill="#BDA6FF"/>
<circle cx="793" cy="451" r="3" transform="rotate(-180 793 451)" fill="#BDA6FF"/>
<circle cx="779" cy="451" r="3" transform="rotate(-180 779 451)" fill="#BDA6FF"/>
<circle cx="765" cy="451" r="3" transform="rotate(-180 765 451)" fill="#BDA6FF"/>
<circle cx="751" cy="451" r="3" transform="rotate(-180 751 451)" fill="#BDA6FF"/>
<circle cx="737" cy="451" r="3" transform="rotate(-180 737 451)" fill="#BDA6FF"/>
<rect opacity="0.8" x="-167" y="262" width="286" height="295" fill="url(#paint2_linear)"/>
<rect opacity="0.8" x="71" y="392" width="285" height="295" fill="url(#paint3_linear)"/>
<path d="M988 0H1553V554L1107.5 428L988 0Z" fill="url(#paint4_linear)"/>
<path d="M1129 737H1415L1129 442V737Z" fill="url(#paint5_linear)"/>
<path d="M1485 233H1199L1485 528V233Z" fill="url(#paint6_linear)"/>
</g>
<defs>
<linearGradient id="paint0_linear" x1="720" y1="0" x2="720" y2="677.796" gradientUnits="userSpaceOnUse">
<stop stop-color="#1C1B7E"/>
<stop offset="1" stop-color="#1E1079"/>
</linearGradient>
<linearGradient id="paint1_linear" x1="720" y1="0" x2="720" y2="677.796" gradientUnits="userSpaceOnUse">
<stop stop-color="#1C1B7E"/>
<stop offset="1" stop-color="#1E1079"/>
</linearGradient>
<linearGradient id="paint2_linear" x1="-24" y1="262" x2="-24" y2="557" gradientUnits="userSpaceOnUse">
<stop stop-color="#5652CC"/>
<stop offset="1" stop-color="#32279B"/>
</linearGradient>
<linearGradient id="paint3_linear" x1="213.5" y1="392" x2="213.5" y2="687" gradientUnits="userSpaceOnUse">
<stop stop-color="#282599"/>
<stop offset="1" stop-color="#261B86"/>
</linearGradient>
<linearGradient id="paint4_linear" x1="1285" y1="0" x2="1285" y2="554" gradientUnits="userSpaceOnUse">
<stop stop-color="#2D29A3"/>
<stop offset="1" stop-color="#261B86" stop-opacity="0"/>
</linearGradient>
<linearGradient id="paint5_linear" x1="1272" y1="442" x2="1272" y2="737" gradientUnits="userSpaceOnUse">
<stop stop-color="#282599"/>
<stop offset="1" stop-color="#261B86"/>
</linearGradient>
<linearGradient id="paint6_linear" x1="1342" y1="528" x2="1342" y2="233" gradientUnits="userSpaceOnUse">
<stop stop-color="#413EB4"/>
<stop offset="1" stop-color="#453BA4"/>
</linearGradient>
</defs>
</svg>
