<svg width="1220" height="436" viewBox="0 0 1220 436" fill="none" xmlns="http://www.w3.org/2000/svg">
<rect width="1220" height="436" fill="url(#paint0_linear)"/>
<mask id="mask0" mask-type="alpha" maskUnits="userSpaceOnUse" x="0" y="0" width="1220" height="436">
<rect width="1220" height="436" fill="url(#paint1_linear)"/>
</mask>
<g mask="url(#mask0)">
<rect x="633" y="-45" width="285" height="295" fill="url(#paint2_linear)"/>
<path d="M690 329H945L690 66V329Z" fill="url(#paint3_linear)"/>
<path d="M52 203H307L52 -60V203Z" fill="url(#paint4_linear)"/>
<path d="M-16 277H239L-16 14V277Z" fill="url(#paint5_linear)"/>
<rect x="975" y="154" width="285" height="295" fill="url(#paint6_linear)"/>
<circle cx="10" cy="223" r="3" fill="#4541A4"/>
<circle cx="24" cy="223" r="3" fill="#4541A4"/>
<circle cx="38" cy="223" r="3" fill="#4541A4"/>
<circle cx="52" cy="223" r="3" fill="#4541A4"/>
<circle cx="10" cy="237" r="3" fill="#4541A4"/>
<circle cx="24" cy="237" r="3" fill="#4541A4"/>
<circle cx="38" cy="237" r="3" fill="#4541A4"/>
<circle cx="52" cy="237" r="3" fill="#4541A4"/>
<circle cx="10" cy="251" r="3" fill="#4541A4"/>
<circle cx="24" cy="251" r="3" fill="#4541A4"/>
<circle cx="38" cy="251" r="3" fill="#4541A4"/>
<circle cx="52" cy="251" r="3" fill="#4541A4"/>
<circle cx="10" cy="265" r="3" fill="#4541A4"/>
<circle cx="24" cy="265" r="3" fill="#4541A4"/>
<circle cx="38" cy="265" r="3" fill="#4541A4"/>
<circle cx="52" cy="265" r="3" fill="#4541A4"/>
<circle cx="10" cy="279" r="3" fill="#4541A4"/>
<circle cx="24" cy="279" r="3" fill="#4541A4"/>
<circle cx="38" cy="279" r="3" fill="#4541A4"/>
<circle cx="52" cy="279" r="3" fill="#4541A4"/>
<circle cx="10" cy="293" r="3" fill="#4541A4"/>
<circle cx="24" cy="293" r="3" fill="#4541A4"/>
<circle cx="38" cy="293" r="3" fill="#4541A4"/>
<circle cx="52" cy="293" r="3" fill="#4541A4"/>
<circle cx="10" cy="307" r="3" fill="#4541A4"/>
<circle cx="24" cy="307" r="3" fill="#4541A4"/>
<circle cx="38" cy="307" r="3" fill="#4541A4"/>
<circle cx="52" cy="307" r="3" fill="#4541A4"/>
<circle cx="10" cy="321" r="3" fill="#4541A4"/>
<circle cx="24" cy="321" r="3" fill="#4541A4"/>
<circle cx="38" cy="321" r="3" fill="#4541A4"/>
<circle cx="52" cy="321" r="3" fill="#4541A4"/>
<circle cx="10" cy="335" r="3" fill="#4541A4"/>
<circle cx="24" cy="335" r="3" fill="#4541A4"/>
<circle cx="38" cy="335" r="3" fill="#4541A4"/>
<circle cx="52" cy="335" r="3" fill="#4541A4"/>
<circle cx="10" cy="349" r="3" fill="#4541A4"/>
<circle cx="24" cy="349" r="3" fill="#4541A4"/>
<circle cx="38" cy="349" r="3" fill="#4541A4"/>
<circle cx="52" cy="349" r="3" fill="#4541A4"/>
<circle cx="10" cy="363" r="3" fill="#4541A4"/>
<circle cx="24" cy="363" r="3" fill="#4541A4"/>
<circle cx="38" cy="363" r="3" fill="#4541A4"/>
<circle cx="52" cy="363" r="3" fill="#4541A4"/>
<circle cx="10" cy="377" r="3" fill="#4541A4"/>
<circle cx="24" cy="377" r="3" fill="#4541A4"/>
<circle cx="38" cy="377" r="3" fill="#4541A4"/>
<circle cx="52" cy="377" r="3" fill="#4541A4"/>
<circle cx="66" cy="223" r="3" fill="#4541A4"/>
<circle cx="80" cy="223" r="3" fill="#4541A4"/>
<circle cx="94" cy="223" r="3" fill="#4541A4"/>
<circle cx="108" cy="223" r="3" fill="#4541A4"/>
<circle cx="122" cy="223" r="3" fill="#4541A4"/>
<circle cx="136" cy="223" r="3" fill="#4541A4"/>
<circle cx="150" cy="223" r="3" fill="#4541A4"/>
<circle cx="66" cy="237" r="3" fill="#4541A4"/>
<circle cx="80" cy="237" r="3" fill="#4541A4"/>
<circle cx="94" cy="237" r="3" fill="#4541A4"/>
<circle cx="108" cy="237" r="3" fill="#4541A4"/>
<circle cx="122" cy="237" r="3" fill="#4541A4"/>
<circle cx="136" cy="237" r="3" fill="#4541A4"/>
<circle cx="150" cy="237" r="3" fill="#4541A4"/>
<circle cx="66" cy="251" r="3" fill="#4541A4"/>
<circle cx="80" cy="251" r="3" fill="#4541A4"/>
<circle cx="94" cy="251" r="3" fill="#4541A4"/>
<circle cx="108" cy="251" r="3" fill="#4541A4"/>
<circle cx="122" cy="251" r="3" fill="#4541A4"/>
<circle cx="136" cy="251" r="3" fill="#4541A4"/>
<circle cx="150" cy="251" r="3" fill="#4541A4"/>
<circle cx="66" cy="265" r="3" fill="#4541A4"/>
<circle cx="80" cy="265" r="3" fill="#4541A4"/>
<circle cx="94" cy="265" r="3" fill="#4541A4"/>
<circle cx="108" cy="265" r="3" fill="#4541A4"/>
<circle cx="122" cy="265" r="3" fill="#4541A4"/>
<circle cx="136" cy="265" r="3" fill="#4541A4"/>
<circle cx="150" cy="265" r="3" fill="#4541A4"/>
<circle cx="66" cy="279" r="3" fill="#4541A4"/>
<circle cx="80" cy="279" r="3" fill="#4541A4"/>
<circle cx="94" cy="279" r="3" fill="#4541A4"/>
<circle cx="108" cy="279" r="3" fill="#4541A4"/>
<circle cx="122" cy="279" r="3" fill="#4541A4"/>
<circle cx="136" cy="279" r="3" fill="#4541A4"/>
<circle cx="150" cy="279" r="3" fill="#4541A4"/>
<circle cx="66" cy="293" r="3" fill="#4541A4"/>
<circle cx="80" cy="293" r="3" fill="#4541A4"/>
<circle cx="94" cy="293" r="3" fill="#4541A4"/>
<circle cx="108" cy="293" r="3" fill="#4541A4"/>
<circle cx="122" cy="293" r="3" fill="#4541A4"/>
<circle cx="136" cy="293" r="3" fill="#4541A4"/>
<circle cx="150" cy="293" r="3" fill="#4541A4"/>
<circle cx="66" cy="307" r="3" fill="#4541A4"/>
<circle cx="80" cy="307" r="3" fill="#4541A4"/>
<circle cx="94" cy="307" r="3" fill="#4541A4"/>
<circle cx="108" cy="307" r="3" fill="#4541A4"/>
<circle cx="122" cy="307" r="3" fill="#4541A4"/>
<circle cx="136" cy="307" r="3" fill="#4541A4"/>
<circle cx="150" cy="307" r="3" fill="#4541A4"/>
<circle cx="66" cy="321" r="3" fill="#4541A4"/>
<circle cx="80" cy="321" r="3" fill="#4541A4"/>
<circle cx="94" cy="321" r="3" fill="#4541A4"/>
<circle cx="108" cy="321" r="3" fill="#4541A4"/>
<circle cx="122" cy="321" r="3" fill="#4541A4"/>
<circle cx="136" cy="321" r="3" fill="#4541A4"/>
<circle cx="150" cy="321" r="3" fill="#4541A4"/>
<circle cx="66" cy="335" r="3" fill="#4541A4"/>
<circle cx="80" cy="335" r="3" fill="#4541A4"/>
<circle cx="94" cy="335" r="3" fill="#4541A4"/>
<circle cx="108" cy="335" r="3" fill="#4541A4"/>
<circle cx="122" cy="335" r="3" fill="#4541A4"/>
<circle cx="136" cy="335" r="3" fill="#4541A4"/>
<circle cx="150" cy="335" r="3" fill="#4541A4"/>
<circle cx="66" cy="349" r="3" fill="#4541A4"/>
<circle cx="80" cy="349" r="3" fill="#4541A4"/>
<circle cx="94" cy="349" r="3" fill="#4541A4"/>
<circle cx="108" cy="349" r="3" fill="#4541A4"/>
<circle cx="122" cy="349" r="3" fill="#4541A4"/>
<circle cx="136" cy="349" r="3" fill="#4541A4"/>
<circle cx="150" cy="349" r="3" fill="#4541A4"/>
<circle cx="66" cy="363" r="3" fill="#4541A4"/>
<circle cx="80" cy="363" r="3" fill="#4541A4"/>
<circle cx="94" cy="363" r="3" fill="#4541A4"/>
<circle cx="108" cy="363" r="3" fill="#4541A4"/>
<circle cx="122" cy="363" r="3" fill="#4541A4"/>
<circle cx="136" cy="363" r="3" fill="#4541A4"/>
<circle cx="150" cy="363" r="3" fill="#4541A4"/>
<circle cx="66" cy="377" r="3" fill="#4541A4"/>
<circle cx="80" cy="377" r="3" fill="#4541A4"/>
<circle cx="94" cy="377" r="3" fill="#4541A4"/>
<circle cx="108" cy="377" r="3" fill="#4541A4"/>
<circle cx="122" cy="377" r="3" fill="#4541A4"/>
<circle cx="136" cy="377" r="3" fill="#4541A4"/>
<circle cx="150" cy="377" r="3" fill="#4541A4"/>
</g>
<defs>
<linearGradient id="paint0_linear" x1="610" y1="0" x2="610" y2="420.31" gradientUnits="userSpaceOnUse">
<stop stop-color="#1C1B7E"/>
<stop offset="1" stop-color="#1E1079"/>
</linearGradient>
<linearGradient id="paint1_linear" x1="610" y1="0" x2="610" y2="420.31" gradientUnits="userSpaceOnUse">
<stop stop-color="#1C1B7E"/>
<stop offset="1" stop-color="#1E1079"/>
</linearGradient>
<linearGradient id="paint2_linear" x1="775.5" y1="-45" x2="775.5" y2="250" gradientUnits="userSpaceOnUse">
<stop stop-color="#282599"/>
<stop offset="1" stop-color="#261B86"/>
</linearGradient>
<linearGradient id="paint3_linear" x1="817.5" y1="66" x2="817.5" y2="329" gradientUnits="userSpaceOnUse">
<stop stop-color="#3936B4"/>
<stop offset="1" stop-color="#2B2092"/>
</linearGradient>
<linearGradient id="paint4_linear" x1="179.5" y1="-60" x2="179.5" y2="203" gradientUnits="userSpaceOnUse">
<stop stop-color="#282599"/>
<stop offset="1" stop-color="#261B86"/>
</linearGradient>
<linearGradient id="paint5_linear" x1="111.5" y1="14" x2="111.5" y2="277" gradientUnits="userSpaceOnUse">
<stop stop-color="#3936B4"/>
<stop offset="1" stop-color="#2B2092"/>
</linearGradient>
<linearGradient id="paint6_linear" x1="1117.5" y1="154" x2="1117.5" y2="449" gradientUnits="userSpaceOnUse">
<stop stop-color="#282599"/>
<stop offset="1" stop-color="#261B86"/>
</linearGradient>
</defs>
</svg>
