<svg width="1440" height="986" viewBox="0 0 1440 986" fill="none" xmlns="http://www.w3.org/2000/svg">
<mask id="mask0" mask-type="alpha" maskUnits="userSpaceOnUse" x="0" y="0" width="1440" height="986">
<rect width="1440" height="986" fill="#C4C4C4"/>
</mask>
<g mask="url(#mask0)">
<path d="M0 0H1440V986.5H0L0 0Z" fill="url(#paint0_linear)"/>
<rect x="-225" y="228" width="286" height="295" fill="url(#paint1_linear)"/>
<rect x="-25" y="168" width="285" height="295" fill="url(#paint2_linear)"/>
<path d="M875 -46H1440V508L994.5 382L875 -46Z" fill="url(#paint3_linear)"/>
<circle cx="918" cy="314" r="3" fill="#4541A4"/>
<circle cx="932" cy="314" r="3" fill="#4541A4"/>
<circle cx="946" cy="314" r="3" fill="#4541A4"/>
<circle cx="960" cy="314" r="3" fill="#4541A4"/>
<circle cx="974" cy="314" r="3" fill="#4541A4"/>
<circle cx="988" cy="314" r="3" fill="#4541A4"/>
<circle cx="1002" cy="314" r="3" fill="#4541A4"/>
<circle cx="918" cy="328" r="3" fill="#4541A4"/>
<circle cx="932" cy="328" r="3" fill="#4541A4"/>
<circle cx="946" cy="328" r="3" fill="#4541A4"/>
<circle cx="960" cy="328" r="3" fill="#4541A4"/>
<circle cx="974" cy="328" r="3" fill="#4541A4"/>
<circle cx="988" cy="328" r="3" fill="#4541A4"/>
<circle cx="1002" cy="328" r="3" fill="#4541A4"/>
<circle cx="918" cy="342" r="3" fill="#4541A4"/>
<circle cx="932" cy="342" r="3" fill="#4541A4"/>
<circle cx="946" cy="342" r="3" fill="#4541A4"/>
<circle cx="960" cy="342" r="3" fill="#4541A4"/>
<circle cx="974" cy="342" r="3" fill="#4541A4"/>
<circle cx="988" cy="342" r="3" fill="#4541A4"/>
<circle cx="1002" cy="342" r="3" fill="#4541A4"/>
<circle cx="918" cy="356" r="3" fill="#4541A4"/>
<circle cx="932" cy="356" r="3" fill="#4541A4"/>
<circle cx="946" cy="356" r="3" fill="#4541A4"/>
<circle cx="960" cy="356" r="3" fill="#4541A4"/>
<circle cx="974" cy="356" r="3" fill="#4541A4"/>
<circle cx="988" cy="356" r="3" fill="#4541A4"/>
<circle cx="1002" cy="356" r="3" fill="#4541A4"/>
<circle cx="918" cy="370" r="3" fill="#4541A4"/>
<circle cx="932" cy="370" r="3" fill="#4541A4"/>
<circle cx="946" cy="370" r="3" fill="#4541A4"/>
<circle cx="960" cy="370" r="3" fill="#4541A4"/>
<circle cx="974" cy="370" r="3" fill="#4541A4"/>
<circle cx="988" cy="370" r="3" fill="#4541A4"/>
<circle cx="1002" cy="370" r="3" fill="#4541A4"/>
<circle cx="918" cy="384" r="3" fill="#4541A4"/>
<circle cx="932" cy="384" r="3" fill="#4541A4"/>
<circle cx="946" cy="384" r="3" fill="#4541A4"/>
<circle cx="960" cy="384" r="3" fill="#4541A4"/>
<circle cx="974" cy="384" r="3" fill="#4541A4"/>
<circle cx="988" cy="384" r="3" fill="#4541A4"/>
<circle cx="1002" cy="384" r="3" fill="#4541A4"/>
<circle cx="918" cy="398" r="3" fill="#4541A4"/>
<circle cx="932" cy="398" r="3" fill="#4541A4"/>
<circle cx="946" cy="398" r="3" fill="#4541A4"/>
<circle cx="960" cy="398" r="3" fill="#4541A4"/>
<circle cx="974" cy="398" r="3" fill="#4541A4"/>
<circle cx="988" cy="398" r="3" fill="#4541A4"/>
<circle cx="1002" cy="398" r="3" fill="#4541A4"/>
<circle cx="918" cy="412" r="3" fill="#4541A4"/>
<circle cx="932" cy="412" r="3" fill="#4541A4"/>
<circle cx="946" cy="412" r="3" fill="#4541A4"/>
<circle cx="960" cy="412" r="3" fill="#4541A4"/>
<circle cx="974" cy="412" r="3" fill="#4541A4"/>
<circle cx="988" cy="412" r="3" fill="#4541A4"/>
<circle cx="1002" cy="412" r="3" fill="#4541A4"/>
<circle cx="918" cy="426" r="3" fill="#4541A4"/>
<circle cx="932" cy="426" r="3" fill="#4541A4"/>
<circle cx="946" cy="426" r="3" fill="#4541A4"/>
<circle cx="960" cy="426" r="3" fill="#4541A4"/>
<circle cx="974" cy="426" r="3" fill="#4541A4"/>
<circle cx="988" cy="426" r="3" fill="#4541A4"/>
<circle cx="1002" cy="426" r="3" fill="#4541A4"/>
<circle cx="918" cy="440" r="3" fill="#4541A4"/>
<circle cx="932" cy="440" r="3" fill="#4541A4"/>
<circle cx="946" cy="440" r="3" fill="#4541A4"/>
<circle cx="960" cy="440" r="3" fill="#4541A4"/>
<circle cx="974" cy="440" r="3" fill="#4541A4"/>
<circle cx="988" cy="440" r="3" fill="#4541A4"/>
<circle cx="1002" cy="440" r="3" fill="#4541A4"/>
<circle cx="918" cy="454" r="3" fill="#4541A4"/>
<circle cx="932" cy="454" r="3" fill="#4541A4"/>
<circle cx="946" cy="454" r="3" fill="#4541A4"/>
<circle cx="960" cy="454" r="3" fill="#4541A4"/>
<circle cx="974" cy="454" r="3" fill="#4541A4"/>
<circle cx="988" cy="454" r="3" fill="#4541A4"/>
<circle cx="1002" cy="454" r="3" fill="#4541A4"/>
<circle cx="918" cy="468" r="3" fill="#4541A4"/>
<circle cx="932" cy="468" r="3" fill="#4541A4"/>
<circle cx="946" cy="468" r="3" fill="#4541A4"/>
<circle cx="960" cy="468" r="3" fill="#4541A4"/>
<circle cx="974" cy="468" r="3" fill="#4541A4"/>
<circle cx="988" cy="468" r="3" fill="#4541A4"/>
<circle cx="1002" cy="468" r="3" fill="#4541A4"/>
<circle cx="1016" cy="314" r="3" fill="#4541A4"/>
<circle cx="1030" cy="314" r="3" fill="#4541A4"/>
<circle cx="1044" cy="314" r="3" fill="#4541A4"/>
<circle cx="1058" cy="314" r="3" fill="#4541A4"/>
<circle cx="1072" cy="314" r="3" fill="#4541A4"/>
<circle cx="1086" cy="314" r="3" fill="#4541A4"/>
<circle cx="1100" cy="314" r="3" fill="#4541A4"/>
<circle cx="1016" cy="328" r="3" fill="#4541A4"/>
<circle cx="1030" cy="328" r="3" fill="#4541A4"/>
<circle cx="1044" cy="328" r="3" fill="#4541A4"/>
<circle cx="1058" cy="328" r="3" fill="#4541A4"/>
<circle cx="1072" cy="328" r="3" fill="#4541A4"/>
<circle cx="1086" cy="328" r="3" fill="#4541A4"/>
<circle cx="1100" cy="328" r="3" fill="#4541A4"/>
<circle cx="1016" cy="342" r="3" fill="#4541A4"/>
<circle cx="1030" cy="342" r="3" fill="#4541A4"/>
<circle cx="1044" cy="342" r="3" fill="#4541A4"/>
<circle cx="1058" cy="342" r="3" fill="#4541A4"/>
<circle cx="1072" cy="342" r="3" fill="#4541A4"/>
<circle cx="1086" cy="342" r="3" fill="#4541A4"/>
<circle cx="1100" cy="342" r="3" fill="#4541A4"/>
<circle cx="1016" cy="356" r="3" fill="#4541A4"/>
<circle cx="1030" cy="356" r="3" fill="#4541A4"/>
<circle cx="1044" cy="356" r="3" fill="#4541A4"/>
<circle cx="1058" cy="356" r="3" fill="#4541A4"/>
<circle cx="1072" cy="356" r="3" fill="#4541A4"/>
<circle cx="1086" cy="356" r="3" fill="#4541A4"/>
<circle cx="1100" cy="356" r="3" fill="#4541A4"/>
<circle cx="1016" cy="370" r="3" fill="#4541A4"/>
<circle cx="1030" cy="370" r="3" fill="#4541A4"/>
<circle cx="1044" cy="370" r="3" fill="#4541A4"/>
<circle cx="1058" cy="370" r="3" fill="#4541A4"/>
<circle cx="1072" cy="370" r="3" fill="#4541A4"/>
<circle cx="1086" cy="370" r="3" fill="#4541A4"/>
<circle cx="1100" cy="370" r="3" fill="#4541A4"/>
<circle cx="1016" cy="384" r="3" fill="#4541A4"/>
<circle cx="1030" cy="384" r="3" fill="#4541A4"/>
<circle cx="1044" cy="384" r="3" fill="#4541A4"/>
<circle cx="1058" cy="384" r="3" fill="#4541A4"/>
<circle cx="1072" cy="384" r="3" fill="#4541A4"/>
<circle cx="1086" cy="384" r="3" fill="#4541A4"/>
<circle cx="1100" cy="384" r="3" fill="#4541A4"/>
<circle cx="1016" cy="398" r="3" fill="#4541A4"/>
<circle cx="1030" cy="398" r="3" fill="#4541A4"/>
<circle cx="1044" cy="398" r="3" fill="#4541A4"/>
<circle cx="1058" cy="398" r="3" fill="#4541A4"/>
<circle cx="1072" cy="398" r="3" fill="#4541A4"/>
<circle cx="1086" cy="398" r="3" fill="#4541A4"/>
<circle cx="1100" cy="398" r="3" fill="#4541A4"/>
<circle cx="1016" cy="412" r="3" fill="#4541A4"/>
<circle cx="1030" cy="412" r="3" fill="#4541A4"/>
<circle cx="1044" cy="412" r="3" fill="#4541A4"/>
<circle cx="1058" cy="412" r="3" fill="#4541A4"/>
<circle cx="1072" cy="412" r="3" fill="#4541A4"/>
<circle cx="1086" cy="412" r="3" fill="#4541A4"/>
<circle cx="1100" cy="412" r="3" fill="#4541A4"/>
<circle cx="1016" cy="426" r="3" fill="#4541A4"/>
<circle cx="1030" cy="426" r="3" fill="#4541A4"/>
<circle cx="1044" cy="426" r="3" fill="#4541A4"/>
<circle cx="1058" cy="426" r="3" fill="#4541A4"/>
<circle cx="1072" cy="426" r="3" fill="#4541A4"/>
<circle cx="1086" cy="426" r="3" fill="#4541A4"/>
<circle cx="1100" cy="426" r="3" fill="#4541A4"/>
<circle cx="1016" cy="440" r="3" fill="#4541A4"/>
<circle cx="1030" cy="440" r="3" fill="#4541A4"/>
<circle cx="1044" cy="440" r="3" fill="#4541A4"/>
<circle cx="1058" cy="440" r="3" fill="#4541A4"/>
<circle cx="1072" cy="440" r="3" fill="#4541A4"/>
<circle cx="1086" cy="440" r="3" fill="#4541A4"/>
<circle cx="1100" cy="440" r="3" fill="#4541A4"/>
<circle cx="1016" cy="454" r="3" fill="#4541A4"/>
<circle cx="1030" cy="454" r="3" fill="#4541A4"/>
<circle cx="1044" cy="454" r="3" fill="#4541A4"/>
<circle cx="1058" cy="454" r="3" fill="#4541A4"/>
<circle cx="1072" cy="454" r="3" fill="#4541A4"/>
<circle cx="1086" cy="454" r="3" fill="#4541A4"/>
<circle cx="1100" cy="454" r="3" fill="#4541A4"/>
<circle cx="1016" cy="468" r="3" fill="#4541A4"/>
<circle cx="1030" cy="468" r="3" fill="#4541A4"/>
<circle cx="1044" cy="468" r="3" fill="#4541A4"/>
<circle cx="1058" cy="468" r="3" fill="#4541A4"/>
<circle cx="1072" cy="468" r="3" fill="#4541A4"/>
<circle cx="1086" cy="468" r="3" fill="#4541A4"/>
<circle cx="1100" cy="468" r="3" fill="#4541A4"/>
<path d="M0 824H286L0 529V824Z" fill="url(#paint4_linear)"/>
<path d="M1440 168H1154L1440 463V168Z" fill="url(#paint5_linear)"/>
</g>
<defs>
<linearGradient id="paint0_linear" x1="720" y1="0" x2="720" y2="951" gradientUnits="userSpaceOnUse">
<stop stop-color="#1C1B7E"/>
<stop offset="1" stop-color="#1E1079"/>
</linearGradient>
<linearGradient id="paint1_linear" x1="-82" y1="228" x2="-82" y2="523" gradientUnits="userSpaceOnUse">
<stop stop-color="#5652CC"/>
<stop offset="1" stop-color="#32279B"/>
</linearGradient>
<linearGradient id="paint2_linear" x1="117.5" y1="168" x2="117.5" y2="463" gradientUnits="userSpaceOnUse">
<stop stop-color="#282599"/>
<stop offset="1" stop-color="#261B86"/>
</linearGradient>
<linearGradient id="paint3_linear" x1="1172" y1="-46" x2="1172" y2="508" gradientUnits="userSpaceOnUse">
<stop stop-color="#2D29A3"/>
<stop offset="1" stop-color="#261B86" stop-opacity="0"/>
</linearGradient>
<linearGradient id="paint4_linear" x1="143" y1="529" x2="143" y2="824" gradientUnits="userSpaceOnUse">
<stop stop-color="#282599"/>
<stop offset="1" stop-color="#261B86"/>
</linearGradient>
<linearGradient id="paint5_linear" x1="1297" y1="463" x2="1297" y2="168" gradientUnits="userSpaceOnUse">
<stop stop-color="#413EB4"/>
<stop offset="1" stop-color="#453BA4"/>
</linearGradient>
</defs>
</svg>
