<svg width="1440" height="812" viewBox="0 0 1440 812" fill="none" xmlns="http://www.w3.org/2000/svg">
<mask id="mask0" mask-type="alpha" maskUnits="userSpaceOnUse" x="0" y="0" width="1440" height="812">
<path d="M0 0H1440V812H0L0 0Z" fill="url(#paint0_linear)"/>
</mask>
<g mask="url(#mask0)">
<path d="M0 0H1440V812H0L0 0Z" fill="url(#paint1_linear)"/>
<rect x="-226" y="228" width="286" height="295" fill="url(#paint2_linear)"/>
<rect x="-26" y="168" width="285" height="295" fill="url(#paint3_linear)"/>
<path d="M875 0H1440V812L994.5 615.027L875 0Z" fill="url(#paint4_linear)"/>
<path d="M259 812H597L259 463V812Z" fill="url(#paint5_linear)"/>
<path d="M1440 294H1154L1440 589V294Z" fill="url(#paint6_linear)"/>
<path d="M1392 380H1106L1392 675V380Z" fill="url(#paint7_linear)"/>
<circle cx="700" cy="442" r="3" fill="#4541A4"/>
<circle cx="714" cy="442" r="3" fill="#4541A4"/>
<circle cx="728" cy="442" r="3" fill="#4541A4"/>
<circle cx="742" cy="442" r="3" fill="#4541A4"/>
<circle cx="756" cy="442" r="3" fill="#4541A4"/>
<circle cx="770" cy="442" r="3" fill="#4541A4"/>
<circle cx="784" cy="442" r="3" fill="#4541A4"/>
<circle cx="700" cy="456" r="3" fill="#4541A4"/>
<circle cx="714" cy="456" r="3" fill="#4541A4"/>
<circle cx="728" cy="456" r="3" fill="#4541A4"/>
<circle cx="742" cy="456" r="3" fill="#4541A4"/>
<circle cx="756" cy="456" r="3" fill="#4541A4"/>
<circle cx="770" cy="456" r="3" fill="#4541A4"/>
<circle cx="784" cy="456" r="3" fill="#4541A4"/>
<circle cx="700" cy="470" r="3" fill="#4541A4"/>
<circle cx="714" cy="470" r="3" fill="#4541A4"/>
<circle cx="728" cy="470" r="3" fill="#4541A4"/>
<circle cx="742" cy="470" r="3" fill="#4541A4"/>
<circle cx="756" cy="470" r="3" fill="#4541A4"/>
<circle cx="770" cy="470" r="3" fill="#4541A4"/>
<circle cx="784" cy="470" r="3" fill="#4541A4"/>
<circle cx="700" cy="484" r="3" fill="#4541A4"/>
<circle cx="714" cy="484" r="3" fill="#4541A4"/>
<circle cx="728" cy="484" r="3" fill="#4541A4"/>
<circle cx="742" cy="484" r="3" fill="#4541A4"/>
<circle cx="756" cy="484" r="3" fill="#4541A4"/>
<circle cx="770" cy="484" r="3" fill="#4541A4"/>
<circle cx="784" cy="484" r="3" fill="#4541A4"/>
<circle cx="700" cy="498" r="3" fill="#4541A4"/>
<circle cx="714" cy="498" r="3" fill="#4541A4"/>
<circle cx="728" cy="498" r="3" fill="#4541A4"/>
<circle cx="742" cy="498" r="3" fill="#4541A4"/>
<circle cx="756" cy="498" r="3" fill="#4541A4"/>
<circle cx="770" cy="498" r="3" fill="#4541A4"/>
<circle cx="784" cy="498" r="3" fill="#4541A4"/>
<circle cx="700" cy="512" r="3" fill="#4541A4"/>
<circle cx="714" cy="512" r="3" fill="#4541A4"/>
<circle cx="728" cy="512" r="3" fill="#4541A4"/>
<circle cx="742" cy="512" r="3" fill="#4541A4"/>
<circle cx="756" cy="512" r="3" fill="#4541A4"/>
<circle cx="770" cy="512" r="3" fill="#4541A4"/>
<circle cx="784" cy="512" r="3" fill="#4541A4"/>
<circle cx="700" cy="526" r="3" fill="#4541A4"/>
<circle cx="714" cy="526" r="3" fill="#4541A4"/>
<circle cx="728" cy="526" r="3" fill="#4541A4"/>
<circle cx="742" cy="526" r="3" fill="#4541A4"/>
<circle cx="756" cy="526" r="3" fill="#4541A4"/>
<circle cx="770" cy="526" r="3" fill="#4541A4"/>
<circle cx="784" cy="526" r="3" fill="#4541A4"/>
<circle cx="700" cy="540" r="3" fill="#4541A4"/>
<circle cx="714" cy="540" r="3" fill="#4541A4"/>
<circle cx="728" cy="540" r="3" fill="#4541A4"/>
<circle cx="742" cy="540" r="3" fill="#4541A4"/>
<circle cx="756" cy="540" r="3" fill="#4541A4"/>
<circle cx="770" cy="540" r="3" fill="#4541A4"/>
<circle cx="784" cy="540" r="3" fill="#4541A4"/>
<circle cx="700" cy="554" r="3" fill="#4541A4"/>
<circle cx="714" cy="554" r="3" fill="#4541A4"/>
<circle cx="728" cy="554" r="3" fill="#4541A4"/>
<circle cx="742" cy="554" r="3" fill="#4541A4"/>
<circle cx="756" cy="554" r="3" fill="#4541A4"/>
<circle cx="770" cy="554" r="3" fill="#4541A4"/>
<circle cx="784" cy="554" r="3" fill="#4541A4"/>
<circle cx="700" cy="568" r="3" fill="#4541A4"/>
<circle cx="714" cy="568" r="3" fill="#4541A4"/>
<circle cx="728" cy="568" r="3" fill="#4541A4"/>
<circle cx="742" cy="568" r="3" fill="#4541A4"/>
<circle cx="756" cy="568" r="3" fill="#4541A4"/>
<circle cx="770" cy="568" r="3" fill="#4541A4"/>
<circle cx="784" cy="568" r="3" fill="#4541A4"/>
<circle cx="700" cy="582" r="3" fill="#4541A4"/>
<circle cx="714" cy="582" r="3" fill="#4541A4"/>
<circle cx="728" cy="582" r="3" fill="#4541A4"/>
<circle cx="742" cy="582" r="3" fill="#4541A4"/>
<circle cx="756" cy="582" r="3" fill="#4541A4"/>
<circle cx="770" cy="582" r="3" fill="#4541A4"/>
<circle cx="784" cy="582" r="3" fill="#4541A4"/>
<circle cx="700" cy="596" r="3" fill="#4541A4"/>
<circle cx="714" cy="596" r="3" fill="#4541A4"/>
<circle cx="728" cy="596" r="3" fill="#4541A4"/>
<circle cx="742" cy="596" r="3" fill="#4541A4"/>
<circle cx="756" cy="596" r="3" fill="#4541A4"/>
<circle cx="770" cy="596" r="3" fill="#4541A4"/>
<circle cx="784" cy="596" r="3" fill="#4541A4"/>
<circle cx="798" cy="442" r="3" fill="#4541A4"/>
<circle cx="812" cy="442" r="3" fill="#4541A4"/>
<circle cx="826" cy="442" r="3" fill="#4541A4"/>
<circle cx="840" cy="442" r="3" fill="#4541A4"/>
<circle cx="854" cy="442" r="3" fill="#4541A4"/>
<circle cx="868" cy="442" r="3" fill="#4541A4"/>
<circle cx="882" cy="442" r="3" fill="#4541A4"/>
<circle cx="798" cy="456" r="3" fill="#4541A4"/>
<circle cx="812" cy="456" r="3" fill="#4541A4"/>
<circle cx="826" cy="456" r="3" fill="#4541A4"/>
<circle cx="840" cy="456" r="3" fill="#4541A4"/>
<circle cx="854" cy="456" r="3" fill="#4541A4"/>
<circle cx="868" cy="456" r="3" fill="#4541A4"/>
<circle cx="882" cy="456" r="3" fill="#4541A4"/>
<circle cx="798" cy="470" r="3" fill="#4541A4"/>
<circle cx="812" cy="470" r="3" fill="#4541A4"/>
<circle cx="826" cy="470" r="3" fill="#4541A4"/>
<circle cx="840" cy="470" r="3" fill="#4541A4"/>
<circle cx="854" cy="470" r="3" fill="#4541A4"/>
<circle cx="868" cy="470" r="3" fill="#4541A4"/>
<circle cx="882" cy="470" r="3" fill="#4541A4"/>
<circle cx="798" cy="484" r="3" fill="#4541A4"/>
<circle cx="812" cy="484" r="3" fill="#4541A4"/>
<circle cx="826" cy="484" r="3" fill="#4541A4"/>
<circle cx="840" cy="484" r="3" fill="#4541A4"/>
<circle cx="854" cy="484" r="3" fill="#4541A4"/>
<circle cx="868" cy="484" r="3" fill="#4541A4"/>
<circle cx="882" cy="484" r="3" fill="#4541A4"/>
<circle cx="798" cy="498" r="3" fill="#4541A4"/>
<circle cx="812" cy="498" r="3" fill="#4541A4"/>
<circle cx="826" cy="498" r="3" fill="#4541A4"/>
<circle cx="840" cy="498" r="3" fill="#4541A4"/>
<circle cx="854" cy="498" r="3" fill="#4541A4"/>
<circle cx="868" cy="498" r="3" fill="#4541A4"/>
<circle cx="882" cy="498" r="3" fill="#4541A4"/>
<circle cx="798" cy="512" r="3" fill="#4541A4"/>
<circle cx="812" cy="512" r="3" fill="#4541A4"/>
<circle cx="826" cy="512" r="3" fill="#4541A4"/>
<circle cx="840" cy="512" r="3" fill="#4541A4"/>
<circle cx="854" cy="512" r="3" fill="#4541A4"/>
<circle cx="868" cy="512" r="3" fill="#4541A4"/>
<circle cx="882" cy="512" r="3" fill="#4541A4"/>
<circle cx="798" cy="526" r="3" fill="#4541A4"/>
<circle cx="812" cy="526" r="3" fill="#4541A4"/>
<circle cx="826" cy="526" r="3" fill="#4541A4"/>
<circle cx="840" cy="526" r="3" fill="#4541A4"/>
<circle cx="854" cy="526" r="3" fill="#4541A4"/>
<circle cx="868" cy="526" r="3" fill="#4541A4"/>
<circle cx="882" cy="526" r="3" fill="#4541A4"/>
<circle cx="798" cy="540" r="3" fill="#4541A4"/>
<circle cx="812" cy="540" r="3" fill="#4541A4"/>
<circle cx="826" cy="540" r="3" fill="#4541A4"/>
<circle cx="840" cy="540" r="3" fill="#4541A4"/>
<circle cx="854" cy="540" r="3" fill="#4541A4"/>
<circle cx="868" cy="540" r="3" fill="#4541A4"/>
<circle cx="882" cy="540" r="3" fill="#4541A4"/>
<circle cx="798" cy="554" r="3" fill="#4541A4"/>
<circle cx="812" cy="554" r="3" fill="#4541A4"/>
<circle cx="826" cy="554" r="3" fill="#4541A4"/>
<circle cx="840" cy="554" r="3" fill="#4541A4"/>
<circle cx="854" cy="554" r="3" fill="#4541A4"/>
<circle cx="868" cy="554" r="3" fill="#4541A4"/>
<circle cx="882" cy="554" r="3" fill="#4541A4"/>
<circle cx="798" cy="568" r="3" fill="#4541A4"/>
<circle cx="812" cy="568" r="3" fill="#4541A4"/>
<circle cx="826" cy="568" r="3" fill="#4541A4"/>
<circle cx="840" cy="568" r="3" fill="#4541A4"/>
<circle cx="854" cy="568" r="3" fill="#4541A4"/>
<circle cx="868" cy="568" r="3" fill="#4541A4"/>
<circle cx="882" cy="568" r="3" fill="#4541A4"/>
<circle cx="798" cy="582" r="3" fill="#4541A4"/>
<circle cx="812" cy="582" r="3" fill="#4541A4"/>
<circle cx="826" cy="582" r="3" fill="#4541A4"/>
<circle cx="840" cy="582" r="3" fill="#4541A4"/>
<circle cx="854" cy="582" r="3" fill="#4541A4"/>
<circle cx="868" cy="582" r="3" fill="#4541A4"/>
<circle cx="882" cy="582" r="3" fill="#4541A4"/>
<circle cx="798" cy="596" r="3" fill="#4541A4"/>
<circle cx="812" cy="596" r="3" fill="#4541A4"/>
<circle cx="826" cy="596" r="3" fill="#4541A4"/>
<circle cx="840" cy="596" r="3" fill="#4541A4"/>
<circle cx="854" cy="596" r="3" fill="#4541A4"/>
<circle cx="868" cy="596" r="3" fill="#4541A4"/>
<circle cx="882" cy="596" r="3" fill="#4541A4"/>
<circle cx="88" cy="103" r="3" fill="#BDA6FF"/>
<circle cx="102" cy="103" r="3" fill="#BDA6FF"/>
<circle cx="116" cy="103" r="3" fill="#BDA6FF"/>
<circle cx="88" cy="117" r="3" fill="#BDA6FF"/>
<circle cx="102" cy="117" r="3" fill="#BDA6FF"/>
<circle cx="116" cy="117" r="3" fill="#BDA6FF"/>
<circle cx="130" cy="117" r="3" fill="#BDA6FF"/>
<circle cx="144" cy="117" r="3" fill="#BDA6FF"/>
<circle cx="88" cy="131" r="3" fill="#BDA6FF"/>
<circle cx="102" cy="131" r="3" fill="#BDA6FF"/>
<circle cx="116" cy="131" r="3" fill="#BDA6FF"/>
<circle cx="130" cy="131" r="3" fill="#BDA6FF"/>
<circle cx="144" cy="131" r="3" fill="#BDA6FF"/>
<circle cx="158" cy="131" r="3" fill="#BDA6FF"/>
<circle cx="172" cy="131" r="3" fill="#BDA6FF"/>
</g>
<defs>
<linearGradient id="paint0_linear" x1="720" y1="0" x2="720" y2="846.724" gradientUnits="userSpaceOnUse">
<stop stop-color="#1C1B7E"/>
<stop offset="1" stop-color="#1E1079"/>
</linearGradient>
<linearGradient id="paint1_linear" x1="720" y1="0" x2="720" y2="846.724" gradientUnits="userSpaceOnUse">
<stop stop-color="#1C1B7E"/>
<stop offset="1" stop-color="#1E1079"/>
</linearGradient>
<linearGradient id="paint2_linear" x1="-83" y1="228" x2="-83" y2="523" gradientUnits="userSpaceOnUse">
<stop stop-color="#5652CC"/>
<stop offset="1" stop-color="#32279B"/>
</linearGradient>
<linearGradient id="paint3_linear" x1="116.5" y1="168" x2="116.5" y2="463" gradientUnits="userSpaceOnUse">
<stop stop-color="#282599"/>
<stop offset="1" stop-color="#261B86"/>
</linearGradient>
<linearGradient id="paint4_linear" x1="1172" y1="-54.055" x2="1172" y2="812" gradientUnits="userSpaceOnUse">
<stop stop-color="#2D29A3"/>
<stop offset="1" stop-color="#261B86" stop-opacity="0"/>
</linearGradient>
<linearGradient id="paint5_linear" x1="428" y1="463" x2="428" y2="812" gradientUnits="userSpaceOnUse">
<stop stop-color="#282599"/>
<stop offset="1" stop-color="#261B86"/>
</linearGradient>
<linearGradient id="paint6_linear" x1="1297" y1="589" x2="1297" y2="294" gradientUnits="userSpaceOnUse">
<stop stop-color="#413EB4"/>
<stop offset="1" stop-color="#453BA4"/>
</linearGradient>
<linearGradient id="paint7_linear" x1="1249" y1="675" x2="1249" y2="380" gradientUnits="userSpaceOnUse">
<stop stop-color="#282599"/>
<stop offset="1" stop-color="#261B86"/>
</linearGradient>
</defs>
</svg>
