<svg width="1440" height="1033" viewBox="0 0 1440 1033" fill="none" xmlns="http://www.w3.org/2000/svg">
<mask id="mask0" mask-type="alpha" maskUnits="userSpaceOnUse" x="0" y="0" width="1440" height="1033">
<path d="M0 0H1440V1033H0L0 0Z" fill="url(#paint0_linear)"/>
</mask>
<g mask="url(#mask0)">
<path d="M0 0H1440V1033H0L0 0Z" fill="url(#paint1_linear)"/>
<rect x="-226" y="228" width="286" height="295" fill="url(#paint2_linear)"/>
<rect x="-26" y="168" width="285" height="295" fill="url(#paint3_linear)"/>
<path d="M875 -46H1440V691L994.5 523.379L875 -46Z" fill="url(#paint4_linear)"/>
<path d="M259 758H545L259 463V758Z" fill="url(#paint5_linear)"/>
<path d="M1440 168H1154L1440 463V168Z" fill="url(#paint6_linear)"/>
<path d="M1392 254H1106L1392 549V254Z" fill="url(#paint7_linear)"/>
<circle cx="1133" cy="552" r="3" fill="#4541A4"/>
<circle cx="1147" cy="552" r="3" fill="#4541A4"/>
<circle cx="1161" cy="552" r="3" fill="#4541A4"/>
<circle cx="1175" cy="552" r="3" fill="#4541A4"/>
<circle cx="1189" cy="552" r="3" fill="#4541A4"/>
<circle cx="1203" cy="552" r="3" fill="#4541A4"/>
<circle cx="1217" cy="552" r="3" fill="#4541A4"/>
<circle cx="1133" cy="566" r="3" fill="#4541A4"/>
<circle cx="1147" cy="566" r="3" fill="#4541A4"/>
<circle cx="1161" cy="566" r="3" fill="#4541A4"/>
<circle cx="1175" cy="566" r="3" fill="#4541A4"/>
<circle cx="1189" cy="566" r="3" fill="#4541A4"/>
<circle cx="1203" cy="566" r="3" fill="#4541A4"/>
<circle cx="1217" cy="566" r="3" fill="#4541A4"/>
<circle cx="1133" cy="580" r="3" fill="#4541A4"/>
<circle cx="1147" cy="580" r="3" fill="#4541A4"/>
<circle cx="1161" cy="580" r="3" fill="#4541A4"/>
<circle cx="1175" cy="580" r="3" fill="#4541A4"/>
<circle cx="1189" cy="580" r="3" fill="#4541A4"/>
<circle cx="1203" cy="580" r="3" fill="#4541A4"/>
<circle cx="1217" cy="580" r="3" fill="#4541A4"/>
<circle cx="1133" cy="594" r="3" fill="#4541A4"/>
<circle cx="1147" cy="594" r="3" fill="#4541A4"/>
<circle cx="1161" cy="594" r="3" fill="#4541A4"/>
<circle cx="1175" cy="594" r="3" fill="#4541A4"/>
<circle cx="1189" cy="594" r="3" fill="#4541A4"/>
<circle cx="1203" cy="594" r="3" fill="#4541A4"/>
<circle cx="1217" cy="594" r="3" fill="#4541A4"/>
<circle cx="1133" cy="608" r="3" fill="#4541A4"/>
<circle cx="1147" cy="608" r="3" fill="#4541A4"/>
<circle cx="1161" cy="608" r="3" fill="#4541A4"/>
<circle cx="1175" cy="608" r="3" fill="#4541A4"/>
<circle cx="1189" cy="608" r="3" fill="#4541A4"/>
<circle cx="1203" cy="608" r="3" fill="#4541A4"/>
<circle cx="1217" cy="608" r="3" fill="#4541A4"/>
<circle cx="1133" cy="622" r="3" fill="#4541A4"/>
<circle cx="1147" cy="622" r="3" fill="#4541A4"/>
<circle cx="1161" cy="622" r="3" fill="#4541A4"/>
<circle cx="1175" cy="622" r="3" fill="#4541A4"/>
<circle cx="1189" cy="622" r="3" fill="#4541A4"/>
<circle cx="1203" cy="622" r="3" fill="#4541A4"/>
<circle cx="1217" cy="622" r="3" fill="#4541A4"/>
<circle cx="1133" cy="636" r="3" fill="#4541A4"/>
<circle cx="1147" cy="636" r="3" fill="#4541A4"/>
<circle cx="1161" cy="636" r="3" fill="#4541A4"/>
<circle cx="1175" cy="636" r="3" fill="#4541A4"/>
<circle cx="1189" cy="636" r="3" fill="#4541A4"/>
<circle cx="1203" cy="636" r="3" fill="#4541A4"/>
<circle cx="1217" cy="636" r="3" fill="#4541A4"/>
<circle cx="1133" cy="650" r="3" fill="#4541A4"/>
<circle cx="1147" cy="650" r="3" fill="#4541A4"/>
<circle cx="1161" cy="650" r="3" fill="#4541A4"/>
<circle cx="1175" cy="650" r="3" fill="#4541A4"/>
<circle cx="1189" cy="650" r="3" fill="#4541A4"/>
<circle cx="1203" cy="650" r="3" fill="#4541A4"/>
<circle cx="1217" cy="650" r="3" fill="#4541A4"/>
<circle cx="1133" cy="664" r="3" fill="#4541A4"/>
<circle cx="1147" cy="664" r="3" fill="#4541A4"/>
<circle cx="1161" cy="664" r="3" fill="#4541A4"/>
<circle cx="1175" cy="664" r="3" fill="#4541A4"/>
<circle cx="1189" cy="664" r="3" fill="#4541A4"/>
<circle cx="1203" cy="664" r="3" fill="#4541A4"/>
<circle cx="1217" cy="664" r="3" fill="#4541A4"/>
<circle cx="1133" cy="678" r="3" fill="#4541A4"/>
<circle cx="1147" cy="678" r="3" fill="#4541A4"/>
<circle cx="1161" cy="678" r="3" fill="#4541A4"/>
<circle cx="1175" cy="678" r="3" fill="#4541A4"/>
<circle cx="1189" cy="678" r="3" fill="#4541A4"/>
<circle cx="1203" cy="678" r="3" fill="#4541A4"/>
<circle cx="1217" cy="678" r="3" fill="#4541A4"/>
<circle cx="1133" cy="692" r="3" fill="#4541A4"/>
<circle cx="1147" cy="692" r="3" fill="#4541A4"/>
<circle cx="1161" cy="692" r="3" fill="#4541A4"/>
<circle cx="1175" cy="692" r="3" fill="#4541A4"/>
<circle cx="1189" cy="692" r="3" fill="#4541A4"/>
<circle cx="1203" cy="692" r="3" fill="#4541A4"/>
<circle cx="1217" cy="692" r="3" fill="#4541A4"/>
<circle cx="1133" cy="706" r="3" fill="#4541A4"/>
<circle cx="1147" cy="706" r="3" fill="#4541A4"/>
<circle cx="1161" cy="706" r="3" fill="#4541A4"/>
<circle cx="1175" cy="706" r="3" fill="#4541A4"/>
<circle cx="1189" cy="706" r="3" fill="#4541A4"/>
<circle cx="1203" cy="706" r="3" fill="#4541A4"/>
<circle cx="1217" cy="706" r="3" fill="#4541A4"/>
<circle cx="1231" cy="552" r="3" fill="#4541A4"/>
<circle cx="1245" cy="552" r="3" fill="#4541A4"/>
<circle cx="1259" cy="552" r="3" fill="#4541A4"/>
<circle cx="1273" cy="552" r="3" fill="#4541A4"/>
<circle cx="1287" cy="552" r="3" fill="#4541A4"/>
<circle cx="1301" cy="552" r="3" fill="#4541A4"/>
<circle cx="1315" cy="552" r="3" fill="#4541A4"/>
<circle cx="1231" cy="566" r="3" fill="#4541A4"/>
<circle cx="1245" cy="566" r="3" fill="#4541A4"/>
<circle cx="1259" cy="566" r="3" fill="#4541A4"/>
<circle cx="1273" cy="566" r="3" fill="#4541A4"/>
<circle cx="1287" cy="566" r="3" fill="#4541A4"/>
<circle cx="1301" cy="566" r="3" fill="#4541A4"/>
<circle cx="1315" cy="566" r="3" fill="#4541A4"/>
<circle cx="1231" cy="580" r="3" fill="#4541A4"/>
<circle cx="1245" cy="580" r="3" fill="#4541A4"/>
<circle cx="1259" cy="580" r="3" fill="#4541A4"/>
<circle cx="1273" cy="580" r="3" fill="#4541A4"/>
<circle cx="1287" cy="580" r="3" fill="#4541A4"/>
<circle cx="1301" cy="580" r="3" fill="#4541A4"/>
<circle cx="1315" cy="580" r="3" fill="#4541A4"/>
<circle cx="1231" cy="594" r="3" fill="#4541A4"/>
<circle cx="1245" cy="594" r="3" fill="#4541A4"/>
<circle cx="1259" cy="594" r="3" fill="#4541A4"/>
<circle cx="1273" cy="594" r="3" fill="#4541A4"/>
<circle cx="1287" cy="594" r="3" fill="#4541A4"/>
<circle cx="1301" cy="594" r="3" fill="#4541A4"/>
<circle cx="1315" cy="594" r="3" fill="#4541A4"/>
<circle cx="1231" cy="608" r="3" fill="#4541A4"/>
<circle cx="1245" cy="608" r="3" fill="#4541A4"/>
<circle cx="1259" cy="608" r="3" fill="#4541A4"/>
<circle cx="1273" cy="608" r="3" fill="#4541A4"/>
<circle cx="1287" cy="608" r="3" fill="#4541A4"/>
<circle cx="1301" cy="608" r="3" fill="#4541A4"/>
<circle cx="1315" cy="608" r="3" fill="#4541A4"/>
<circle cx="1231" cy="622" r="3" fill="#4541A4"/>
<circle cx="1245" cy="622" r="3" fill="#4541A4"/>
<circle cx="1259" cy="622" r="3" fill="#4541A4"/>
<circle cx="1273" cy="622" r="3" fill="#4541A4"/>
<circle cx="1287" cy="622" r="3" fill="#4541A4"/>
<circle cx="1301" cy="622" r="3" fill="#4541A4"/>
<circle cx="1315" cy="622" r="3" fill="#4541A4"/>
<circle cx="1231" cy="636" r="3" fill="#4541A4"/>
<circle cx="1245" cy="636" r="3" fill="#4541A4"/>
<circle cx="1259" cy="636" r="3" fill="#4541A4"/>
<circle cx="1273" cy="636" r="3" fill="#4541A4"/>
<circle cx="1287" cy="636" r="3" fill="#4541A4"/>
<circle cx="1301" cy="636" r="3" fill="#4541A4"/>
<circle cx="1315" cy="636" r="3" fill="#4541A4"/>
<circle cx="1231" cy="650" r="3" fill="#4541A4"/>
<circle cx="1245" cy="650" r="3" fill="#4541A4"/>
<circle cx="1259" cy="650" r="3" fill="#4541A4"/>
<circle cx="1273" cy="650" r="3" fill="#4541A4"/>
<circle cx="1287" cy="650" r="3" fill="#4541A4"/>
<circle cx="1301" cy="650" r="3" fill="#4541A4"/>
<circle cx="1315" cy="650" r="3" fill="#4541A4"/>
<circle cx="1231" cy="664" r="3" fill="#4541A4"/>
<circle cx="1245" cy="664" r="3" fill="#4541A4"/>
<circle cx="1259" cy="664" r="3" fill="#4541A4"/>
<circle cx="1273" cy="664" r="3" fill="#4541A4"/>
<circle cx="1287" cy="664" r="3" fill="#4541A4"/>
<circle cx="1301" cy="664" r="3" fill="#4541A4"/>
<circle cx="1315" cy="664" r="3" fill="#4541A4"/>
<circle cx="1231" cy="678" r="3" fill="#4541A4"/>
<circle cx="1245" cy="678" r="3" fill="#4541A4"/>
<circle cx="1259" cy="678" r="3" fill="#4541A4"/>
<circle cx="1273" cy="678" r="3" fill="#4541A4"/>
<circle cx="1287" cy="678" r="3" fill="#4541A4"/>
<circle cx="1301" cy="678" r="3" fill="#4541A4"/>
<circle cx="1315" cy="678" r="3" fill="#4541A4"/>
<circle cx="1231" cy="692" r="3" fill="#4541A4"/>
<circle cx="1245" cy="692" r="3" fill="#4541A4"/>
<circle cx="1259" cy="692" r="3" fill="#4541A4"/>
<circle cx="1273" cy="692" r="3" fill="#4541A4"/>
<circle cx="1287" cy="692" r="3" fill="#4541A4"/>
<circle cx="1301" cy="692" r="3" fill="#4541A4"/>
<circle cx="1315" cy="692" r="3" fill="#4541A4"/>
<circle cx="1231" cy="706" r="3" fill="#4541A4"/>
<circle cx="1245" cy="706" r="3" fill="#4541A4"/>
<circle cx="1259" cy="706" r="3" fill="#4541A4"/>
<circle cx="1273" cy="706" r="3" fill="#4541A4"/>
<circle cx="1287" cy="706" r="3" fill="#4541A4"/>
<circle cx="1301" cy="706" r="3" fill="#4541A4"/>
<circle cx="1315" cy="706" r="3" fill="#4541A4"/>
<circle cx="232" cy="238" r="3" fill="#BDA6FF"/>
<circle cx="246" cy="238" r="3" fill="#BDA6FF"/>
<circle cx="260" cy="238" r="3" fill="#BDA6FF"/>
<circle cx="232" cy="252" r="3" fill="#BDA6FF"/>
<circle cx="246" cy="252" r="3" fill="#BDA6FF"/>
<circle cx="260" cy="252" r="3" fill="#BDA6FF"/>
<circle cx="274" cy="252" r="3" fill="#BDA6FF"/>
<circle cx="288" cy="252" r="3" fill="#BDA6FF"/>
<circle cx="232" cy="266" r="3" fill="#BDA6FF"/>
<circle cx="246" cy="266" r="3" fill="#BDA6FF"/>
<circle cx="260" cy="266" r="3" fill="#BDA6FF"/>
<circle cx="274" cy="266" r="3" fill="#BDA6FF"/>
<circle cx="288" cy="266" r="3" fill="#BDA6FF"/>
<circle cx="302" cy="266" r="3" fill="#BDA6FF"/>
<circle cx="316" cy="266" r="3" fill="#BDA6FF"/>
</g>
<defs>
<linearGradient id="paint0_linear" x1="720" y1="0" x2="720" y2="1077.17" gradientUnits="userSpaceOnUse">
<stop stop-color="#1C1B7E"/>
<stop offset="1" stop-color="#1E1079"/>
</linearGradient>
<linearGradient id="paint1_linear" x1="720" y1="0" x2="720" y2="1077.17" gradientUnits="userSpaceOnUse">
<stop stop-color="#1C1B7E"/>
<stop offset="1" stop-color="#1E1079"/>
</linearGradient>
<linearGradient id="paint2_linear" x1="-83" y1="228" x2="-83" y2="523" gradientUnits="userSpaceOnUse">
<stop stop-color="#5652CC"/>
<stop offset="1" stop-color="#32279B"/>
</linearGradient>
<linearGradient id="paint3_linear" x1="116.5" y1="168" x2="116.5" y2="463" gradientUnits="userSpaceOnUse">
<stop stop-color="#282599"/>
<stop offset="1" stop-color="#261B86"/>
</linearGradient>
<linearGradient id="paint4_linear" x1="1172" y1="-46" x2="1172" y2="691" gradientUnits="userSpaceOnUse">
<stop stop-color="#2D29A3"/>
<stop offset="1" stop-color="#261B86" stop-opacity="0"/>
</linearGradient>
<linearGradient id="paint5_linear" x1="402" y1="463" x2="402" y2="758" gradientUnits="userSpaceOnUse">
<stop stop-color="#282599"/>
<stop offset="1" stop-color="#261B86"/>
</linearGradient>
<linearGradient id="paint6_linear" x1="1297" y1="463" x2="1297" y2="168" gradientUnits="userSpaceOnUse">
<stop stop-color="#413EB4"/>
<stop offset="1" stop-color="#453BA4"/>
</linearGradient>
<linearGradient id="paint7_linear" x1="1249" y1="549" x2="1249" y2="254" gradientUnits="userSpaceOnUse">
<stop stop-color="#282599"/>
<stop offset="1" stop-color="#261B86"/>
</linearGradient>
</defs>
</svg>
