<svg width="1440" height="760" viewBox="0 0 1440 760" fill="none" xmlns="http://www.w3.org/2000/svg">
<path d="M0 0H1440V760H0L0 0Z" fill="url(#paint0_linear)"/>
<mask id="mask0" mask-type="alpha" maskUnits="userSpaceOnUse" x="0" y="0" width="1440" height="760">
<path d="M0 0H1440V760H0L0 0Z" fill="url(#paint1_linear)"/>
</mask>
<g mask="url(#mask0)">
<rect x="-78" y="246" width="221" height="229" fill="url(#paint2_linear)"/>
<rect x="43" y="144" width="220" height="229" fill="url(#paint3_linear)"/>
<path d="M886 0H1451V554L1005.5 428L886 0Z" fill="url(#paint4_linear)"/>
<circle cx="1014" cy="484" r="3" fill="#4541A4"/>
<circle cx="1028" cy="484" r="3" fill="#4541A4"/>
<circle cx="1042" cy="484" r="3" fill="#4541A4"/>
<circle cx="1056" cy="484" r="3" fill="#4541A4"/>
<circle cx="1070" cy="484" r="3" fill="#4541A4"/>
<circle cx="1084" cy="484" r="3" fill="#4541A4"/>
<circle cx="1098" cy="484" r="3" fill="#4541A4"/>
<circle cx="1014" cy="498" r="3" fill="#4541A4"/>
<circle cx="1028" cy="498" r="3" fill="#4541A4"/>
<circle cx="1042" cy="498" r="3" fill="#4541A4"/>
<circle cx="1056" cy="498" r="3" fill="#4541A4"/>
<circle cx="1070" cy="498" r="3" fill="#4541A4"/>
<circle cx="1084" cy="498" r="3" fill="#4541A4"/>
<circle cx="1098" cy="498" r="3" fill="#4541A4"/>
<circle cx="1014" cy="512" r="3" fill="#4541A4"/>
<circle cx="1028" cy="512" r="3" fill="#4541A4"/>
<circle cx="1042" cy="512" r="3" fill="#4541A4"/>
<circle cx="1056" cy="512" r="3" fill="#4541A4"/>
<circle cx="1070" cy="512" r="3" fill="#4541A4"/>
<circle cx="1084" cy="512" r="3" fill="#4541A4"/>
<circle cx="1098" cy="512" r="3" fill="#4541A4"/>
<circle cx="1014" cy="526" r="3" fill="#4541A4"/>
<circle cx="1028" cy="526" r="3" fill="#4541A4"/>
<circle cx="1042" cy="526" r="3" fill="#4541A4"/>
<circle cx="1056" cy="526" r="3" fill="#4541A4"/>
<circle cx="1070" cy="526" r="3" fill="#4541A4"/>
<circle cx="1084" cy="526" r="3" fill="#4541A4"/>
<circle cx="1098" cy="526" r="3" fill="#4541A4"/>
<circle cx="1014" cy="540" r="3" fill="#4541A4"/>
<circle cx="1028" cy="540" r="3" fill="#4541A4"/>
<circle cx="1042" cy="540" r="3" fill="#4541A4"/>
<circle cx="1056" cy="540" r="3" fill="#4541A4"/>
<circle cx="1070" cy="540" r="3" fill="#4541A4"/>
<circle cx="1084" cy="540" r="3" fill="#4541A4"/>
<circle cx="1098" cy="540" r="3" fill="#4541A4"/>
<circle cx="1014" cy="554" r="3" fill="#4541A4"/>
<circle cx="1028" cy="554" r="3" fill="#4541A4"/>
<circle cx="1042" cy="554" r="3" fill="#4541A4"/>
<circle cx="1056" cy="554" r="3" fill="#4541A4"/>
<circle cx="1070" cy="554" r="3" fill="#4541A4"/>
<circle cx="1084" cy="554" r="3" fill="#4541A4"/>
<circle cx="1098" cy="554" r="3" fill="#4541A4"/>
<circle cx="1014" cy="568" r="3" fill="#4541A4"/>
<circle cx="1028" cy="568" r="3" fill="#4541A4"/>
<circle cx="1042" cy="568" r="3" fill="#4541A4"/>
<circle cx="1056" cy="568" r="3" fill="#4541A4"/>
<circle cx="1070" cy="568" r="3" fill="#4541A4"/>
<circle cx="1084" cy="568" r="3" fill="#4541A4"/>
<circle cx="1098" cy="568" r="3" fill="#4541A4"/>
<circle cx="1014" cy="582" r="3" fill="#4541A4"/>
<circle cx="1028" cy="582" r="3" fill="#4541A4"/>
<circle cx="1042" cy="582" r="3" fill="#4541A4"/>
<circle cx="1056" cy="582" r="3" fill="#4541A4"/>
<circle cx="1070" cy="582" r="3" fill="#4541A4"/>
<circle cx="1084" cy="582" r="3" fill="#4541A4"/>
<circle cx="1098" cy="582" r="3" fill="#4541A4"/>
<circle cx="1014" cy="596" r="3" fill="#4541A4"/>
<circle cx="1028" cy="596" r="3" fill="#4541A4"/>
<circle cx="1042" cy="596" r="3" fill="#4541A4"/>
<circle cx="1056" cy="596" r="3" fill="#4541A4"/>
<circle cx="1070" cy="596" r="3" fill="#4541A4"/>
<circle cx="1084" cy="596" r="3" fill="#4541A4"/>
<circle cx="1098" cy="596" r="3" fill="#4541A4"/>
<circle cx="1014" cy="610" r="3" fill="#4541A4"/>
<circle cx="1028" cy="610" r="3" fill="#4541A4"/>
<circle cx="1042" cy="610" r="3" fill="#4541A4"/>
<circle cx="1056" cy="610" r="3" fill="#4541A4"/>
<circle cx="1070" cy="610" r="3" fill="#4541A4"/>
<circle cx="1084" cy="610" r="3" fill="#4541A4"/>
<circle cx="1098" cy="610" r="3" fill="#4541A4"/>
<circle cx="1014" cy="624" r="3" fill="#4541A4"/>
<circle cx="1028" cy="624" r="3" fill="#4541A4"/>
<circle cx="1042" cy="624" r="3" fill="#4541A4"/>
<circle cx="1056" cy="624" r="3" fill="#4541A4"/>
<circle cx="1070" cy="624" r="3" fill="#4541A4"/>
<circle cx="1084" cy="624" r="3" fill="#4541A4"/>
<circle cx="1098" cy="624" r="3" fill="#4541A4"/>
<circle cx="1014" cy="638" r="3" fill="#4541A4"/>
<circle cx="1028" cy="638" r="3" fill="#4541A4"/>
<circle cx="1042" cy="638" r="3" fill="#4541A4"/>
<circle cx="1056" cy="638" r="3" fill="#4541A4"/>
<circle cx="1070" cy="638" r="3" fill="#4541A4"/>
<circle cx="1084" cy="638" r="3" fill="#4541A4"/>
<circle cx="1098" cy="638" r="3" fill="#4541A4"/>
<circle cx="1112" cy="484" r="3" fill="#4541A4"/>
<circle cx="1126" cy="484" r="3" fill="#4541A4"/>
<circle cx="1140" cy="484" r="3" fill="#4541A4"/>
<circle cx="1154" cy="484" r="3" fill="#4541A4"/>
<circle cx="1168" cy="484" r="3" fill="#4541A4"/>
<circle cx="1182" cy="484" r="3" fill="#4541A4"/>
<circle cx="1196" cy="484" r="3" fill="#4541A4"/>
<circle cx="1112" cy="498" r="3" fill="#4541A4"/>
<circle cx="1126" cy="498" r="3" fill="#4541A4"/>
<circle cx="1140" cy="498" r="3" fill="#4541A4"/>
<circle cx="1154" cy="498" r="3" fill="#4541A4"/>
<circle cx="1168" cy="498" r="3" fill="#4541A4"/>
<circle cx="1182" cy="498" r="3" fill="#4541A4"/>
<circle cx="1196" cy="498" r="3" fill="#4541A4"/>
<circle cx="1112" cy="512" r="3" fill="#4541A4"/>
<circle cx="1126" cy="512" r="3" fill="#4541A4"/>
<circle cx="1140" cy="512" r="3" fill="#4541A4"/>
<circle cx="1154" cy="512" r="3" fill="#4541A4"/>
<circle cx="1168" cy="512" r="3" fill="#4541A4"/>
<circle cx="1182" cy="512" r="3" fill="#4541A4"/>
<circle cx="1196" cy="512" r="3" fill="#4541A4"/>
<circle cx="1112" cy="526" r="3" fill="#4541A4"/>
<circle cx="1126" cy="526" r="3" fill="#4541A4"/>
<circle cx="1140" cy="526" r="3" fill="#4541A4"/>
<circle cx="1154" cy="526" r="3" fill="#4541A4"/>
<circle cx="1168" cy="526" r="3" fill="#4541A4"/>
<circle cx="1182" cy="526" r="3" fill="#4541A4"/>
<circle cx="1196" cy="526" r="3" fill="#4541A4"/>
<circle cx="1112" cy="540" r="3" fill="#4541A4"/>
<circle cx="1126" cy="540" r="3" fill="#4541A4"/>
<circle cx="1140" cy="540" r="3" fill="#4541A4"/>
<circle cx="1154" cy="540" r="3" fill="#4541A4"/>
<circle cx="1168" cy="540" r="3" fill="#4541A4"/>
<circle cx="1182" cy="540" r="3" fill="#4541A4"/>
<circle cx="1196" cy="540" r="3" fill="#4541A4"/>
<circle cx="1112" cy="554" r="3" fill="#4541A4"/>
<circle cx="1126" cy="554" r="3" fill="#4541A4"/>
<circle cx="1140" cy="554" r="3" fill="#4541A4"/>
<circle cx="1154" cy="554" r="3" fill="#4541A4"/>
<circle cx="1168" cy="554" r="3" fill="#4541A4"/>
<circle cx="1182" cy="554" r="3" fill="#4541A4"/>
<circle cx="1196" cy="554" r="3" fill="#4541A4"/>
<circle cx="1112" cy="568" r="3" fill="#4541A4"/>
<circle cx="1126" cy="568" r="3" fill="#4541A4"/>
<circle cx="1140" cy="568" r="3" fill="#4541A4"/>
<circle cx="1154" cy="568" r="3" fill="#4541A4"/>
<circle cx="1168" cy="568" r="3" fill="#4541A4"/>
<circle cx="1182" cy="568" r="3" fill="#4541A4"/>
<circle cx="1196" cy="568" r="3" fill="#4541A4"/>
<circle cx="1112" cy="582" r="3" fill="#4541A4"/>
<circle cx="1126" cy="582" r="3" fill="#4541A4"/>
<circle cx="1140" cy="582" r="3" fill="#4541A4"/>
<circle cx="1154" cy="582" r="3" fill="#4541A4"/>
<circle cx="1168" cy="582" r="3" fill="#4541A4"/>
<circle cx="1182" cy="582" r="3" fill="#4541A4"/>
<circle cx="1196" cy="582" r="3" fill="#4541A4"/>
<circle cx="1112" cy="596" r="3" fill="#4541A4"/>
<circle cx="1126" cy="596" r="3" fill="#4541A4"/>
<circle cx="1140" cy="596" r="3" fill="#4541A4"/>
<circle cx="1154" cy="596" r="3" fill="#4541A4"/>
<circle cx="1168" cy="596" r="3" fill="#4541A4"/>
<circle cx="1182" cy="596" r="3" fill="#4541A4"/>
<circle cx="1196" cy="596" r="3" fill="#4541A4"/>
<circle cx="1112" cy="610" r="3" fill="#4541A4"/>
<circle cx="1126" cy="610" r="3" fill="#4541A4"/>
<circle cx="1140" cy="610" r="3" fill="#4541A4"/>
<circle cx="1154" cy="610" r="3" fill="#4541A4"/>
<circle cx="1168" cy="610" r="3" fill="#4541A4"/>
<circle cx="1182" cy="610" r="3" fill="#4541A4"/>
<circle cx="1196" cy="610" r="3" fill="#4541A4"/>
<circle cx="1112" cy="624" r="3" fill="#4541A4"/>
<circle cx="1126" cy="624" r="3" fill="#4541A4"/>
<circle cx="1140" cy="624" r="3" fill="#4541A4"/>
<circle cx="1154" cy="624" r="3" fill="#4541A4"/>
<circle cx="1168" cy="624" r="3" fill="#4541A4"/>
<circle cx="1182" cy="624" r="3" fill="#4541A4"/>
<circle cx="1196" cy="624" r="3" fill="#4541A4"/>
<circle cx="1112" cy="638" r="3" fill="#4541A4"/>
<circle cx="1126" cy="638" r="3" fill="#4541A4"/>
<circle cx="1140" cy="638" r="3" fill="#4541A4"/>
<circle cx="1154" cy="638" r="3" fill="#4541A4"/>
<circle cx="1168" cy="638" r="3" fill="#4541A4"/>
<circle cx="1182" cy="638" r="3" fill="#4541A4"/>
<circle cx="1196" cy="638" r="3" fill="#4541A4"/>
<path d="M-33 810H253L-33 515V810Z" fill="url(#paint5_linear)"/>
<path d="M1511 265H1225L1511 560V265Z" fill="url(#paint6_linear)"/>
</g>
<defs>
<linearGradient id="paint0_linear" x1="720" y1="0" x2="720" y2="792.5" gradientUnits="userSpaceOnUse">
<stop stop-color="#1C1B7E"/>
<stop offset="1" stop-color="#1E1079"/>
</linearGradient>
<linearGradient id="paint1_linear" x1="720" y1="0" x2="720" y2="792.5" gradientUnits="userSpaceOnUse">
<stop stop-color="#1C1B7E"/>
<stop offset="1" stop-color="#1E1079"/>
</linearGradient>
<linearGradient id="paint2_linear" x1="32.5" y1="246" x2="32.5" y2="475" gradientUnits="userSpaceOnUse">
<stop stop-color="#5652CC"/>
<stop offset="1" stop-color="#32279B"/>
</linearGradient>
<linearGradient id="paint3_linear" x1="153" y1="144" x2="153" y2="373" gradientUnits="userSpaceOnUse">
<stop stop-color="#282599"/>
<stop offset="1" stop-color="#261B86"/>
</linearGradient>
<linearGradient id="paint4_linear" x1="1183" y1="0" x2="1183" y2="554" gradientUnits="userSpaceOnUse">
<stop stop-color="#2D29A3"/>
<stop offset="1" stop-color="#261B86" stop-opacity="0"/>
</linearGradient>
<linearGradient id="paint5_linear" x1="110" y1="515" x2="110" y2="810" gradientUnits="userSpaceOnUse">
<stop stop-color="#282599"/>
<stop offset="1" stop-color="#261B86"/>
</linearGradient>
<linearGradient id="paint6_linear" x1="1368" y1="560" x2="1368" y2="265" gradientUnits="userSpaceOnUse">
<stop stop-color="#413EB4"/>
<stop offset="1" stop-color="#453BA4"/>
</linearGradient>
</defs>
</svg>
