<svg width="1440" height="1062" viewBox="0 0 1440 1062" fill="none" xmlns="http://www.w3.org/2000/svg">
<path d="M0 0H1440V1062H0L0 0Z" fill="url(#paint0_linear)"/>
<mask id="mask0" mask-type="alpha" maskUnits="userSpaceOnUse" x="0" y="0" width="1440" height="1062">
<path d="M0 0H1440V1062H0L0 0Z" fill="url(#paint1_linear)"/>
</mask>
<g mask="url(#mask0)">
<rect x="-37" y="268" width="221" height="229" fill="url(#paint2_linear)"/>
<rect x="84" y="166" width="220" height="229" fill="url(#paint3_linear)"/>
<path d="M890 1H1455V555L1009.5 429L890 1Z" fill="url(#paint4_linear)"/>
<circle cx="1207" cy="580" r="3" fill="#4541A4"/>
<circle cx="1221" cy="580" r="3" fill="#4541A4"/>
<circle cx="1235" cy="580" r="3" fill="#4541A4"/>
<circle cx="1249" cy="580" r="3" fill="#4541A4"/>
<circle cx="1263" cy="580" r="3" fill="#4541A4"/>
<circle cx="1277" cy="580" r="3" fill="#4541A4"/>
<circle cx="1291" cy="580" r="3" fill="#4541A4"/>
<circle cx="1207" cy="594" r="3" fill="#4541A4"/>
<circle cx="1221" cy="594" r="3" fill="#4541A4"/>
<circle cx="1235" cy="594" r="3" fill="#4541A4"/>
<circle cx="1249" cy="594" r="3" fill="#4541A4"/>
<circle cx="1263" cy="594" r="3" fill="#4541A4"/>
<circle cx="1277" cy="594" r="3" fill="#4541A4"/>
<circle cx="1291" cy="594" r="3" fill="#4541A4"/>
<circle cx="1207" cy="608" r="3" fill="#4541A4"/>
<circle cx="1221" cy="608" r="3" fill="#4541A4"/>
<circle cx="1235" cy="608" r="3" fill="#4541A4"/>
<circle cx="1249" cy="608" r="3" fill="#4541A4"/>
<circle cx="1263" cy="608" r="3" fill="#4541A4"/>
<circle cx="1277" cy="608" r="3" fill="#4541A4"/>
<circle cx="1291" cy="608" r="3" fill="#4541A4"/>
<circle cx="1207" cy="622" r="3" fill="#4541A4"/>
<circle cx="1221" cy="622" r="3" fill="#4541A4"/>
<circle cx="1235" cy="622" r="3" fill="#4541A4"/>
<circle cx="1249" cy="622" r="3" fill="#4541A4"/>
<circle cx="1263" cy="622" r="3" fill="#4541A4"/>
<circle cx="1277" cy="622" r="3" fill="#4541A4"/>
<circle cx="1291" cy="622" r="3" fill="#4541A4"/>
<circle cx="1207" cy="636" r="3" fill="#4541A4"/>
<circle cx="1221" cy="636" r="3" fill="#4541A4"/>
<circle cx="1235" cy="636" r="3" fill="#4541A4"/>
<circle cx="1249" cy="636" r="3" fill="#4541A4"/>
<circle cx="1263" cy="636" r="3" fill="#4541A4"/>
<circle cx="1277" cy="636" r="3" fill="#4541A4"/>
<circle cx="1291" cy="636" r="3" fill="#4541A4"/>
<circle cx="1207" cy="650" r="3" fill="#4541A4"/>
<circle cx="1221" cy="650" r="3" fill="#4541A4"/>
<circle cx="1235" cy="650" r="3" fill="#4541A4"/>
<circle cx="1249" cy="650" r="3" fill="#4541A4"/>
<circle cx="1263" cy="650" r="3" fill="#4541A4"/>
<circle cx="1277" cy="650" r="3" fill="#4541A4"/>
<circle cx="1291" cy="650" r="3" fill="#4541A4"/>
<circle cx="1207" cy="664" r="3" fill="#4541A4"/>
<circle cx="1221" cy="664" r="3" fill="#4541A4"/>
<circle cx="1235" cy="664" r="3" fill="#4541A4"/>
<circle cx="1249" cy="664" r="3" fill="#4541A4"/>
<circle cx="1263" cy="664" r="3" fill="#4541A4"/>
<circle cx="1277" cy="664" r="3" fill="#4541A4"/>
<circle cx="1291" cy="664" r="3" fill="#4541A4"/>
<circle cx="1207" cy="678" r="3" fill="#4541A4"/>
<circle cx="1221" cy="678" r="3" fill="#4541A4"/>
<circle cx="1235" cy="678" r="3" fill="#4541A4"/>
<circle cx="1249" cy="678" r="3" fill="#4541A4"/>
<circle cx="1263" cy="678" r="3" fill="#4541A4"/>
<circle cx="1277" cy="678" r="3" fill="#4541A4"/>
<circle cx="1291" cy="678" r="3" fill="#4541A4"/>
<circle cx="1207" cy="692" r="3" fill="#4541A4"/>
<circle cx="1221" cy="692" r="3" fill="#4541A4"/>
<circle cx="1235" cy="692" r="3" fill="#4541A4"/>
<circle cx="1249" cy="692" r="3" fill="#4541A4"/>
<circle cx="1263" cy="692" r="3" fill="#4541A4"/>
<circle cx="1277" cy="692" r="3" fill="#4541A4"/>
<circle cx="1291" cy="692" r="3" fill="#4541A4"/>
<circle cx="1207" cy="706" r="3" fill="#4541A4"/>
<circle cx="1221" cy="706" r="3" fill="#4541A4"/>
<circle cx="1235" cy="706" r="3" fill="#4541A4"/>
<circle cx="1249" cy="706" r="3" fill="#4541A4"/>
<circle cx="1263" cy="706" r="3" fill="#4541A4"/>
<circle cx="1277" cy="706" r="3" fill="#4541A4"/>
<circle cx="1291" cy="706" r="3" fill="#4541A4"/>
<circle cx="1207" cy="720" r="3" fill="#4541A4"/>
<circle cx="1221" cy="720" r="3" fill="#4541A4"/>
<circle cx="1235" cy="720" r="3" fill="#4541A4"/>
<circle cx="1249" cy="720" r="3" fill="#4541A4"/>
<circle cx="1263" cy="720" r="3" fill="#4541A4"/>
<circle cx="1277" cy="720" r="3" fill="#4541A4"/>
<circle cx="1291" cy="720" r="3" fill="#4541A4"/>
<circle cx="1207" cy="734" r="3" fill="#4541A4"/>
<circle cx="1221" cy="734" r="3" fill="#4541A4"/>
<circle cx="1235" cy="734" r="3" fill="#4541A4"/>
<circle cx="1249" cy="734" r="3" fill="#4541A4"/>
<circle cx="1263" cy="734" r="3" fill="#4541A4"/>
<circle cx="1277" cy="734" r="3" fill="#4541A4"/>
<circle cx="1291" cy="734" r="3" fill="#4541A4"/>
<circle cx="1305" cy="580" r="3" fill="#4541A4"/>
<circle cx="1319" cy="580" r="3" fill="#4541A4"/>
<circle cx="1333" cy="580" r="3" fill="#4541A4"/>
<circle cx="1347" cy="580" r="3" fill="#4541A4"/>
<circle cx="1361" cy="580" r="3" fill="#4541A4"/>
<circle cx="1375" cy="580" r="3" fill="#4541A4"/>
<circle cx="1389" cy="580" r="3" fill="#4541A4"/>
<circle cx="1305" cy="594" r="3" fill="#4541A4"/>
<circle cx="1319" cy="594" r="3" fill="#4541A4"/>
<circle cx="1333" cy="594" r="3" fill="#4541A4"/>
<circle cx="1347" cy="594" r="3" fill="#4541A4"/>
<circle cx="1361" cy="594" r="3" fill="#4541A4"/>
<circle cx="1375" cy="594" r="3" fill="#4541A4"/>
<circle cx="1389" cy="594" r="3" fill="#4541A4"/>
<circle cx="1305" cy="608" r="3" fill="#4541A4"/>
<circle cx="1319" cy="608" r="3" fill="#4541A4"/>
<circle cx="1333" cy="608" r="3" fill="#4541A4"/>
<circle cx="1347" cy="608" r="3" fill="#4541A4"/>
<circle cx="1361" cy="608" r="3" fill="#4541A4"/>
<circle cx="1375" cy="608" r="3" fill="#4541A4"/>
<circle cx="1389" cy="608" r="3" fill="#4541A4"/>
<circle cx="1305" cy="622" r="3" fill="#4541A4"/>
<circle cx="1319" cy="622" r="3" fill="#4541A4"/>
<circle cx="1333" cy="622" r="3" fill="#4541A4"/>
<circle cx="1347" cy="622" r="3" fill="#4541A4"/>
<circle cx="1361" cy="622" r="3" fill="#4541A4"/>
<circle cx="1375" cy="622" r="3" fill="#4541A4"/>
<circle cx="1389" cy="622" r="3" fill="#4541A4"/>
<circle cx="1305" cy="636" r="3" fill="#4541A4"/>
<circle cx="1319" cy="636" r="3" fill="#4541A4"/>
<circle cx="1333" cy="636" r="3" fill="#4541A4"/>
<circle cx="1347" cy="636" r="3" fill="#4541A4"/>
<circle cx="1361" cy="636" r="3" fill="#4541A4"/>
<circle cx="1375" cy="636" r="3" fill="#4541A4"/>
<circle cx="1389" cy="636" r="3" fill="#4541A4"/>
<circle cx="1305" cy="650" r="3" fill="#4541A4"/>
<circle cx="1319" cy="650" r="3" fill="#4541A4"/>
<circle cx="1333" cy="650" r="3" fill="#4541A4"/>
<circle cx="1347" cy="650" r="3" fill="#4541A4"/>
<circle cx="1361" cy="650" r="3" fill="#4541A4"/>
<circle cx="1375" cy="650" r="3" fill="#4541A4"/>
<circle cx="1389" cy="650" r="3" fill="#4541A4"/>
<circle cx="1305" cy="664" r="3" fill="#4541A4"/>
<circle cx="1319" cy="664" r="3" fill="#4541A4"/>
<circle cx="1333" cy="664" r="3" fill="#4541A4"/>
<circle cx="1347" cy="664" r="3" fill="#4541A4"/>
<circle cx="1361" cy="664" r="3" fill="#4541A4"/>
<circle cx="1375" cy="664" r="3" fill="#4541A4"/>
<circle cx="1389" cy="664" r="3" fill="#4541A4"/>
<circle cx="1305" cy="678" r="3" fill="#4541A4"/>
<circle cx="1319" cy="678" r="3" fill="#4541A4"/>
<circle cx="1333" cy="678" r="3" fill="#4541A4"/>
<circle cx="1347" cy="678" r="3" fill="#4541A4"/>
<circle cx="1361" cy="678" r="3" fill="#4541A4"/>
<circle cx="1375" cy="678" r="3" fill="#4541A4"/>
<circle cx="1389" cy="678" r="3" fill="#4541A4"/>
<circle cx="1305" cy="692" r="3" fill="#4541A4"/>
<circle cx="1319" cy="692" r="3" fill="#4541A4"/>
<circle cx="1333" cy="692" r="3" fill="#4541A4"/>
<circle cx="1347" cy="692" r="3" fill="#4541A4"/>
<circle cx="1361" cy="692" r="3" fill="#4541A4"/>
<circle cx="1375" cy="692" r="3" fill="#4541A4"/>
<circle cx="1389" cy="692" r="3" fill="#4541A4"/>
<circle cx="1305" cy="706" r="3" fill="#4541A4"/>
<circle cx="1319" cy="706" r="3" fill="#4541A4"/>
<circle cx="1333" cy="706" r="3" fill="#4541A4"/>
<circle cx="1347" cy="706" r="3" fill="#4541A4"/>
<circle cx="1361" cy="706" r="3" fill="#4541A4"/>
<circle cx="1375" cy="706" r="3" fill="#4541A4"/>
<circle cx="1389" cy="706" r="3" fill="#4541A4"/>
<circle cx="1305" cy="720" r="3" fill="#4541A4"/>
<circle cx="1319" cy="720" r="3" fill="#4541A4"/>
<circle cx="1333" cy="720" r="3" fill="#4541A4"/>
<circle cx="1347" cy="720" r="3" fill="#4541A4"/>
<circle cx="1361" cy="720" r="3" fill="#4541A4"/>
<circle cx="1375" cy="720" r="3" fill="#4541A4"/>
<circle cx="1389" cy="720" r="3" fill="#4541A4"/>
<circle cx="1305" cy="734" r="3" fill="#4541A4"/>
<circle cx="1319" cy="734" r="3" fill="#4541A4"/>
<circle cx="1333" cy="734" r="3" fill="#4541A4"/>
<circle cx="1347" cy="734" r="3" fill="#4541A4"/>
<circle cx="1361" cy="734" r="3" fill="#4541A4"/>
<circle cx="1375" cy="734" r="3" fill="#4541A4"/>
<circle cx="1389" cy="734" r="3" fill="#4541A4"/>
<path d="M-14 889H272L-14 594V889Z" fill="url(#paint5_linear)"/>
<path d="M1515 266H1229L1515 561V266Z" fill="url(#paint6_linear)"/>
</g>
<defs>
<linearGradient id="paint0_linear" x1="720" y1="0" x2="720" y2="1107.41" gradientUnits="userSpaceOnUse">
<stop stop-color="#1C1B7E"/>
<stop offset="1" stop-color="#1E1079"/>
</linearGradient>
<linearGradient id="paint1_linear" x1="720" y1="0" x2="720" y2="1107.41" gradientUnits="userSpaceOnUse">
<stop stop-color="#1C1B7E"/>
<stop offset="1" stop-color="#1E1079"/>
</linearGradient>
<linearGradient id="paint2_linear" x1="73.5" y1="268" x2="73.5" y2="497" gradientUnits="userSpaceOnUse">
<stop stop-color="#5652CC"/>
<stop offset="1" stop-color="#32279B"/>
</linearGradient>
<linearGradient id="paint3_linear" x1="194" y1="166" x2="194" y2="395" gradientUnits="userSpaceOnUse">
<stop stop-color="#282599"/>
<stop offset="1" stop-color="#261B86"/>
</linearGradient>
<linearGradient id="paint4_linear" x1="1187" y1="1" x2="1187" y2="555" gradientUnits="userSpaceOnUse">
<stop stop-color="#2D29A3"/>
<stop offset="1" stop-color="#261B86" stop-opacity="0"/>
</linearGradient>
<linearGradient id="paint5_linear" x1="129" y1="594" x2="129" y2="889" gradientUnits="userSpaceOnUse">
<stop stop-color="#282599"/>
<stop offset="1" stop-color="#261B86"/>
</linearGradient>
<linearGradient id="paint6_linear" x1="1372" y1="561" x2="1372" y2="266" gradientUnits="userSpaceOnUse">
<stop stop-color="#413EB4"/>
<stop offset="1" stop-color="#453BA4"/>
</linearGradient>
</defs>
</svg>
