<svg width="1440" height="892" viewBox="0 0 1440 892" fill="none" xmlns="http://www.w3.org/2000/svg">
<path d="M0 0H1440V892H0L0 0Z" fill="url(#paint0_linear)"/>
<mask id="mask0" mask-type="alpha" maskUnits="userSpaceOnUse" x="0" y="0" width="1440" height="892">
<path d="M0 0H1440V892H0L0 0Z" fill="url(#paint1_linear)"/>
</mask>
<g mask="url(#mask0)">
<rect x="-171" y="204" width="221" height="229" fill="url(#paint2_linear)"/>
<rect x="-75" y="102" width="220" height="229" fill="url(#paint3_linear)"/>
<path d="M909 0H1474V554L1028.5 428L909 0Z" fill="url(#paint4_linear)"/>
<circle cx="701" cy="340" r="3" fill="#4541A4"/>
<circle cx="715" cy="340" r="3" fill="#4541A4"/>
<circle cx="729" cy="340" r="3" fill="#4541A4"/>
<circle cx="743" cy="340" r="3" fill="#4541A4"/>
<circle cx="757" cy="340" r="3" fill="#4541A4"/>
<circle cx="771" cy="340" r="3" fill="#4541A4"/>
<circle cx="785" cy="340" r="3" fill="#4541A4"/>
<circle cx="701" cy="354" r="3" fill="#4541A4"/>
<circle cx="715" cy="354" r="3" fill="#4541A4"/>
<circle cx="729" cy="354" r="3" fill="#4541A4"/>
<circle cx="743" cy="354" r="3" fill="#4541A4"/>
<circle cx="757" cy="354" r="3" fill="#4541A4"/>
<circle cx="771" cy="354" r="3" fill="#4541A4"/>
<circle cx="785" cy="354" r="3" fill="#4541A4"/>
<circle cx="701" cy="368" r="3" fill="#4541A4"/>
<circle cx="715" cy="368" r="3" fill="#4541A4"/>
<circle cx="729" cy="368" r="3" fill="#4541A4"/>
<circle cx="743" cy="368" r="3" fill="#4541A4"/>
<circle cx="757" cy="368" r="3" fill="#4541A4"/>
<circle cx="771" cy="368" r="3" fill="#4541A4"/>
<circle cx="785" cy="368" r="3" fill="#4541A4"/>
<circle cx="701" cy="382" r="3" fill="#4541A4"/>
<circle cx="715" cy="382" r="3" fill="#4541A4"/>
<circle cx="729" cy="382" r="3" fill="#4541A4"/>
<circle cx="743" cy="382" r="3" fill="#4541A4"/>
<circle cx="757" cy="382" r="3" fill="#4541A4"/>
<circle cx="771" cy="382" r="3" fill="#4541A4"/>
<circle cx="785" cy="382" r="3" fill="#4541A4"/>
<circle cx="701" cy="396" r="3" fill="#4541A4"/>
<circle cx="715" cy="396" r="3" fill="#4541A4"/>
<circle cx="729" cy="396" r="3" fill="#4541A4"/>
<circle cx="743" cy="396" r="3" fill="#4541A4"/>
<circle cx="757" cy="396" r="3" fill="#4541A4"/>
<circle cx="771" cy="396" r="3" fill="#4541A4"/>
<circle cx="785" cy="396" r="3" fill="#4541A4"/>
<circle cx="701" cy="410" r="3" fill="#4541A4"/>
<circle cx="715" cy="410" r="3" fill="#4541A4"/>
<circle cx="729" cy="410" r="3" fill="#4541A4"/>
<circle cx="743" cy="410" r="3" fill="#4541A4"/>
<circle cx="757" cy="410" r="3" fill="#4541A4"/>
<circle cx="771" cy="410" r="3" fill="#4541A4"/>
<circle cx="785" cy="410" r="3" fill="#4541A4"/>
<circle cx="701" cy="424" r="3" fill="#4541A4"/>
<circle cx="715" cy="424" r="3" fill="#4541A4"/>
<circle cx="729" cy="424" r="3" fill="#4541A4"/>
<circle cx="743" cy="424" r="3" fill="#4541A4"/>
<circle cx="757" cy="424" r="3" fill="#4541A4"/>
<circle cx="771" cy="424" r="3" fill="#4541A4"/>
<circle cx="785" cy="424" r="3" fill="#4541A4"/>
<circle cx="701" cy="438" r="3" fill="#4541A4"/>
<circle cx="715" cy="438" r="3" fill="#4541A4"/>
<circle cx="729" cy="438" r="3" fill="#4541A4"/>
<circle cx="743" cy="438" r="3" fill="#4541A4"/>
<circle cx="757" cy="438" r="3" fill="#4541A4"/>
<circle cx="771" cy="438" r="3" fill="#4541A4"/>
<circle cx="785" cy="438" r="3" fill="#4541A4"/>
<circle cx="701" cy="452" r="3" fill="#4541A4"/>
<circle cx="715" cy="452" r="3" fill="#4541A4"/>
<circle cx="729" cy="452" r="3" fill="#4541A4"/>
<circle cx="743" cy="452" r="3" fill="#4541A4"/>
<circle cx="757" cy="452" r="3" fill="#4541A4"/>
<circle cx="771" cy="452" r="3" fill="#4541A4"/>
<circle cx="785" cy="452" r="3" fill="#4541A4"/>
<circle cx="701" cy="466" r="3" fill="#4541A4"/>
<circle cx="715" cy="466" r="3" fill="#4541A4"/>
<circle cx="729" cy="466" r="3" fill="#4541A4"/>
<circle cx="743" cy="466" r="3" fill="#4541A4"/>
<circle cx="757" cy="466" r="3" fill="#4541A4"/>
<circle cx="771" cy="466" r="3" fill="#4541A4"/>
<circle cx="785" cy="466" r="3" fill="#4541A4"/>
<circle cx="701" cy="480" r="3" fill="#4541A4"/>
<circle cx="715" cy="480" r="3" fill="#4541A4"/>
<circle cx="729" cy="480" r="3" fill="#4541A4"/>
<circle cx="743" cy="480" r="3" fill="#4541A4"/>
<circle cx="757" cy="480" r="3" fill="#4541A4"/>
<circle cx="771" cy="480" r="3" fill="#4541A4"/>
<circle cx="785" cy="480" r="3" fill="#4541A4"/>
<circle cx="701" cy="494" r="3" fill="#4541A4"/>
<circle cx="715" cy="494" r="3" fill="#4541A4"/>
<circle cx="729" cy="494" r="3" fill="#4541A4"/>
<circle cx="743" cy="494" r="3" fill="#4541A4"/>
<circle cx="757" cy="494" r="3" fill="#4541A4"/>
<circle cx="771" cy="494" r="3" fill="#4541A4"/>
<circle cx="785" cy="494" r="3" fill="#4541A4"/>
<circle cx="799" cy="340" r="3" fill="#4541A4"/>
<circle cx="813" cy="340" r="3" fill="#4541A4"/>
<circle cx="827" cy="340" r="3" fill="#4541A4"/>
<circle cx="841" cy="340" r="3" fill="#4541A4"/>
<circle cx="855" cy="340" r="3" fill="#4541A4"/>
<circle cx="869" cy="340" r="3" fill="#4541A4"/>
<circle cx="883" cy="340" r="3" fill="#4541A4"/>
<circle cx="799" cy="354" r="3" fill="#4541A4"/>
<circle cx="813" cy="354" r="3" fill="#4541A4"/>
<circle cx="827" cy="354" r="3" fill="#4541A4"/>
<circle cx="841" cy="354" r="3" fill="#4541A4"/>
<circle cx="855" cy="354" r="3" fill="#4541A4"/>
<circle cx="869" cy="354" r="3" fill="#4541A4"/>
<circle cx="883" cy="354" r="3" fill="#4541A4"/>
<circle cx="799" cy="368" r="3" fill="#4541A4"/>
<circle cx="813" cy="368" r="3" fill="#4541A4"/>
<circle cx="827" cy="368" r="3" fill="#4541A4"/>
<circle cx="841" cy="368" r="3" fill="#4541A4"/>
<circle cx="855" cy="368" r="3" fill="#4541A4"/>
<circle cx="869" cy="368" r="3" fill="#4541A4"/>
<circle cx="883" cy="368" r="3" fill="#4541A4"/>
<circle cx="799" cy="382" r="3" fill="#4541A4"/>
<circle cx="813" cy="382" r="3" fill="#4541A4"/>
<circle cx="827" cy="382" r="3" fill="#4541A4"/>
<circle cx="841" cy="382" r="3" fill="#4541A4"/>
<circle cx="855" cy="382" r="3" fill="#4541A4"/>
<circle cx="869" cy="382" r="3" fill="#4541A4"/>
<circle cx="883" cy="382" r="3" fill="#4541A4"/>
<circle cx="799" cy="396" r="3" fill="#4541A4"/>
<circle cx="813" cy="396" r="3" fill="#4541A4"/>
<circle cx="827" cy="396" r="3" fill="#4541A4"/>
<circle cx="841" cy="396" r="3" fill="#4541A4"/>
<circle cx="855" cy="396" r="3" fill="#4541A4"/>
<circle cx="869" cy="396" r="3" fill="#4541A4"/>
<circle cx="883" cy="396" r="3" fill="#4541A4"/>
<circle cx="799" cy="410" r="3" fill="#4541A4"/>
<circle cx="813" cy="410" r="3" fill="#4541A4"/>
<circle cx="827" cy="410" r="3" fill="#4541A4"/>
<circle cx="841" cy="410" r="3" fill="#4541A4"/>
<circle cx="855" cy="410" r="3" fill="#4541A4"/>
<circle cx="869" cy="410" r="3" fill="#4541A4"/>
<circle cx="883" cy="410" r="3" fill="#4541A4"/>
<circle cx="799" cy="424" r="3" fill="#4541A4"/>
<circle cx="813" cy="424" r="3" fill="#4541A4"/>
<circle cx="827" cy="424" r="3" fill="#4541A4"/>
<circle cx="841" cy="424" r="3" fill="#4541A4"/>
<circle cx="855" cy="424" r="3" fill="#4541A4"/>
<circle cx="869" cy="424" r="3" fill="#4541A4"/>
<circle cx="883" cy="424" r="3" fill="#4541A4"/>
<circle cx="799" cy="438" r="3" fill="#4541A4"/>
<circle cx="813" cy="438" r="3" fill="#4541A4"/>
<circle cx="827" cy="438" r="3" fill="#4541A4"/>
<circle cx="841" cy="438" r="3" fill="#4541A4"/>
<circle cx="855" cy="438" r="3" fill="#4541A4"/>
<circle cx="869" cy="438" r="3" fill="#4541A4"/>
<circle cx="883" cy="438" r="3" fill="#4541A4"/>
<circle cx="799" cy="452" r="3" fill="#4541A4"/>
<circle cx="813" cy="452" r="3" fill="#4541A4"/>
<circle cx="827" cy="452" r="3" fill="#4541A4"/>
<circle cx="841" cy="452" r="3" fill="#4541A4"/>
<circle cx="855" cy="452" r="3" fill="#4541A4"/>
<circle cx="869" cy="452" r="3" fill="#4541A4"/>
<circle cx="883" cy="452" r="3" fill="#4541A4"/>
<circle cx="799" cy="466" r="3" fill="#4541A4"/>
<circle cx="813" cy="466" r="3" fill="#4541A4"/>
<circle cx="827" cy="466" r="3" fill="#4541A4"/>
<circle cx="841" cy="466" r="3" fill="#4541A4"/>
<circle cx="855" cy="466" r="3" fill="#4541A4"/>
<circle cx="869" cy="466" r="3" fill="#4541A4"/>
<circle cx="883" cy="466" r="3" fill="#4541A4"/>
<circle cx="799" cy="480" r="3" fill="#4541A4"/>
<circle cx="813" cy="480" r="3" fill="#4541A4"/>
<circle cx="827" cy="480" r="3" fill="#4541A4"/>
<circle cx="841" cy="480" r="3" fill="#4541A4"/>
<circle cx="855" cy="480" r="3" fill="#4541A4"/>
<circle cx="869" cy="480" r="3" fill="#4541A4"/>
<circle cx="883" cy="480" r="3" fill="#4541A4"/>
<circle cx="799" cy="494" r="3" fill="#4541A4"/>
<circle cx="813" cy="494" r="3" fill="#4541A4"/>
<circle cx="827" cy="494" r="3" fill="#4541A4"/>
<circle cx="841" cy="494" r="3" fill="#4541A4"/>
<circle cx="855" cy="494" r="3" fill="#4541A4"/>
<circle cx="869" cy="494" r="3" fill="#4541A4"/>
<circle cx="883" cy="494" r="3" fill="#4541A4"/>
<path d="M575 848H861L575 553V848Z" fill="url(#paint5_linear)"/>
<path d="M636 747H922L636 452V747Z" fill="url(#paint6_linear)"/>
<path d="M1534 265H1248L1534 560V265Z" fill="url(#paint7_linear)"/>
</g>
<defs>
<linearGradient id="paint0_linear" x1="720" y1="0" x2="720" y2="930.145" gradientUnits="userSpaceOnUse">
<stop stop-color="#1C1B7E"/>
<stop offset="1" stop-color="#1E1079"/>
</linearGradient>
<linearGradient id="paint1_linear" x1="720" y1="0" x2="720" y2="930.145" gradientUnits="userSpaceOnUse">
<stop stop-color="#1C1B7E"/>
<stop offset="1" stop-color="#1E1079"/>
</linearGradient>
<linearGradient id="paint2_linear" x1="-60.5" y1="204" x2="-60.5" y2="433" gradientUnits="userSpaceOnUse">
<stop stop-color="#5652CC"/>
<stop offset="1" stop-color="#32279B"/>
</linearGradient>
<linearGradient id="paint3_linear" x1="35" y1="102" x2="35" y2="331" gradientUnits="userSpaceOnUse">
<stop stop-color="#282599"/>
<stop offset="1" stop-color="#261B86"/>
</linearGradient>
<linearGradient id="paint4_linear" x1="1206" y1="0" x2="1206" y2="554" gradientUnits="userSpaceOnUse">
<stop stop-color="#2D29A3"/>
<stop offset="1" stop-color="#261B86" stop-opacity="0"/>
</linearGradient>
<linearGradient id="paint5_linear" x1="718" y1="553" x2="718" y2="848" gradientUnits="userSpaceOnUse">
<stop stop-color="#282599"/>
<stop offset="1" stop-color="#261B86"/>
</linearGradient>
<linearGradient id="paint6_linear" x1="779" y1="452" x2="779" y2="747" gradientUnits="userSpaceOnUse">
<stop stop-color="#282599"/>
<stop offset="1" stop-color="#261B86"/>
</linearGradient>
<linearGradient id="paint7_linear" x1="1391" y1="560" x2="1391" y2="265" gradientUnits="userSpaceOnUse">
<stop stop-color="#413EB4"/>
<stop offset="1" stop-color="#453BA4"/>
</linearGradient>
</defs>
</svg>
