<svg width="210" height="30" viewBox="0 0 210 30" fill="none" xmlns="http://www.w3.org/2000/svg">
<path d="M73.3203 23.1266C71.646 23.1266 70.17 22.7631 68.8923 22.0361C67.6146 21.3092 66.6012 20.2958 65.8522 18.996C65.1252 17.6963 64.7617 16.2093 64.7617 14.535C64.7617 12.8607 65.1252 11.3737 65.8522 10.0739C66.6012 8.77419 67.6146 7.76082 68.8923 7.03383C70.17 6.30685 71.646 5.94336 73.3203 5.94336C75.4131 5.94336 77.1755 6.4941 78.6075 7.59559C80.0394 8.67506 80.9536 10.1731 81.3502 12.0897H76.8891C76.6688 11.2966 76.2282 10.6798 75.5673 10.2392C74.9285 9.77655 74.1684 9.54523 73.2873 9.54523C72.1197 9.54523 71.1283 9.98583 70.3132 10.867C69.4981 11.7482 69.0906 12.9709 69.0906 14.535C69.0906 16.0991 69.4981 17.3218 70.3132 18.2029C71.1283 19.0841 72.1197 19.5247 73.2873 19.5247C74.1684 19.5247 74.9285 19.3044 75.5673 18.8638C76.2282 18.4232 76.6688 17.7954 76.8891 16.9803H81.3502C80.9536 18.8308 80.0394 20.3178 78.6075 21.4413C77.1755 22.5649 75.4131 23.1266 73.3203 23.1266Z" fill="#0D0C54"/>
<path d="M92.3081 23.1266C90.722 23.1266 89.29 22.7631 88.0123 22.0361C86.7566 21.3092 85.7542 20.3068 85.0052 19.0291C84.2782 17.7293 83.9148 16.2313 83.9148 14.535C83.9148 12.8387 84.2893 11.3517 85.0383 10.0739C85.7873 8.77419 86.7896 7.76082 88.0453 7.03383C89.3231 6.30685 90.755 5.94336 92.3412 5.94336C93.9053 5.94336 95.3152 6.30685 96.5709 7.03383C97.8486 7.76082 98.851 8.77419 99.578 10.0739C100.327 11.3517 100.701 12.8387 100.701 14.535C100.701 16.2313 100.327 17.7293 99.578 19.0291C98.851 20.3068 97.8486 21.3092 96.5709 22.0361C95.2932 22.7631 93.8722 23.1266 92.3081 23.1266ZM92.3081 19.4586C93.4096 19.4586 94.3679 19.0511 95.183 18.236C95.9981 17.3989 96.4057 16.1652 96.4057 14.535C96.4057 12.9048 95.9981 11.6821 95.183 10.867C94.3679 10.0299 93.4206 9.61132 92.3412 9.61132C91.2176 9.61132 90.2483 10.0299 89.4332 10.867C88.6401 11.6821 88.2436 12.9048 88.2436 14.535C88.2436 16.1652 88.6401 17.3989 89.4332 18.236C90.2483 19.0511 91.2066 19.4586 92.3081 19.4586Z" fill="#0D0C54"/>
<path d="M103.822 22.7301V6.3399H107.556L107.92 8.55389C108.449 7.76082 109.143 7.13297 110.002 6.67034C110.883 6.18569 111.896 5.94336 113.042 5.94336C115.575 5.94336 117.371 6.92368 118.428 8.88434C119.023 7.98112 119.816 7.26515 120.807 6.73643C121.821 6.20772 122.922 5.94336 124.112 5.94336C126.249 5.94336 127.89 6.58222 129.036 7.85995C130.181 9.13768 130.754 11.0102 130.754 13.4776V22.7301H126.524V13.8741C126.524 12.4642 126.249 11.3847 125.698 10.6357C125.169 9.8867 124.343 9.51219 123.22 9.51219C122.074 9.51219 121.149 9.93075 120.444 10.7679C119.761 11.605 119.419 12.7726 119.419 14.2706V22.7301H115.19V13.8741C115.19 12.4642 114.914 11.3847 114.364 10.6357C113.813 9.8867 112.965 9.51219 111.819 9.51219C110.696 9.51219 109.781 9.93075 109.076 10.7679C108.394 11.605 108.052 12.7726 108.052 14.2706V22.7301H103.822Z" fill="#0D0C54"/>
<path d="M134.109 29.9999V6.3399H137.876L138.338 8.68607C138.867 7.95909 139.561 7.32022 140.42 6.76948C141.301 6.21873 142.436 5.94336 143.824 5.94336C145.366 5.94336 146.743 6.31787 147.954 7.06688C149.166 7.81589 150.124 8.84028 150.829 10.14C151.534 11.4398 151.887 12.9158 151.887 14.568C151.887 16.2203 151.534 17.6963 150.829 18.996C150.124 20.2738 149.166 21.2871 147.954 22.0361C146.743 22.7631 145.366 23.1266 143.824 23.1266C142.59 23.1266 141.511 22.8953 140.585 22.4327C139.66 21.97 138.911 21.3202 138.338 20.483V29.9999H134.109ZM142.932 19.4256C144.275 19.4256 145.388 18.974 146.269 18.0708C147.15 17.1675 147.591 16 147.591 14.568C147.591 13.1361 147.15 11.9575 146.269 11.0322C145.388 10.107 144.275 9.64437 142.932 9.64437C141.566 9.64437 140.442 10.107 139.561 11.0322C138.702 11.9355 138.272 13.103 138.272 14.535C138.272 15.9669 138.702 17.1455 139.561 18.0708C140.442 18.974 141.566 19.4256 142.932 19.4256Z" fill="#0D0C54"/>
<path d="M160.655 23.1266C159.245 23.1266 158.088 22.9063 157.185 22.4657C156.282 22.0031 155.61 21.3973 155.169 20.6483C154.729 19.8992 154.509 19.0731 154.509 18.1699C154.509 16.6498 155.103 15.4162 156.293 14.4689C157.483 13.5216 159.267 13.048 161.646 13.048H165.81V12.6514C165.81 11.5279 165.49 10.7018 164.852 10.1731C164.213 9.64437 163.42 9.38001 162.472 9.38001C161.613 9.38001 160.864 9.58929 160.225 10.0079C159.586 10.4044 159.19 10.9992 159.036 11.7923H154.905C155.015 10.6027 155.412 9.56726 156.095 8.68607C156.8 7.80488 157.703 7.13297 158.804 6.67034C159.906 6.18569 161.14 5.94336 162.505 5.94336C164.841 5.94336 166.68 6.52715 168.024 7.69473C169.368 8.86231 170.04 10.5145 170.04 12.6514V22.7301H166.438L166.041 20.0865C165.557 20.9677 164.874 21.6947 163.992 22.2674C163.133 22.8402 162.021 23.1266 160.655 23.1266ZM161.613 19.8221C162.825 19.8221 163.761 19.4256 164.422 18.6325C165.105 17.8395 165.535 16.8591 165.711 15.6915H162.109C160.985 15.6915 160.181 15.9008 159.697 16.3194C159.212 16.7159 158.97 17.2116 158.97 17.8064C158.97 18.4453 159.212 18.9409 159.697 19.2934C160.181 19.6459 160.82 19.8221 161.613 19.8221Z" fill="#0D0C54"/>
<path d="M173.415 22.7301V6.3399H177.149L177.48 9.11565C177.986 8.14634 178.713 7.3753 179.661 6.80252C180.63 6.22975 181.764 5.94336 183.064 5.94336C185.091 5.94336 186.666 6.58222 187.79 7.85995C188.913 9.13768 189.475 11.0102 189.475 13.4776V22.7301H185.245V13.8741C185.245 12.4642 184.959 11.3847 184.386 10.6357C183.813 9.8867 182.921 9.51219 181.709 9.51219C180.52 9.51219 179.539 9.93075 178.768 10.7679C178.019 11.605 177.645 12.7726 177.645 14.2706V22.7301H173.415Z" fill="#0D0C54"/>
<path d="M194.359 29.9999L198.159 21.6396H197.168L190.79 6.3399H195.383L199.976 17.8725L204.768 6.3399H209.262L198.853 29.9999H194.359Z" fill="#0D0C54"/>
<path d="M16.617 27.0875C15.4766 28.228 13.6271 28.2264 12.4886 27.084L2.05535 16.6149C0.919642 15.4753 0.921225 13.6313 2.05889 12.4936L12.4921 2.06035C13.6298 0.922689 15.4738 0.921109 16.6134 2.05682L27.0825 12.4901C28.2249 13.6285 28.2265 15.478 27.0861 16.6184L16.617 27.0875Z" fill="#7545FF"/>
<path d="M31.2142 27.0825C30.0757 28.2249 28.2263 28.2265 27.0858 27.0861L16.6167 16.617C15.4763 15.4766 15.4779 13.6271 16.6203 12.4886L27.0894 2.05535C28.229 0.919642 30.073 0.921225 31.2107 2.05889L41.6439 12.4921C42.7816 13.6298 42.7832 15.4738 41.6475 16.6134L31.2142 27.0825Z" fill="#E1DCEE"/>
<path d="M42.0357 27.0847C40.8963 28.226 39.0471 28.2259 37.9077 27.0847L27.4547 16.6154C26.3164 15.4753 26.318 13.6283 27.4582 12.4902L37.9112 2.05667C39.0498 0.920184 40.8936 0.920182 42.0322 2.05667L52.4852 12.4902C53.6254 13.6283 53.627 15.4753 52.4887 16.6154L42.0357 27.0847Z" fill="#7545FF"/>
</svg>
