<svg width="188" height="30" viewBox="0 0 188 30" fill="none" xmlns="http://www.w3.org/2000/svg">
<path d="M42.2432 12.1086C42.2432 10.1329 42.6843 8.36818 43.5667 6.81449C44.4682 5.24161 45.6862 4.02359 47.2207 3.16043C48.7744 2.27809 50.5103 1.83691 52.4285 1.83691C54.6727 1.83691 56.6388 2.41236 58.3268 3.56324C60.0147 4.71413 61.1944 6.30618 61.8657 8.33941H57.2334C56.7731 7.38034 56.1209 6.66104 55.2769 6.1815C54.4521 5.70197 53.4931 5.4622 52.3997 5.4622C51.2297 5.4622 50.1843 5.74033 49.2636 6.29659C48.362 6.83367 47.6523 7.60093 47.1344 8.59836C46.6357 9.59579 46.3863 10.7659 46.3863 12.1086C46.3863 13.4321 46.6357 14.6021 47.1344 15.6188C47.6523 16.6162 48.362 17.393 49.2636 17.9493C50.1843 18.4864 51.2297 18.7549 52.3997 18.7549C53.4931 18.7549 54.4521 18.5151 55.2769 18.0356C56.1209 17.5369 56.7731 16.808 57.2334 15.8489H61.8657C61.1944 17.9013 60.0147 19.503 58.3268 20.6539C56.658 21.7856 54.6919 22.3514 52.4285 22.3514C50.5103 22.3514 48.7744 21.9198 47.2207 21.0567C45.6862 20.1743 44.4682 18.9563 43.5667 17.4026C42.6843 15.8489 42.2432 14.0842 42.2432 12.1086Z" fill="#0D0C54"/>
<path d="M72.3842 22.4377C70.8497 22.4377 69.4686 22.1021 68.241 21.4307C67.0134 20.7402 66.0447 19.7715 65.335 18.5247C64.6445 17.2779 64.2992 15.8393 64.2992 14.2089C64.2992 12.5785 64.6541 11.1399 65.3638 9.89311C66.0927 8.64631 67.0805 7.68724 68.3273 7.01589C69.5741 6.32536 70.9648 5.9801 72.4993 5.9801C74.0338 5.9801 75.4244 6.32536 76.6712 7.01589C77.918 7.68724 78.8963 8.64631 79.606 9.89311C80.3349 11.1399 80.6993 12.5785 80.6993 14.2089C80.6993 15.8393 80.3253 17.2779 79.5772 18.5247C78.8483 19.7715 77.8509 20.7402 76.5849 21.4307C75.3381 22.1021 73.9379 22.4377 72.3842 22.4377ZM72.3842 18.9275C73.1131 18.9275 73.794 18.7549 74.427 18.4097C75.0792 18.0452 75.5971 17.5081 75.9807 16.7984C76.3643 16.0887 76.5561 15.2255 76.5561 14.2089C76.5561 12.6936 76.1533 11.5331 75.3477 10.7275C74.5613 9.9027 73.5926 9.4903 72.4417 9.4903C71.2908 9.4903 70.3222 9.9027 69.5358 10.7275C68.7685 11.5331 68.3849 12.6936 68.3849 14.2089C68.3849 15.7243 68.7589 16.8943 69.507 17.7191C70.2742 18.5247 71.2333 18.9275 72.3842 18.9275Z" fill="#0D0C54"/>
<path d="M103.449 6.00887C105.406 6.00887 106.979 6.61308 108.168 7.82151C109.376 9.01076 109.981 10.6795 109.981 12.8279V22.1788H105.952V13.3745C105.952 12.1277 105.636 11.1783 105.003 10.5261C104.37 9.85474 103.507 9.51907 102.413 9.51907C101.32 9.51907 100.447 9.85474 99.7952 10.5261C99.1623 11.1783 98.8458 12.1277 98.8458 13.3745V22.1788H94.8177V13.3745C94.8177 12.1277 94.5012 11.1783 93.8682 10.5261C93.2352 9.85474 92.372 9.51907 91.2787 9.51907C90.1662 9.51907 89.2838 9.85474 88.6317 10.5261C87.9987 11.1783 87.6822 12.1277 87.6822 13.3745V22.1788H83.6541V6.23905H87.6822V8.16678C88.2001 7.49543 88.8618 6.96794 89.6675 6.58431C90.4923 6.20068 91.3938 6.00887 92.372 6.00887C93.6188 6.00887 94.7313 6.27741 95.7096 6.81449C96.6879 7.33239 97.4455 8.08046 97.9826 9.05871C98.5005 8.13801 99.2486 7.39952 100.227 6.84326C101.224 6.287 102.298 6.00887 103.449 6.00887Z" fill="#0D0C54"/>
<path d="M117.831 8.54082C118.349 7.81192 119.059 7.20771 119.96 6.72817C120.881 6.22946 121.926 5.9801 123.096 5.9801C124.458 5.9801 125.686 6.31577 126.779 6.98712C127.892 7.65847 128.764 8.61754 129.397 9.86433C130.05 11.0919 130.376 12.521 130.376 14.1514C130.376 15.7818 130.05 17.23 129.397 18.496C128.764 19.7428 127.892 20.7114 126.779 21.402C125.686 22.0925 124.458 22.4377 123.096 22.4377C121.926 22.4377 120.891 22.198 119.989 21.7184C119.107 21.2389 118.387 20.6347 117.831 19.9058V29.7746H113.803V6.23905H117.831V8.54082ZM126.261 14.1514C126.261 13.1923 126.06 12.3675 125.657 11.677C125.273 10.9673 124.756 10.4302 124.103 10.0657C123.47 9.70129 122.78 9.51907 122.032 9.51907C121.303 9.51907 120.612 9.71088 119.96 10.0945C119.327 10.459 118.809 10.996 118.407 11.7057C118.023 12.4155 117.831 13.2499 117.831 14.2089C117.831 15.168 118.023 16.0024 118.407 16.7121C118.809 17.4218 119.327 17.9685 119.96 18.3521C120.612 18.7166 121.303 18.8988 122.032 18.8988C122.78 18.8988 123.47 18.707 124.103 18.3233C124.756 17.9397 125.273 17.393 125.657 16.6833C126.06 15.9736 126.261 15.1296 126.261 14.1514Z" fill="#0D0C54"/>
<path d="M132.267 14.1514C132.267 12.5401 132.584 11.1111 133.217 9.86433C133.869 8.61754 134.741 7.65847 135.835 6.98712C136.947 6.31577 138.184 5.9801 139.546 5.9801C140.736 5.9801 141.771 6.21987 142.654 6.6994C143.555 7.17894 144.275 7.78315 144.812 8.51204V6.23905H148.869V22.1788H144.812V19.8483C144.294 20.5963 143.574 21.2197 142.654 21.7184C141.752 22.198 140.707 22.4377 139.518 22.4377C138.175 22.4377 136.947 22.0925 135.835 21.402C134.741 20.7114 133.869 19.7428 133.217 18.496C132.584 17.23 132.267 15.7818 132.267 14.1514ZM144.812 14.2089C144.812 13.2307 144.62 12.3963 144.236 11.7057C143.853 10.996 143.335 10.459 142.683 10.0945C142.03 9.71088 141.33 9.51907 140.582 9.51907C139.834 9.51907 139.144 9.70129 138.511 10.0657C137.878 10.4302 137.36 10.9673 136.957 11.677C136.573 12.3675 136.381 13.1923 136.381 14.1514C136.381 15.1104 136.573 15.9544 136.957 16.6833C137.36 17.393 137.878 17.9397 138.511 18.3233C139.163 18.707 139.853 18.8988 140.582 18.8988C141.33 18.8988 142.03 18.7166 142.683 18.3521C143.335 17.9685 143.853 17.4314 144.236 16.7409C144.62 16.0312 144.812 15.1872 144.812 14.2089Z" fill="#0D0C54"/>
<path d="M161.636 6.00887C163.535 6.00887 165.069 6.61308 166.239 7.82151C167.409 9.01076 167.994 10.6795 167.994 12.8279V22.1788H163.966V13.3745C163.966 12.1086 163.65 11.1399 163.017 10.4685C162.384 9.77802 161.521 9.43275 160.427 9.43275C159.315 9.43275 158.432 9.77802 157.78 10.4685C157.147 11.1399 156.831 12.1086 156.831 13.3745V22.1788H152.803V6.23905H156.831V8.22432C157.368 7.53379 158.049 6.99671 158.874 6.61309C159.718 6.21027 160.638 6.00887 161.636 6.00887Z" fill="#0D0C54"/>
<path d="M187.074 6.23905L177.205 29.7171H172.918L176.371 21.776L169.983 6.23905H174.501L178.615 17.3739L182.787 6.23905H187.074Z" fill="#0D0C54"/>
<path d="M12.0438 29.5623C5.89369 29.5623 0.927734 24.5581 0.927734 18.4462C0.927734 12.3342 5.89369 7.33008 12.0438 7.33008C18.1558 7.33008 23.1599 12.296 23.1599 18.4462C23.1217 24.5581 18.1558 29.5623 12.0438 29.5623Z" fill="#7545FF"/>
<path d="M28.4095 0.224609H13.8997C12.8748 0.224609 12.0439 1.05544 12.0439 2.08033V16.5901C12.0439 17.615 12.8748 18.4458 13.8997 18.4458H28.4095C29.4343 18.4458 30.2652 17.615 30.2652 16.5901V2.08033C30.2652 1.05544 29.4343 0.224609 28.4095 0.224609Z" fill="#E1DCEE"/>
</svg>
