<svg width="182" height="30" viewBox="0 0 182 30" fill="none" xmlns="http://www.w3.org/2000/svg">
<path d="M62.9867 16.2064C61.6696 18.3429 59.7965 19.5722 57.3672 19.5722C53.8551 19.5722 51.2796 16.7332 51.2796 13.0747C51.2796 9.41627 53.738 6.60656 57.4258 6.60656C59.7672 6.60656 61.8745 7.92361 62.9281 9.91382L66.3232 7.22118C64.5964 4.14807 61.4647 2.3042 57.4843 2.3042C51.1039 2.3042 46.626 7.04558 46.626 13.0747C46.626 19.1039 51.1917 23.8745 57.4258 23.8745C61.3477 23.8745 64.6257 21.7965 66.411 18.8405L62.9867 16.2064Z" fill="#0D0C54"/>
<path d="M75.7081 8.15775C71.0252 8.15775 67.6594 11.5528 67.6594 16.0015C67.6594 20.4209 71.0252 23.8745 75.7081 23.8745C80.3909 23.8745 83.7567 20.4209 83.7567 16.0015C83.7567 11.5528 80.3909 8.15775 75.7081 8.15775ZM75.7081 12.1089C77.7276 12.1089 79.2495 13.6601 79.2495 16.0015C79.2495 18.3429 77.7276 19.9234 75.7081 19.9234C73.6886 19.9234 72.1667 18.3429 72.1667 16.0015C72.1667 13.6601 73.6886 12.1089 75.7081 12.1089Z" fill="#0D0C54"/>
<path d="M86.6645 8.50897V23.5233H91.1132V15.7088C91.1132 13.7479 92.1376 12.0796 94.0107 12.0796C95.6497 12.0796 96.7034 13.104 96.7034 15.0649V23.5233H101.152V15.7088C101.152 13.7479 102.176 12.0796 104.05 12.0796C105.689 12.0796 106.713 13.104 106.713 15.0649V23.5233H111.162V14.3918C111.162 10.4992 108.967 8.15775 105.367 8.15775C102.82 8.15775 101.386 9.26993 100.303 10.7919C99.2789 9.12359 97.6399 8.15775 95.3278 8.15775C93.3668 8.15775 91.9034 8.91871 90.9376 10.4406V8.50897H86.6645Z" fill="#0D0C54"/>
<path d="M122.834 12.0796C124.736 12.0796 126.316 13.6308 126.316 16.06C126.316 18.4015 124.736 19.9527 122.834 19.9527C120.843 19.9527 119.292 18.4307 119.292 16.06C119.292 13.6016 120.843 12.0796 122.834 12.0796ZM119.087 8.50897H114.96V29.3769H119.409V21.8843C120.346 23.2892 122.131 23.8745 123.741 23.8745C127.838 23.8745 130.794 20.4795 130.794 16.0015C130.794 11.3772 127.604 8.15775 123.77 8.15775C122.307 8.15775 120.258 8.77238 119.087 10.587V8.50897Z" fill="#0D0C54"/>
<path d="M141.495 14.1869L137.398 14.9771C134.237 15.6503 132.51 17.1722 132.51 19.3966C132.51 22.0014 134.559 23.8745 137.486 23.8745C139.476 23.8745 140.939 22.9965 141.642 21.6795V23.5233H145.768V14.0698C145.768 10.4114 143.281 8.15775 139.095 8.15775C136.286 8.15775 134.032 9.32846 132.657 10.9967L134.969 13.8064C135.876 12.7821 137.164 11.9918 138.832 11.9918C140.354 11.9918 141.495 12.5772 141.495 14.0698V14.1869ZM138.481 20.5673C137.427 20.5673 136.754 19.9819 136.754 19.1332C136.754 18.3137 137.339 17.7868 138.539 17.582L141.525 16.9966V17.4356C141.525 19.221 140.325 20.5673 138.481 20.5673Z" fill="#0D0C54"/>
<path d="M149.516 8.50897V23.5233H153.965V15.7088C153.965 13.7479 154.989 12.0796 156.921 12.0796C158.56 12.0796 159.613 13.104 159.613 15.0649V23.5233H164.062V14.3918C164.062 10.4992 161.838 8.15775 158.238 8.15775C156.218 8.15775 154.755 8.91871 153.789 10.4406V8.50897H149.516Z" fill="#0D0C54"/>
<path d="M171.326 22.9672L171.15 23.4648C170.506 25.6013 169.423 25.9818 168.253 25.9818C167.755 25.9818 166.994 25.9233 166.204 25.4843V29.172C166.877 29.494 167.843 29.7281 168.897 29.7281C171.736 29.7281 173.55 28.3818 175.043 24.7526L181.599 8.50897H177.062L173.55 18.3429L170.067 8.50897H165.414L171.326 22.9672Z" fill="#0D0C54"/>
<path d="M19.8706 0.271484H15.3088C14.7909 0.271484 14.3711 0.691314 14.3711 1.2092V25.9683C14.3711 26.4862 14.7909 26.906 15.3088 26.906H19.8706C20.3885 26.906 20.8083 26.4862 20.8083 25.9683V1.2092C20.8083 0.691314 20.3885 0.271484 19.8706 0.271484Z" fill="#E1DCEE"/>
<path d="M29.4455 26.9056C32.4675 26.9056 34.9173 24.4558 34.9173 21.4338C34.9173 18.4117 32.4675 15.9619 29.4455 15.9619C26.4235 15.9619 23.9736 18.4117 23.9736 21.4338C23.9736 24.4558 26.4235 26.9056 29.4455 26.9056Z" fill="#7545FF"/>
<path d="M29.4455 11.2152C32.4675 11.2152 34.9173 8.76537 34.9173 5.74334C34.9173 2.72132 32.4675 0.271484 29.4455 0.271484C26.4235 0.271484 23.9736 2.72132 23.9736 5.74334C23.9736 8.76537 26.4235 11.2152 29.4455 11.2152Z" fill="#7545FF"/>
<path d="M5.73455 26.9056C8.75658 26.9056 11.2064 24.4558 11.2064 21.4338C11.2064 18.4117 8.75658 15.9619 5.73455 15.9619C2.71253 15.9619 0.262695 18.4117 0.262695 21.4338C0.262695 24.4558 2.71253 26.9056 5.73455 26.9056Z" fill="#7545FF"/>
</svg>
