<svg width="185" height="30" viewBox="0 0 185 30" fill="none" xmlns="http://www.w3.org/2000/svg">
<path d="M23.6061 12.9474C19.6848 12.9474 16.5018 9.77649 16.5018 5.87938C16.5018 5.37106 16.5623 4.88695 16.6591 4.40283H7.21888C3.56383 4.40283 0.598633 7.35592 0.598633 10.9868V23.1501C0.598633 26.7931 3.56383 29.7341 7.21888 29.7341H19.4427C23.1099 29.7341 26.063 26.781 26.063 23.1501V12.4996C25.3126 12.778 24.4775 12.9474 23.6061 12.9474Z" fill="#E1DCEE"/>
<path d="M26.0747 23.1501V12.4996C25.3122 12.778 24.4771 12.9474 23.6178 12.9474C19.6965 12.9474 16.5135 9.77649 16.5135 5.87938C16.5135 5.37106 16.574 4.88695 16.6708 4.40283H7.2306C3.59975 4.40283 0.658763 7.30751 0.610352 10.9142C9.32439 14.5087 18.2805 18.8778 26.0263 23.9852C26.0505 23.7069 26.0747 23.4285 26.0747 23.1501Z" fill="#E1DCEE"/>
<path d="M24.1505 10.5056C26.9947 10.5056 29.2942 8.21816 29.2942 5.3861C29.2942 2.56614 26.9947 0.266602 24.1505 0.266602C21.3064 0.266602 19.0068 2.55404 19.0068 5.3861C19.0068 8.20606 21.3064 10.5056 24.1505 10.5056Z" fill="#7545FF"/>
<path d="M55.314 17.0178C55.1116 17.8782 54.77 18.7133 54.2892 19.523C53.8084 20.3075 53.2137 21.0161 52.5052 21.6487C51.7966 22.256 50.9869 22.7495 50.0759 23.129C49.1649 23.4833 48.1906 23.6604 47.1531 23.6604C45.9638 23.6604 44.8377 23.4327 43.7749 22.9772C42.7374 22.4964 41.8137 21.8511 41.004 21.0414C40.2195 20.2316 39.5869 19.2953 39.1061 18.2325C38.6506 17.1444 38.4229 15.9803 38.4229 14.7404C38.4229 13.5004 38.6506 12.349 39.1061 11.2862C39.5869 10.1981 40.2195 9.24916 41.004 8.43939C41.8137 7.62963 42.7374 6.997 43.7749 6.54151C44.8377 6.06071 45.9638 5.82031 47.1531 5.82031C48.1906 5.82031 49.1649 6.0101 50.0759 6.38968C50.9869 6.74395 51.7966 7.2374 52.5052 7.87003C53.2137 8.47735 53.8084 9.1859 54.2892 9.99566C54.77 10.7801 55.1116 11.6025 55.314 12.4629H50.9489C50.7465 12.0074 50.4681 11.6025 50.1138 11.2483C49.8102 10.9446 49.4179 10.6662 48.9371 10.4132C48.4563 10.1348 47.8617 9.99566 47.1531 9.99566C45.9132 9.99566 44.8757 10.4258 44.0406 11.2862C43.2055 12.1466 42.788 13.298 42.788 14.7404C42.788 16.1828 43.2055 17.3342 44.0406 18.1945C44.8757 19.0549 45.9132 19.4851 47.1531 19.4851C47.8617 19.4851 48.4563 19.3586 48.9371 19.1055C49.4179 18.8525 49.8102 18.5741 50.1138 18.2704C50.4681 17.9162 50.7465 17.4986 50.9489 17.0178H55.314Z" fill="#0D0C54"/>
<path d="M62.526 14.7404C62.526 16.1828 62.9435 17.3342 63.7786 18.1945C64.6137 19.0549 65.6512 19.4851 66.8911 19.4851C68.1311 19.4851 69.1686 19.0549 70.0037 18.1945C70.8387 17.3342 71.2563 16.1828 71.2563 14.7404C71.2563 13.298 70.8387 12.1466 70.0037 11.2862C69.1686 10.4258 68.1311 9.99566 66.8911 9.99566C65.6512 9.99566 64.6137 10.4258 63.7786 11.2862C62.9435 12.1466 62.526 13.298 62.526 14.7404ZM75.6214 14.7404C75.6214 15.9803 75.381 17.1444 74.9002 18.2325C74.4447 19.2953 73.8121 20.2316 73.0023 21.0414C72.2179 21.8511 71.2942 22.4964 70.2314 22.9772C69.1939 23.4327 68.0805 23.6604 66.8911 23.6604C65.7018 23.6604 64.5757 23.4327 63.5129 22.9772C62.4754 22.4964 61.5517 21.8511 60.742 21.0414C59.9575 20.2316 59.3249 19.2953 58.8441 18.2325C58.3886 17.1444 58.1609 15.9803 58.1609 14.7404C58.1609 13.5004 58.3886 12.349 58.8441 11.2862C59.3249 10.1981 59.9575 9.24916 60.742 8.43939C61.5517 7.62963 62.4754 6.997 63.5129 6.54151C64.5757 6.06071 65.7018 5.82031 66.8911 5.82031C68.0805 5.82031 69.1939 6.06071 70.2314 6.54151C71.2942 6.997 72.2179 7.62963 73.0023 8.43939C73.8121 9.24916 74.4447 10.1981 74.9002 11.2862C75.381 12.349 75.6214 13.5004 75.6214 14.7404Z" fill="#0D0C54"/>
<path d="M87.7501 5.82031C88.6358 5.82031 89.3949 5.94684 90.0275 6.19989C90.6602 6.42764 91.1789 6.68069 91.5838 6.95904C92.0393 7.28801 92.4062 7.66759 92.6846 8.09778C93.0895 7.66759 93.5576 7.28801 94.089 6.95904C94.5445 6.68069 95.0886 6.42764 95.7212 6.19989C96.3538 5.94684 97.0497 5.82031 97.8089 5.82031C99.7068 5.82031 101.225 6.42764 102.364 7.64228C103.503 8.85693 104.072 10.6536 104.072 13.0323V23.4707H99.7068V13.4119C99.7068 12.349 99.4157 11.514 98.8337 10.9066C98.277 10.2993 97.6191 9.99566 96.8599 9.99566C96.1008 9.99566 95.4302 10.2993 94.8482 10.9066C94.2915 11.514 94.0131 12.349 94.0131 13.4119V23.4707H89.648V13.4119C89.648 12.349 89.357 11.514 88.7749 10.9066C88.2182 10.2993 87.5603 9.99566 86.8011 9.99566C86.042 9.99566 85.3714 10.2993 84.7894 10.9066C84.2327 11.514 83.9543 12.349 83.9543 13.4119V23.4707H79.5892V6.0101H82.8156L83.5747 7.7182C83.929 7.36393 84.3212 7.04761 84.7514 6.76926C85.1057 6.54151 85.5359 6.32642 86.042 6.12397C86.5481 5.92153 87.1175 5.82031 87.7501 5.82031Z" fill="#0D0C54"/>
<path d="M117.737 5.82031C118.825 5.82031 119.862 6.04806 120.849 6.50355C121.836 6.93374 122.696 7.55372 123.43 8.36348C124.189 9.14794 124.784 10.0842 125.214 11.1724C125.67 12.2605 125.898 13.4498 125.898 14.7404C125.898 16.0309 125.67 17.2203 125.214 18.3084C124.784 19.3965 124.189 20.3455 123.43 21.1552C122.696 21.9397 121.836 22.5597 120.849 23.0152C119.862 23.4453 118.825 23.6604 117.737 23.6604C117.003 23.6604 116.358 23.5719 115.801 23.3947C115.269 23.2176 114.801 23.0278 114.396 22.8254C113.941 22.5723 113.536 22.2813 113.182 21.9523V29.5439H108.817V6.0101H112.043L112.802 7.7182C113.182 7.36393 113.625 7.04761 114.131 6.76926C114.561 6.54151 115.08 6.32642 115.687 6.12397C116.294 5.92153 116.978 5.82031 117.737 5.82031ZM112.802 14.7404C112.802 16.1828 113.22 17.3342 114.055 18.1945C114.89 19.0549 115.927 19.4851 117.167 19.4851C118.407 19.4851 119.445 19.0549 120.28 18.1945C121.115 17.3342 121.532 16.1828 121.532 14.7404C121.532 13.298 121.115 12.1466 120.28 11.2862C119.445 10.4258 118.407 9.99566 117.167 9.99566C115.927 9.99566 114.89 10.4258 114.055 11.2862C113.22 12.1466 112.802 13.298 112.802 14.7404Z" fill="#0D0C54"/>
<path d="M137.101 5.82031C138.088 5.82031 138.999 5.99745 139.834 6.35172C140.669 6.68069 141.39 7.14883 141.998 7.75616C142.605 8.36348 143.073 9.08468 143.402 9.91975C143.756 10.7548 143.933 11.6658 143.933 12.6527V23.4707H140.707L139.948 21.7626C139.543 22.1168 139.1 22.4331 138.619 22.7115C138.189 22.9645 137.67 23.1923 137.063 23.3947C136.456 23.5719 135.773 23.6604 135.013 23.6604C133.115 23.6604 131.66 23.2049 130.648 22.294C129.636 21.3577 129.13 20.1683 129.13 18.7259C129.13 17.8656 129.294 17.0811 129.623 16.3726C129.978 15.6387 130.56 15.0187 131.369 14.5126C132.179 13.9812 133.242 13.5763 134.558 13.298C135.899 12.9943 137.569 12.8425 139.568 12.8425C139.568 11.8809 139.303 11.1344 138.771 10.603C138.265 10.0716 137.582 9.80587 136.721 9.80587C136.139 9.80587 135.671 9.90709 135.317 10.1095C134.988 10.312 134.722 10.5271 134.52 10.7548C134.292 11.0332 134.14 11.3495 134.064 11.7038H129.699C129.8 10.894 130.028 10.1348 130.383 9.4263C130.762 8.71775 131.268 8.09778 131.901 7.56637C132.533 7.03496 133.28 6.61742 134.14 6.31376C135.026 5.9848 136.013 5.82031 137.101 5.82031ZM135.773 20.2442C136.911 20.2442 137.822 19.9153 138.505 19.2573C139.214 18.5741 139.568 17.7011 139.568 16.6383V15.8791C138.278 15.8791 137.24 15.9424 136.456 16.0689C135.671 16.1701 135.051 16.3346 134.596 16.5623C134.166 16.7648 133.875 17.0178 133.723 17.3215C133.571 17.6252 133.495 17.9668 133.495 18.3464C133.495 18.8272 133.71 19.27 134.14 19.6749C134.571 20.0545 135.115 20.2442 135.773 20.2442Z" fill="#0D0C54"/>
<path d="M157.583 5.82031C158.621 5.82031 159.57 5.99745 160.43 6.35172C161.291 6.68069 162.024 7.17414 162.632 7.83207C163.264 8.4647 163.745 9.23651 164.074 10.1475C164.428 11.0585 164.606 12.0833 164.606 13.2221V23.4707H160.24V13.7914C160.24 12.6527 159.899 11.7417 159.216 11.0585C158.558 10.3499 157.697 9.99566 156.634 9.99566C155.572 9.99566 154.699 10.3499 154.015 11.0585C153.357 11.7417 153.028 12.6527 153.028 13.7914V23.4707H148.663V6.0101H151.89L152.649 7.7182C153.079 7.36393 153.547 7.04761 154.053 6.76926C154.483 6.54151 154.99 6.32642 155.572 6.12397C156.179 5.92153 156.85 5.82031 157.583 5.82031Z" fill="#0D0C54"/>
<path d="M167.467 6.0101H172.022L176.387 17.3974L180.373 6.0101H184.928C183.688 9.19855 182.562 12.0833 181.549 14.6645C181.119 15.7779 180.689 16.866 180.259 17.9288C179.854 18.9916 179.487 19.9659 179.158 20.8516C178.829 21.7119 178.551 22.4331 178.323 23.0152C178.095 23.5972 177.956 23.9388 177.906 24.04C177.475 25.0775 177.045 25.9506 176.615 26.6591C176.21 27.3929 175.767 27.9876 175.286 28.4431C174.806 28.8986 174.287 29.2276 173.73 29.43C173.174 29.6325 172.541 29.7337 171.832 29.7337C171.63 29.7337 171.427 29.721 171.225 29.6957C171.048 29.6957 170.896 29.6831 170.77 29.6578C170.592 29.6325 170.441 29.5945 170.314 29.5439V25.9379C171.276 25.9379 172.009 25.7228 172.516 25.2926C173.047 24.8624 173.452 24.3184 173.73 23.6604L174.11 22.7115L167.467 6.0101Z" fill="#0D0C54"/>
</svg>
