<svg width="20" height="25" viewBox="0 0 20 25" fill="none" xmlns="http://www.w3.org/2000/svg">
<path d="M10 14.5C12.4853 14.5 14.5 12.4853 14.5 10C14.5 7.51472 12.4853 5.5 10 5.5C7.51472 5.5 5.5 7.51472 5.5 10C5.5 12.4853 7.51472 14.5 10 14.5Z" stroke="#7545FF" stroke-width="1.5" stroke-linecap="round" stroke-linejoin="round"/>
<path d="M19 10C19 17.9 12.068 22.331 10.371 23.3C10.2579 23.3646 10.1298 23.3986 9.9995 23.3986C9.8692 23.3986 9.74115 23.3646 9.628 23.3C7.931 22.33 1 17.898 1 10C1 7.61305 1.94821 5.32387 3.63604 3.63604C5.32387 1.94821 7.61305 1 10 1C12.3869 1 14.6761 1.94821 16.364 3.63604C18.0518 5.32387 19 7.61305 19 10Z" stroke="#7545FF" stroke-width="1.5" stroke-linecap="round" stroke-linejoin="round"/>
</svg>
