<svg width="80" height="81" viewBox="0 0 80 81" fill="none" xmlns="http://www.w3.org/2000/svg">
<rect y="0.12207" width="80" height="80" fill="#F4F0FF"/>
<path d="M19.6436 33.4374C19.6436 34.7055 19.8933 35.9612 20.3786 37.1327C20.8639 38.3043 21.5751 39.3688 22.4718 40.2654C23.3685 41.1621 24.4329 41.8733 25.6045 42.3586C26.776 42.8439 28.0317 43.0936 29.2998 43.0936C30.5678 43.0936 31.8235 42.8439 32.995 42.3586C34.1666 41.8733 35.2311 41.1621 36.1277 40.2654C37.0244 39.3688 37.7356 38.3043 38.2209 37.1327C38.7062 35.9612 38.956 34.7055 38.956 33.4374C38.956 32.1694 38.7062 30.9137 38.2209 29.7422C37.7356 28.5706 37.0244 27.5061 36.1277 26.6095C35.2311 25.7128 34.1666 25.0016 32.995 24.5163C31.8235 24.031 30.5678 23.7812 29.2998 23.7812C28.0317 23.7812 26.776 24.031 25.6045 24.5163C24.4329 25.0016 23.3685 25.7128 22.4718 26.6095C21.5751 27.5061 20.8639 28.5706 20.3786 29.7422C19.8933 30.9137 19.6436 32.1694 19.6436 33.4374Z" fill="#7545FF"/>
<path d="M16.2863 56.4636H42.3134C42.5364 56.4634 42.7565 56.4129 42.9573 56.3161C43.1581 56.2192 43.3346 56.0783 43.4736 55.904C43.6126 55.7296 43.7105 55.5262 43.7602 55.3088C43.8098 55.0914 43.8099 54.8656 43.7604 54.6482C43.0182 51.3676 41.1825 48.4368 38.5547 46.3371C35.927 44.2375 32.6634 43.0938 29.2998 43.0938C25.9363 43.0938 22.6727 44.2375 20.0449 46.3371C17.4172 48.4368 15.5815 51.3676 14.8393 54.6482C14.7898 54.8656 14.7899 55.0914 14.8395 55.3088C14.8892 55.5262 14.9871 55.7296 15.1261 55.904C15.2651 56.0783 15.4415 56.2192 15.6424 56.3161C15.8432 56.4129 16.0633 56.4634 16.2863 56.4636V56.4636Z" fill="#7545FF"/>
<mask id="path-4-outside-1" maskUnits="userSpaceOnUse" x="34.2031" y="21.7812" width="33" height="37" fill="black">
<rect fill="white" x="34.2031" y="21.7812" width="33" height="37"/>
<path fill-rule="evenodd" clip-rule="evenodd" d="M43.8724 40.2654C42.0615 38.4545 41.0442 35.9984 41.0442 33.4374C41.0442 30.8765 42.0615 28.4204 43.8724 26.6095C45.6833 24.7986 48.1394 23.7812 50.7004 23.7812C53.2614 23.7812 55.7175 24.7986 57.5284 26.6095C59.3392 28.4204 60.3566 30.8765 60.3566 33.4374C60.3566 35.9984 59.3392 38.4545 57.5284 40.2654C55.7175 42.0763 53.2614 43.0936 50.7004 43.0936C48.1394 43.0936 45.6833 42.0763 43.8724 40.2654ZM36.2404 55.3091C36.1908 55.0917 36.1907 54.8659 36.2402 54.6485C36.9824 51.3679 38.8181 48.4371 41.4458 46.3374C44.0736 44.2378 47.3372 43.094 50.7007 43.094C54.0643 43.094 57.3279 44.2378 59.9556 46.3374C62.5834 48.4371 64.419 51.3679 65.1613 54.6485C65.2108 54.8659 65.2107 55.0917 65.161 55.3091C65.1114 55.5265 65.0134 55.7299 64.8745 55.9043C64.7355 56.0786 64.559 56.2195 64.3582 56.3163C64.1574 56.4132 63.9373 56.4636 63.7143 56.4639H37.6871C37.4642 56.4636 37.2441 56.4132 37.0433 56.3163C36.8424 56.2195 36.666 56.0786 36.527 55.9043C36.388 55.7299 36.2901 55.5265 36.2404 55.3091Z"/>
</mask>
<path fill-rule="evenodd" clip-rule="evenodd" d="M43.8724 40.2654C42.0615 38.4545 41.0442 35.9984 41.0442 33.4374C41.0442 30.8765 42.0615 28.4204 43.8724 26.6095C45.6833 24.7986 48.1394 23.7812 50.7004 23.7812C53.2614 23.7812 55.7175 24.7986 57.5284 26.6095C59.3392 28.4204 60.3566 30.8765 60.3566 33.4374C60.3566 35.9984 59.3392 38.4545 57.5284 40.2654C55.7175 42.0763 53.2614 43.0936 50.7004 43.0936C48.1394 43.0936 45.6833 42.0763 43.8724 40.2654ZM36.2404 55.3091C36.1908 55.0917 36.1907 54.8659 36.2402 54.6485C36.9824 51.3679 38.8181 48.4371 41.4458 46.3374C44.0736 44.2378 47.3372 43.094 50.7007 43.094C54.0643 43.094 57.3279 44.2378 59.9556 46.3374C62.5834 48.4371 64.419 51.3679 65.1613 54.6485C65.2108 54.8659 65.2107 55.0917 65.161 55.3091C65.1114 55.5265 65.0134 55.7299 64.8745 55.9043C64.7355 56.0786 64.559 56.2195 64.3582 56.3163C64.1574 56.4132 63.9373 56.4636 63.7143 56.4639H37.6871C37.4642 56.4636 37.2441 56.4132 37.0433 56.3163C36.8424 56.2195 36.666 56.0786 36.527 55.9043C36.388 55.7299 36.2901 55.5265 36.2404 55.3091Z" fill="#7545FF"/>
<path d="M43.8724 26.6095L45.2867 28.0237L45.2867 28.0237L43.8724 26.6095ZM57.5284 26.6095L56.1141 28.0237L56.1141 28.0237L57.5284 26.6095ZM36.2402 54.6485L38.1903 55.0925L38.1909 55.0898L36.2402 54.6485ZM36.2404 55.3091L38.1902 54.8638L38.1902 54.8638L36.2404 55.3091ZM41.4458 46.3374L40.1974 44.775L40.1974 44.775L41.4458 46.3374ZM59.9556 46.3374L61.2041 44.775L61.2041 44.775L59.9556 46.3374ZM65.1613 54.6485L63.2105 55.0898L63.2112 55.0925L65.1613 54.6485ZM64.8745 55.9043L63.3105 54.6577L63.3105 54.6577L64.8745 55.9043ZM63.7143 56.4639L63.7143 58.4639L63.7164 58.4639L63.7143 56.4639ZM37.6871 56.4639L37.6851 58.4639H37.6871V56.4639ZM36.527 55.9043L38.091 54.6577L38.091 54.6577L36.527 55.9043ZM39.0442 33.4374C39.0442 36.5289 40.2723 39.4937 42.4582 41.6796L45.2867 38.8512C43.8508 37.4154 43.0442 35.468 43.0442 33.4374H39.0442ZM42.4582 25.1953C40.2723 27.3812 39.0442 30.346 39.0442 33.4374H43.0442C43.0442 31.4069 43.8508 29.4595 45.2867 28.0237L42.4582 25.1953ZM50.7004 21.7812C47.609 21.7812 44.6442 23.0093 42.4582 25.1953L45.2867 28.0237C46.7225 26.5879 48.6699 25.7812 50.7004 25.7812V21.7812ZM58.9426 25.1953C56.7566 23.0093 53.7918 21.7812 50.7004 21.7812V25.7812C52.7309 25.7812 54.6783 26.5879 56.1141 28.0237L58.9426 25.1953ZM62.3566 33.4374C62.3566 30.346 61.1285 27.3812 58.9426 25.1953L56.1141 28.0237C57.55 29.4595 58.3566 31.4069 58.3566 33.4374H62.3566ZM58.9426 41.6796C61.1285 39.4937 62.3566 36.5289 62.3566 33.4374H58.3566C58.3566 35.468 57.55 37.4154 56.1141 38.8512L58.9426 41.6796ZM50.7004 45.0936C53.7918 45.0936 56.7566 43.8656 58.9426 41.6796L56.1141 38.8512C54.6783 40.287 52.7309 41.0936 50.7004 41.0936V45.0936ZM42.4582 41.6796C44.6442 43.8656 47.609 45.0936 50.7004 45.0936V41.0936C48.6698 41.0936 46.7225 40.287 45.2867 38.8512L42.4582 41.6796ZM34.2901 54.2045C34.174 54.7146 34.1741 55.2443 34.2906 55.7544L38.1902 54.8638C38.2074 54.9391 38.2074 55.0172 38.1903 55.0925L34.2901 54.2045ZM40.1974 44.775C37.2151 47.1579 35.1318 50.484 34.2895 54.2072L38.1909 55.0898C38.833 52.2517 40.421 49.7163 42.6943 47.8999L40.1974 44.775ZM50.7007 41.094C46.8834 41.094 43.1796 42.3921 40.1974 44.775L42.6943 47.8999C44.9676 46.0835 47.7909 45.094 50.7007 45.094V41.094ZM61.2041 44.775C58.2219 42.3921 54.518 41.094 50.7007 41.094V45.094C53.6106 45.094 56.4339 46.0835 58.7072 47.8999L61.2041 44.775ZM67.112 54.2072C66.2696 50.484 64.1863 47.1579 61.2041 44.775L58.7072 47.8999C60.9804 49.7163 62.5685 52.2517 63.2105 55.0898L67.112 54.2072ZM67.1108 55.7544C67.2273 55.2443 67.2275 54.7146 67.1113 54.2045L63.2112 55.0925C63.194 55.0172 63.194 54.9391 63.2112 54.8638L67.1108 55.7544ZM66.4384 57.1508C66.7645 56.7417 66.9943 56.2644 67.1108 55.7544L63.2112 54.8638C63.2284 54.7885 63.2623 54.7181 63.3105 54.6577L66.4384 57.1508ZM65.2271 58.1177C65.6984 57.8904 66.1124 57.5599 66.4384 57.1508L63.3105 54.6577C63.3586 54.5973 63.4197 54.5485 63.4893 54.515L65.2271 58.1177ZM63.7164 58.4639C64.2396 58.4633 64.7559 58.345 65.2271 58.1177L63.4893 54.515C63.5588 54.4814 63.635 54.464 63.7122 54.4639L63.7164 58.4639ZM37.6871 58.4639H63.7143V54.4639H37.6871V58.4639ZM36.1743 58.1177C36.6455 58.345 37.1619 58.4633 37.6851 58.4639L37.6892 54.4639C37.7664 54.464 37.8426 54.4814 37.9122 54.515L36.1743 58.1177ZM34.963 57.1508C35.2891 57.5599 35.7031 57.8904 36.1743 58.1177L37.9122 54.515C37.9817 54.5485 38.0429 54.5973 38.091 54.6577L34.963 57.1508ZM34.2906 55.7544C34.4071 56.2644 34.6369 56.7417 34.963 57.1508L38.091 54.6577C38.1391 54.7181 38.173 54.7885 38.1902 54.8638L34.2906 55.7544Z" fill="#F4F0FF" mask="url(#path-4-outside-1)"/>
</svg>
