<svg width="34" height="35" viewBox="0 0 34 35" fill="none" xmlns="http://www.w3.org/2000/svg">
<path d="M33.7324 16.4729C33.7324 15.4967 33.3446 14.5606 32.6543 13.8703C31.9641 13.18 31.0279 12.7923 30.0517 12.7923H29.4383C29.2756 12.7923 29.1196 12.7276 29.0045 12.6126C28.8895 12.4975 28.8248 12.3415 28.8248 12.1788V11.8549C28.7777 8.80802 27.5242 5.90415 25.3393 3.77999C23.1545 1.65582 20.2164 0.484699 17.1694 0.52339C14.1224 0.484699 11.1844 1.65582 8.99949 3.77999C6.8146 5.90415 5.56117 8.80802 5.51399 11.8549V12.1788C5.51399 12.3415 5.44936 12.4975 5.33432 12.6126C5.21927 12.7276 5.06324 12.7923 4.90055 12.7923H4.2871C3.31093 12.7923 2.37474 13.18 1.68449 13.8703C0.994228 14.5606 0.606445 15.4967 0.606445 16.4729V21.3805C0.606445 22.3566 0.994228 23.2928 1.68449 23.9831C2.37474 24.6733 3.31093 25.0611 4.2871 25.0611H6.74088C7.39166 25.0611 8.01579 24.8026 8.47596 24.3424C8.93613 23.8823 9.19465 23.2581 9.19465 22.6073V11.8549C9.24103 9.78396 10.1064 7.81583 11.6012 6.38174C13.096 4.94766 15.0983 4.16457 17.1694 4.20405C19.2405 4.16457 21.2428 4.94766 22.7376 6.38174C24.2324 7.81583 25.0978 9.78396 25.1442 11.8549V26.288C25.1436 26.9818 24.908 27.655 24.4757 28.1978C24.0435 28.7405 23.4401 29.1209 22.764 29.2767C22.4353 28.7386 21.9738 28.2939 21.4238 27.9854C20.8738 27.6769 20.2538 27.5149 19.6232 27.5149H15.9425C14.9664 27.5149 14.0302 27.9027 13.3399 28.5929C12.6496 29.2832 12.2619 30.2194 12.2619 31.1956C12.2619 32.1717 12.6496 33.1079 13.3399 33.7982C14.0302 34.4884 14.9664 34.8762 15.9425 34.8762H19.6232C20.2774 34.8757 20.9196 34.7008 21.4837 34.3695C22.0478 34.0383 22.5135 33.5627 22.8327 32.9917C24.4799 32.8039 26.0006 32.0171 27.1055 30.781C28.2103 29.545 28.8223 27.9459 28.8248 26.288V25.6746C28.8248 25.5119 28.8895 25.3558 29.0045 25.2408C29.1196 25.1258 29.2756 25.0611 29.4383 25.0611H30.0517C31.0279 25.0611 31.9641 24.6733 32.6543 23.9831C33.3446 23.2928 33.7324 22.3566 33.7324 21.3805V16.4729Z" fill="white"/>
</svg>
