<svg width="184" height="184" viewBox="0 0 184 184" fill="none" xmlns="http://www.w3.org/2000/svg">
<rect width="184" height="184" fill="#F6F3FF"/>
<path d="M143.157 101.582C143.158 97.6233 141.931 93.7617 139.644 90.5303C137.357 87.2989 134.123 84.857 130.389 83.5415V80.3028C130.389 70.1442 126.354 60.4018 119.171 53.2186C111.988 46.0355 102.245 42 92.0867 42C81.9282 42 72.1858 46.0355 65.0026 53.2186C57.8194 60.4018 53.784 70.1442 53.784 80.3028V83.5415C50.0461 84.8592 46.8091 87.3042 44.5194 90.5392C42.2296 93.7742 41 97.64 41 101.603C41 105.567 42.2296 109.432 44.5194 112.668C46.8091 115.903 50.0461 118.348 53.784 119.665C54.7488 120.006 55.7815 120.111 56.7951 119.969C57.8086 119.827 58.7732 119.444 59.6077 118.852C60.4421 118.259 61.1219 117.475 61.5897 116.565C62.0575 115.655 62.2996 114.645 62.2957 113.622V80.3028C62.2957 76.3905 63.0663 72.5166 64.5634 68.9022C66.0605 65.2878 68.2549 62.0037 71.0213 59.2373C73.7876 56.471 77.0718 54.2766 80.6862 52.7794C84.3006 51.2823 88.1745 50.5117 92.0867 50.5117C95.9989 50.5117 99.8729 51.2823 103.487 52.7794C107.102 54.2766 110.386 56.471 113.152 59.2373C115.919 62.0037 118.113 65.2878 119.61 68.9022C121.107 72.5166 121.878 76.3905 121.878 80.3028V113.622C121.887 114.507 122.081 115.381 122.447 116.187C122.814 116.994 123.345 117.714 124.006 118.303V120.721C124.006 126.994 118.511 129.232 113.366 129.232H105.799C104.862 127.61 103.416 126.342 101.685 125.624C99.954 124.907 98.0346 124.782 96.2248 125.267C94.4149 125.752 92.8156 126.82 91.6749 128.307C90.5343 129.793 89.916 131.615 89.916 133.488C89.916 135.362 90.5343 137.183 91.6749 138.67C92.8156 140.156 94.4149 141.225 96.2248 141.71C98.0346 142.195 99.954 142.069 101.685 141.352C103.416 140.635 104.862 139.367 105.799 137.744H113.366C124.64 137.744 132.517 130.743 132.517 120.721V118.686C135.705 117.105 138.388 114.667 140.268 111.646C142.147 108.625 143.147 105.14 143.157 101.582V101.582Z" fill="#7545FF"/>
</svg>
