<svg width="48" height="48" viewBox="0 0 48 48" fill="none" xmlns="http://www.w3.org/2000/svg">
<path d="M2.89544 40.3136C3.94991 40.4503 5.64877 39.103 6.42986 38.1071C6.89461 37.5333 7.4805 37.0695 8.14556 36.7488C8.81062 36.4281 9.53838 36.2584 10.2767 36.252C11.0575 36.2517 11.8267 36.4407 12.5184 36.8027C12.6672 36.8806 12.8337 36.9188 13.0016 36.9137C13.1695 36.9085 13.3332 36.8601 13.477 36.7731C13.6207 36.6861 13.7395 36.5635 13.822 36.4171C13.9045 36.2708 13.9478 36.1056 13.9478 35.9376V35.3713C13.948 35.1761 14.0067 34.9854 14.1164 34.8239C14.226 34.6624 14.3815 34.5375 14.5629 34.4653L21.0069 31.8974C21.4885 31.7058 21.8743 31.3307 22.0794 30.8547C22.2844 30.3786 22.292 29.8406 22.1004 29.3589C21.9088 28.8773 21.5337 28.4915 21.0576 28.2864C20.5815 28.0813 20.0435 28.0738 19.5619 28.2654L11.544 31.4757C11.4293 31.5222 11.3066 31.5461 11.1828 31.546H2.23152C1.71363 31.546 1.21695 31.7517 0.850745 32.1179C0.484541 32.4841 0.278809 32.9808 0.278809 33.4987V39.3744C0.27868 39.5169 0.309749 39.6577 0.369834 39.7869C0.429919 39.9161 0.517563 40.0306 0.626612 40.1224C0.735662 40.2141 0.863472 40.2809 1.00107 40.318C1.13867 40.3551 1.28271 40.3616 1.4231 40.3371L2.89544 40.3136Z" fill="white"/>
<path d="M46.0014 40.265C46.1416 40.2892 46.2854 40.2824 46.4228 40.2452C46.5602 40.208 46.6877 40.1412 46.7965 40.0495C46.9053 39.9577 46.9928 39.8434 47.0528 39.7143C47.1128 39.5852 47.1438 39.4446 47.1437 39.3023V33.4989C47.1437 32.981 46.938 32.4843 46.5718 32.1181C46.2056 31.7519 45.7089 31.5461 45.191 31.5461H36.2398C36.1153 31.5464 35.9919 31.5225 35.8765 31.4758L27.8509 28.2656C27.6126 28.1689 27.3575 28.1204 27.1003 28.1232C26.8432 28.1259 26.5891 28.1797 26.3529 28.2814C26.1167 28.3832 25.9031 28.5308 25.7245 28.7158C25.5459 28.9008 25.4058 29.1195 25.3124 29.3591C25.1261 29.8412 25.1363 30.377 25.3408 30.8517C25.5452 31.3263 25.9276 31.7018 26.4059 31.8976L32.8498 34.4654C33.033 34.5361 33.1906 34.6604 33.3021 34.822C33.4136 34.9837 33.4737 35.1752 33.4747 35.3715V36.3947C33.4745 36.5821 33.5282 36.7656 33.6294 36.9233C33.7306 37.081 33.8751 37.2063 34.0456 37.2841C34.2161 37.3619 34.4053 37.3891 34.5908 37.3622C34.7763 37.3354 34.9501 37.2558 35.0916 37.1328C35.8786 36.4817 36.8895 36.1649 37.9074 36.2502C38.7472 36.2454 39.5739 36.4589 40.3064 36.8697C41.0389 37.2804 41.6522 37.8744 42.0862 38.5935C42.301 38.9059 43.4726 40.3705 44.5271 40.2338L46.0014 40.265Z" fill="white"/>
<path d="M4.18385 9.08568H11.0184C11.1848 9.08567 11.3486 9.04309 11.494 8.96197C11.6394 8.88086 11.7616 8.76391 11.8491 8.62224C11.9366 8.48057 11.9863 8.31889 11.9937 8.15255C12.0011 7.98622 11.9658 7.82077 11.8912 7.67191L8.47982 0.837415C8.38987 0.686072 8.26211 0.560719 8.10908 0.473658C7.95605 0.386597 7.78302 0.34082 7.60696 0.34082C7.4309 0.34082 7.25787 0.386597 7.10484 0.473658C6.95181 0.560719 6.82405 0.686072 6.7341 0.837415L3.31685 7.67191C3.24248 7.82032 3.20717 7.98524 3.21427 8.1511C3.22137 8.31695 3.27064 8.47825 3.35743 8.61976C3.44421 8.76127 3.56564 8.87832 3.71025 8.95984C3.85485 9.04137 4.01785 9.08468 4.18385 9.08568V9.08568Z" fill="white"/>
<path d="M3.20752 11.0381H11.9947V28.6125H3.20752V11.0381Z" fill="white"/>
<path d="M35.4277 11.0381H44.2149V28.6125H35.4277V11.0381Z" fill="white"/>
<path d="M36.4041 9.08545H43.2386C43.4051 9.08545 43.5688 9.04286 43.7142 8.96175C43.8596 8.88064 43.9818 8.76369 44.0693 8.62202C44.1568 8.48035 44.2066 8.31866 44.2139 8.15233C44.2213 7.986 44.186 7.82054 44.1114 7.67169L40.7 0.837191C40.6098 0.685878 40.4819 0.560584 40.3287 0.473574C40.1755 0.386564 40.0024 0.34082 39.8262 0.34082C39.65 0.34082 39.4769 0.386564 39.3237 0.473574C39.1705 0.560584 39.0426 0.685878 38.9524 0.837191L35.5351 7.67169C35.4607 7.82025 35.4254 7.98534 35.4326 8.15136C35.4397 8.31737 35.4892 8.4788 35.5762 8.62036C35.6632 8.76192 35.7849 8.87894 35.9298 8.96033C36.0747 9.04171 36.2379 9.08478 36.4041 9.08545Z" fill="white"/>
<path d="M13.9478 16.8965H33.4749V22.7546H13.9478V16.8965Z" fill="white"/>
<path d="M44.9255 43.1406C41.7582 43.5644 39.5965 40.1412 39.5829 40.1139C39.3916 39.8423 39.137 39.6213 38.8412 39.4701C38.5453 39.3189 38.2171 39.242 37.8849 39.2461C37.5527 39.2501 37.2265 39.335 36.9344 39.4933C36.6424 39.6517 36.3932 39.8787 36.2086 40.1549C35.6551 41.0507 34.8892 41.7962 33.9787 42.3251C33.0682 42.8541 32.0413 43.1503 30.989 43.1875C30.0439 43.1528 29.125 42.8675 28.3265 42.3607C27.528 41.8539 26.8786 41.1438 26.445 40.3033C26.2844 40.0113 26.0547 39.7631 25.776 39.5805C25.4972 39.3979 25.178 39.2863 24.8461 39.2557C24.5143 39.2251 24.18 39.2762 23.8725 39.4047C23.5651 39.5333 23.2938 39.7352 23.0824 39.9928C22.3824 40.9139 21.4943 41.6753 20.4771 42.2265C19.46 42.7776 18.3372 43.1059 17.1833 43.1894C16.134 43.1116 15.1166 42.7939 14.2096 42.2606C13.3026 41.7274 12.5302 40.9929 11.952 40.1139C11.7759 39.8569 11.5432 39.6438 11.2718 39.4909C11.0005 39.3379 10.6976 39.2493 10.3866 39.2317C10.0756 39.2142 9.7647 39.2682 9.47784 39.3897C9.19099 39.5111 8.93582 39.6968 8.73195 39.9323C8.70071 39.9694 5.79117 43.6425 2.5028 43.2207C2.24546 43.1787 1.98233 43.1887 1.72892 43.2501C1.47551 43.3115 1.23696 43.423 1.02734 43.578C0.817714 43.7331 0.641265 43.9285 0.508398 44.1529C0.375532 44.3772 0.288939 44.6259 0.253728 44.8842C0.218517 45.1426 0.2354 45.4054 0.303383 45.6571C0.371365 45.9088 0.489069 46.1443 0.649552 46.3498C0.810034 46.5553 1.01005 46.7266 1.23779 46.8536C1.46553 46.9805 1.71639 47.0606 1.97557 47.089C2.33273 47.1385 2.69289 47.1633 3.05346 47.1632C5.57822 47.0435 7.98125 46.0431 9.845 44.3357C9.93564 44.2585 10.0514 44.2171 10.1704 44.2192C10.2894 44.2214 10.4036 44.267 10.4913 44.3474C12.2924 46.0794 14.6848 47.0616 17.1833 47.0949C19.7302 47.0521 22.1829 46.125 24.1213 44.4724C24.2144 44.3959 24.3326 44.3565 24.453 44.3619C24.5734 44.3674 24.6876 44.4171 24.7735 44.5017C25.5849 45.3289 26.5542 45.9848 27.6239 46.4303C28.6936 46.8757 29.8419 47.1017 31.0007 47.0949C33.4473 47.0924 35.8028 46.167 37.597 44.5036C37.6871 44.422 37.8044 44.3768 37.926 44.3768C38.0476 44.3768 38.1649 44.422 38.255 44.5036C39.1911 45.4354 40.3253 46.1443 41.5731 46.5773C42.821 47.0104 44.1504 47.1566 45.4625 47.005C45.7211 46.9758 45.9713 46.8952 46.1983 46.7679C46.4254 46.6406 46.6247 46.4691 46.7845 46.2637C46.9443 46.0583 47.0614 45.823 47.129 45.5716C47.1966 45.3202 47.2132 45.0579 47.1779 44.8C47.1427 44.5421 47.0562 44.2939 46.9236 44.0699C46.791 43.8459 46.615 43.6507 46.4058 43.4958C46.1967 43.3408 45.9587 43.2292 45.7058 43.1675C45.4529 43.1059 45.1903 43.0954 44.9333 43.1367L44.9255 43.1406Z" fill="white"/>
</svg>
