<svg width="80" height="80" viewBox="0 0 80 80" fill="none" xmlns="http://www.w3.org/2000/svg">
<rect width="80" height="80" fill="#F4F0FF"/>
<path d="M43.8014 59.3799H36.1996C36.0267 59.3799 35.8568 59.4241 35.7058 59.5083C35.5549 59.5925 35.428 59.7139 35.3372 59.861C35.2464 60.0081 35.1947 60.1759 35.187 60.3486C35.1794 60.5212 35.216 60.693 35.2934 60.8475L35.9746 62.2078C36.3089 62.8817 36.8252 63.4487 37.4651 63.8446C38.1049 64.2404 38.8427 64.4494 39.5951 64.4478H40.4059C41.1575 64.4504 41.8949 64.2431 42.535 63.8491C43.175 63.4551 43.6923 62.8901 44.0284 62.2179L44.7096 60.8577C44.7871 60.703 44.8237 60.531 44.8159 60.3582C44.8082 60.1854 44.7563 60.0174 44.6653 59.8703C44.5743 59.7231 44.4471 59.6018 44.2958 59.5177C44.1446 59.4336 43.9744 59.3897 43.8014 59.39V59.3799Z" fill="#7545FF"/>
<path d="M40.0003 24.9181C40.5379 24.9181 41.0535 24.7045 41.4337 24.3243C41.8139 23.9442 42.0274 23.4286 42.0274 22.8909V17.823C42.0274 17.2854 41.8139 16.7698 41.4337 16.3896C41.0535 16.0095 40.5379 15.7959 40.0003 15.7959C39.4627 15.7959 38.947 16.0095 38.5669 16.3896C38.1867 16.7698 37.9731 17.2854 37.9731 17.823V22.8909C37.9731 23.4286 38.1867 23.9442 38.5669 24.3243C38.947 24.7045 39.4627 24.9181 40.0003 24.9181Z" fill="#7545FF"/>
<path d="M58.6341 23.5154C58.254 23.1354 57.7385 22.9219 57.2009 22.9219C56.6634 22.9219 56.1479 23.1354 55.7677 23.5154L52.1858 27.0994C51.9921 27.2864 51.8377 27.5101 51.7315 27.7574C51.6252 28.0047 51.5693 28.2707 51.567 28.5399C51.5646 28.8091 51.6159 29.076 51.7178 29.3251C51.8198 29.5742 51.9703 29.8006 52.1606 29.9909C52.351 30.1813 52.5773 30.3318 52.8264 30.4337C53.0756 30.5356 53.3425 30.5869 53.6117 30.5846C53.8808 30.5822 54.1468 30.5263 54.3941 30.4201C54.6415 30.3138 54.8651 30.1594 55.0521 29.9658L58.6341 26.3818C59.0142 26.0016 59.2276 25.4861 59.2276 24.9486C59.2276 24.4111 59.0142 23.8955 58.6341 23.5154V23.5154Z" fill="#7545FF"/>
<path d="M62.2987 40.1211H58.2444C57.7068 40.1211 57.1912 40.3347 56.811 40.7148C56.4309 41.095 56.2173 41.6106 56.2173 42.1482C56.2173 42.6859 56.4309 43.2015 56.811 43.5817C57.1912 43.9618 57.7068 44.1754 58.2444 44.1754H62.2987C62.8364 44.1754 63.352 43.9618 63.7321 43.5817C64.1123 43.2015 64.3259 42.6859 64.3259 42.1482C64.3259 41.6106 64.1123 41.095 63.7321 40.7148C63.352 40.3347 62.8364 40.1211 62.2987 40.1211Z" fill="#7545FF"/>
<path d="M27.8173 27.0993L24.2333 23.5153C23.851 23.1461 23.3389 22.9417 22.8074 22.9464C22.2759 22.951 21.7674 23.1642 21.3916 23.54C21.0157 23.9159 20.8025 24.4243 20.7979 24.9558C20.7933 25.4873 20.9976 25.9994 21.3669 26.3817L24.9509 29.9657C25.3332 30.335 25.8453 30.5393 26.3768 30.5347C26.9083 30.5301 27.4167 30.3169 27.7926 29.941C28.1684 29.5652 28.3816 29.0567 28.3863 28.5252C28.3909 27.9937 28.1865 27.4817 27.8173 27.0993Z" fill="#7545FF"/>
<path d="M21.7558 40.1211H17.7015C17.1638 40.1211 16.6482 40.3347 16.2681 40.7148C15.8879 41.095 15.6743 41.6106 15.6743 42.1482C15.6743 42.6859 15.8879 43.2015 16.2681 43.5817C16.6482 43.9618 17.1638 44.1754 17.7015 44.1754H21.7558C22.2934 44.1754 22.809 43.9618 23.1892 43.5817C23.5693 43.2015 23.7829 42.6859 23.7829 42.1482C23.7829 41.6106 23.5693 41.095 23.1892 40.7148C22.809 40.3347 22.2934 40.1211 21.7558 40.1211Z" fill="#7545FF"/>
<path d="M39.9997 27.959C37.1984 27.9631 34.4713 28.86 32.2143 30.5193C29.9573 32.1787 28.2878 34.5142 27.4483 37.1868C26.6089 39.8594 26.643 42.73 27.5458 45.3818C28.4486 48.0337 30.173 50.3289 32.4688 51.9341C32.6034 52.0274 32.7133 52.152 32.7892 52.2971C32.8651 52.4422 32.9047 52.6035 32.9047 52.7673V54.3119C32.9047 54.8496 33.1182 55.3652 33.4984 55.7454C33.8786 56.1255 34.3942 56.3391 34.9318 56.3391H45.0676C45.6052 56.3391 46.1208 56.1255 46.501 55.7454C46.8811 55.3652 47.0947 54.8496 47.0947 54.3119V52.7652C47.0947 52.6015 47.1343 52.4401 47.2102 52.295C47.2861 52.15 47.396 52.0254 47.5306 51.9321C49.8322 50.3302 51.5622 48.0354 52.4688 45.3819C53.3753 42.7283 53.411 39.8546 52.5706 37.1794C51.7302 34.5041 50.0576 32.1671 47.7965 30.5086C45.5354 28.8502 42.8038 27.9569 39.9997 27.959V27.959Z" fill="#7545FF"/>
</svg>
