<svg width="47" height="44" viewBox="0 0 47 44" fill="none" xmlns="http://www.w3.org/2000/svg">
<path d="M0.498572 23.2863C0.253939 23.5646 0.0942105 23.9073 0.0383038 24.2736C-0.017603 24.64 0.0326547 25.0147 0.183124 25.3533C0.333594 25.692 0.577971 25.9804 0.887312 26.1845C1.19665 26.3885 1.55799 26.4997 1.92854 26.5047H10.1191C10.2469 26.5047 10.3694 26.5554 10.4598 26.6458C10.5501 26.7362 10.6009 26.8587 10.6009 26.9865V31.9875C10.6007 32.0962 10.6374 32.2016 10.705 32.2867C10.7725 32.3718 10.867 32.4314 10.9728 32.4558C12.1051 32.7146 13.1065 33.3719 13.7942 34.3078C13.8256 34.3518 13.8665 34.3882 13.9139 34.4142C13.9613 34.4402 14.0139 34.4552 14.0679 34.4582C14.1219 34.461 14.1759 34.4517 14.2259 34.431C14.2759 34.4104 14.3207 34.3788 14.3569 34.3387C14.4148 34.2818 14.4497 34.2057 14.4552 34.1248V26.9942C14.4552 26.8664 14.506 26.7439 14.5963 26.6535C14.6867 26.5632 14.8092 26.5124 14.937 26.5124H31.3181C31.4459 26.5124 31.5684 26.5632 31.6588 26.6535C31.7491 26.7439 31.7999 26.8664 31.7999 26.9942V34.7819C31.7999 34.8794 31.8295 34.9746 31.8847 35.0549C31.94 35.1352 32.0183 35.1969 32.1093 35.2318C32.2004 35.2666 32.2999 35.2731 32.3946 35.2502C32.4894 35.2274 32.575 35.1763 32.6401 35.1038C32.7691 34.963 32.8858 34.8115 32.989 34.6509C33.5136 33.7235 34.3481 33.0105 35.3459 32.637C35.4366 32.602 35.5146 32.5404 35.5696 32.4602C35.6247 32.3801 35.6542 32.2852 35.6543 32.1879V26.9846C35.6543 26.8568 35.705 26.7342 35.7954 26.6439C35.8857 26.5535 36.0083 26.5028 36.136 26.5028H44.3266C44.6996 26.503 45.0648 26.3949 45.3776 26.1916C45.6904 25.9884 45.9376 25.6987 46.089 25.3577C46.2404 25.0167 46.2896 24.6391 46.2305 24.2708C46.1715 23.9024 46.0069 23.5591 45.7565 23.2824C45.666 23.1822 36.6718 13.1204 36.6718 3.37656C36.6522 2.6119 36.3347 1.88515 35.7869 1.35126C35.2391 0.817364 34.5045 0.518564 33.7396 0.518564C32.9747 0.518564 32.24 0.817364 31.6923 1.35126C31.1445 1.88515 30.827 2.6119 30.8074 3.37656C30.8074 9.77095 26.4712 16.3426 23.5072 20.0872C23.4621 20.1445 23.4046 20.1908 23.339 20.2227C23.2734 20.2545 23.2014 20.2711 23.1285 20.2711C23.0556 20.2711 22.9836 20.2545 22.918 20.2227C22.8524 20.1908 22.7949 20.1445 22.7498 20.0872C19.7839 16.3446 15.4477 9.77288 15.4477 3.37848C15.4477 2.60056 15.1387 1.8545 14.5886 1.30442C14.0386 0.754342 13.2925 0.445313 12.5146 0.445312C11.7366 0.445313 10.9906 0.754342 10.4405 1.30442C9.89042 1.8545 9.58139 2.60056 9.58139 3.37848C9.58139 13.1011 0.58915 23.1841 0.498572 23.2863ZM35.6543 16.8244C35.6551 16.7171 35.6917 16.613 35.7582 16.5287C35.8247 16.4444 35.9173 16.3846 36.0216 16.3587C36.1258 16.3329 36.2357 16.3425 36.3339 16.386C36.4321 16.4295 36.513 16.5044 36.5639 16.599C37.5275 18.4295 38.6064 20.1971 39.7938 21.891C39.8436 21.9627 39.873 22.0466 39.879 22.1337C39.885 22.2208 39.8673 22.3079 39.8277 22.3857C39.7882 22.4635 39.7284 22.5292 39.6546 22.5758C39.5807 22.6224 39.4957 22.6482 39.4084 22.6503H36.1341C36.0063 22.6503 35.8838 22.5996 35.7934 22.5092C35.7031 22.4188 35.6523 22.2963 35.6523 22.1685L35.6543 16.8244ZM27.0185 21.8737C28.4538 20.0114 29.7492 18.0454 30.8941 15.9919C30.9457 15.8982 31.027 15.8243 31.1252 15.7819C31.2234 15.7395 31.3329 15.731 31.4365 15.7578C31.5401 15.7845 31.6318 15.8449 31.6973 15.9295C31.7627 16.0141 31.7981 16.1181 31.798 16.2251V22.1743C31.798 22.3021 31.7472 22.4246 31.6568 22.515C31.5665 22.6053 31.4439 22.6561 31.3162 22.6561H27.3982C27.3074 22.6563 27.2183 22.6309 27.1412 22.5829C27.0641 22.5348 27.0021 22.4661 26.9623 22.3844C26.9225 22.3028 26.9065 22.2116 26.9161 22.1212C26.9257 22.0309 26.9605 21.9451 27.0166 21.8737H27.0185ZM14.4552 16.2193C14.4571 16.1135 14.4937 16.0112 14.5595 15.9282C14.6253 15.8453 14.7165 15.7863 14.8192 15.7604C14.9218 15.7346 15.0301 15.7432 15.1274 15.785C15.2246 15.8269 15.3054 15.8996 15.3572 15.9919C16.5038 18.0471 17.8004 20.015 19.2366 21.8794C19.2895 21.9512 19.3216 22.0362 19.3293 22.1251C19.3369 22.2139 19.3199 22.3032 19.28 22.3829C19.2401 22.4627 19.1789 22.5299 19.1032 22.5771C19.0276 22.6243 18.9403 22.6496 18.8511 22.6503H14.937C14.8092 22.6503 14.6867 22.5996 14.5963 22.5092C14.506 22.4188 14.4552 22.2963 14.4552 22.1685V16.2193ZM6.46128 21.891C7.64877 20.1971 8.72759 18.4295 9.69124 16.599C9.74206 16.5045 9.82281 16.4297 9.92081 16.3862C10.0188 16.3426 10.1285 16.3329 10.2326 16.3585C10.3368 16.3841 10.4294 16.4435 10.4961 16.5275C10.5627 16.6115 10.5996 16.7153 10.6009 16.8225V22.1685C10.6009 22.2963 10.5501 22.4188 10.4598 22.5092C10.3694 22.5996 10.2469 22.6503 10.1191 22.6503H6.85635C6.76826 22.6499 6.68197 22.6254 6.60678 22.5795C6.53159 22.5336 6.47036 22.468 6.4297 22.3899C6.38904 22.3117 6.37049 22.224 6.37606 22.136C6.38162 22.0481 6.41109 21.9634 6.46128 21.891Z" fill="white"/>
<path d="M2.73112 43.0591C2.37533 43.0589 2.01994 43.0351 1.66732 42.9878C1.1608 42.9188 0.702431 42.6514 0.393058 42.2444C0.0836853 41.8375 -0.0513541 41.3243 0.0176472 40.8178C0.0866485 40.3112 0.354038 39.8529 0.760994 39.5435C1.16795 39.2341 1.68113 39.0991 2.18766 39.1681C5.41183 39.6094 8.30261 35.9632 8.33152 35.9266C8.532 35.6928 8.78359 35.5084 9.06681 35.3876C9.35002 35.2667 9.65726 35.2127 9.96472 35.2296C10.2722 35.2466 10.5716 35.3341 10.8398 35.4853C11.108 35.6366 11.3378 35.8476 11.5114 36.1019C12.0828 36.9688 12.8453 37.6931 13.7403 38.2193C14.6353 38.7454 15.639 39.0595 16.6743 39.1373C17.8131 39.0548 18.9212 38.7308 19.9251 38.1869C20.9289 37.6429 21.8054 36.8915 22.4963 35.9825C22.7053 35.7286 22.9733 35.5297 23.2768 35.4032C23.5804 35.2767 23.9103 35.2263 24.2377 35.2565C24.5652 35.2868 24.8803 35.3966 25.1555 35.5766C25.4308 35.7565 25.6578 36.001 25.8169 36.2889C26.245 37.1208 26.8875 37.8234 27.6778 38.3241C28.4682 38.8248 29.3779 39.1055 30.313 39.1373C31.3511 39.1008 32.3641 38.8085 33.2621 38.2864C34.1601 37.7643 34.9152 37.0285 35.4605 36.1443C35.6422 35.8721 35.8875 35.6481 36.1751 35.4919C36.4628 35.3357 36.7842 35.2518 37.1115 35.2477C37.4388 35.2435 37.7622 35.3191 38.0538 35.4679C38.3453 35.6168 38.5963 35.8344 38.7849 36.1019C38.8003 36.127 40.9529 39.5169 44.0615 39.0891C44.3155 39.0477 44.5752 39.0575 44.8253 39.1181C45.0753 39.1787 45.3108 39.2887 45.5177 39.4417C45.7245 39.5948 45.8987 39.7877 46.0298 40.0091C46.1609 40.2305 46.2464 40.4759 46.2812 40.7309C46.3159 40.9858 46.2992 41.2452 46.2322 41.4936C46.1651 41.742 46.0489 41.9745 45.8905 42.1773C45.7321 42.3801 45.5347 42.5492 45.31 42.6745C45.0852 42.7997 44.8376 42.8788 44.5818 42.9068C43.2115 43.0562 41.8252 42.8829 40.5338 42.4007C39.2425 41.9185 38.0818 41.1408 37.1448 40.1298C36.2501 41.033 35.1859 41.7507 34.0132 42.2418C32.8405 42.7329 31.5824 42.9877 30.311 42.9916C29.0933 42.9967 27.8883 42.7429 26.776 42.2472C25.6636 41.7515 24.6693 41.0252 23.8588 40.1163C21.893 41.916 19.339 42.9381 16.6743 42.9916C15.3804 42.9701 14.1036 42.6932 12.9169 42.177C11.7303 41.6607 10.6573 40.9152 9.75956 39.9833C7.8659 41.8249 5.36884 42.9177 2.73112 43.0591V43.0591Z" fill="white"/>
</svg>
