<svg width="64" height="64" viewBox="0 0 64 64" fill="none" xmlns="http://www.w3.org/2000/svg">
<rect width="64" height="64" fill="#F4F0FF"/>
<path d="M51.2396 37.3921L47.8621 35.4449C48.373 33.1793 48.373 30.8285 47.8621 28.5629L51.2206 26.6125C51.4008 26.5079 51.5587 26.3687 51.6851 26.2031C51.8115 26.0374 51.904 25.8484 51.9573 25.6469C52.0106 25.4454 52.0237 25.2354 51.9958 25.0289C51.9679 24.8224 51.8995 24.6234 51.7946 24.4433L48.5789 18.9314C48.3692 18.571 48.026 18.3076 47.6235 18.1984C47.2211 18.0892 46.7918 18.1429 46.4287 18.3479L42.9401 20.33C41.2969 18.5557 39.1344 17.3468 36.7623 16.8764V12.9724C36.7623 12.5519 36.5952 12.1485 36.2978 11.8512C36.0005 11.5538 35.5971 11.3867 35.1766 11.3867H28.8338C28.4133 11.3867 28.0099 11.5538 27.7126 11.8512C27.4152 12.1485 27.2481 12.5519 27.2481 12.9724V16.8732C24.8898 17.3534 22.742 18.5627 21.1083 20.33L17.6071 18.3638C17.244 18.1588 16.8147 18.1051 16.4122 18.2143C16.0098 18.3235 15.6666 18.5868 15.4569 18.9473L12.2411 24.4433C12.1362 24.6234 12.0679 24.8224 12.04 25.0289C12.0121 25.2354 12.0252 25.4454 12.0785 25.6469C12.1318 25.8484 12.2243 26.0374 12.3507 26.2031C12.4771 26.3687 12.6349 26.5079 12.8151 26.6125L16.1736 28.5629C15.6611 30.8283 15.6611 33.1795 16.1736 35.4449L12.7707 37.3921C12.59 37.4962 12.4316 37.635 12.3045 37.8004C12.1775 37.9659 12.0844 38.1548 12.0304 38.3563C11.9765 38.5578 11.9629 38.7679 11.9903 38.9747C12.0178 39.1815 12.0858 39.3808 12.1904 39.5613L15.3618 45.0732C15.5698 45.4336 15.9112 45.6977 16.3123 45.8087C16.7133 45.9196 17.1419 45.8684 17.5056 45.6662L21.0956 43.6714C22.7327 45.4422 24.885 46.6537 27.2481 47.1346V51.029C27.2481 51.4496 27.4152 51.8529 27.7126 52.1503C28.0099 52.4477 28.4133 52.6147 28.8338 52.6147H35.1766C35.5971 52.6147 36.0005 52.4477 36.2978 52.1503C36.5952 51.8529 36.7623 51.4496 36.7623 51.029V47.1346C39.1206 46.6544 41.2684 45.4451 42.9021 43.6778L46.4953 45.6726C46.8589 45.8748 47.2875 45.9259 47.6886 45.815C48.0897 45.7041 48.4311 45.4399 48.6391 45.0795L51.8105 39.5677C51.9151 39.3872 51.9831 39.1878 52.0105 38.9811C52.038 38.7743 52.0243 38.5641 51.9704 38.3626C51.9165 38.1611 51.8234 37.9722 51.6963 37.8068C51.5693 37.6413 51.4109 37.5025 51.2301 37.3984L51.2396 37.3921ZM32.0052 39.9292C30.4371 39.9292 28.9042 39.4642 27.6004 38.593C26.2965 37.7218 25.2803 36.4836 24.6802 35.0348C24.0802 33.5861 23.9231 31.9919 24.2291 30.454C24.535 28.916 25.2901 27.5033 26.3989 26.3945C27.5077 25.2856 28.9205 24.5305 30.4584 24.2246C31.9964 23.9187 33.5905 24.0757 35.0393 24.6758C36.488 25.2759 37.7263 26.2921 38.5975 27.5959C39.4687 28.8997 39.9337 30.4326 39.9337 32.0007C39.9337 34.1035 39.0983 36.1201 37.6115 37.607C36.1246 39.0939 34.108 39.9292 32.0052 39.9292V39.9292Z" fill="#7545FF"/>
</svg>
