<svg width="31" height="38" viewBox="0 0 31 38" fill="none" xmlns="http://www.w3.org/2000/svg">
<path d="M30.8664 28.5516C30.8665 28.4747 30.8448 28.3994 30.8037 28.3344C30.7627 28.2694 30.7041 28.2174 30.6347 28.1844C30.5653 28.1514 30.4879 28.1387 30.4116 28.1479C30.3353 28.1572 30.2632 28.1878 30.2036 28.2364C27.0568 30.7983 21.1191 32.1516 15.4332 32.1516C9.74729 32.1516 3.80795 30.7983 0.661199 28.2364C0.601805 28.1876 0.52975 28.1568 0.453467 28.1475C0.377184 28.1382 0.29983 28.1508 0.23046 28.1839C0.161089 28.217 0.102573 28.2691 0.061761 28.3342C0.0209485 28.3993 -0.00047172 28.4747 7.88062e-06 28.5516V31.3393C7.88062e-06 34.9295 6.91083 37.8375 15.4332 37.8375C23.9556 37.8375 30.8664 34.9295 30.8664 31.3393V28.5516Z" fill="#7545FF"/>
<path d="M7.88062e-06 23.27C7.88062e-06 26.8602 6.91083 29.7681 15.4332 29.7681C23.9556 29.7681 30.8664 26.8602 30.8664 23.27V20.4822C30.8665 20.4054 30.8448 20.3301 30.8037 20.2651C30.7627 20.2001 30.7041 20.148 30.6347 20.115C30.5653 20.082 30.4879 20.0694 30.4116 20.0786C30.3353 20.0878 30.2632 20.1185 30.2036 20.1671C27.0568 22.729 21.1191 24.0822 15.4332 24.0822C9.74729 24.0822 3.80795 22.729 0.661199 20.1671C0.601805 20.1183 0.52975 20.0875 0.453467 20.0782C0.377184 20.0689 0.29983 20.0815 0.23046 20.1146C0.161089 20.1476 0.102573 20.1998 0.061761 20.2649C0.0209485 20.33 -0.00047172 20.4054 7.88062e-06 20.4822V23.27Z" fill="#7545FF"/>
<path d="M15.4332 16.0145C9.74729 16.0145 3.80795 14.6613 0.661199 12.0977C0.601805 12.049 0.52975 12.0181 0.453467 12.0088C0.377184 11.9995 0.29983 12.0122 0.23046 12.0452C0.161089 12.0783 0.102573 12.1304 0.061761 12.1955C0.0209485 12.2607 -0.00047172 12.3361 7.88062e-06 12.4129V15.2022C7.88062e-06 18.7925 6.91083 21.7004 15.4332 21.7004C23.9556 21.7004 30.8664 18.7925 30.8664 15.2022V12.4145C30.8662 12.3378 30.8442 12.2627 30.8031 12.1979C30.7619 12.1332 30.7033 12.0814 30.6339 12.0486C30.5646 12.0158 30.4874 12.0033 30.4112 12.0126C30.335 12.0218 30.2631 12.0525 30.2036 12.101C27.0552 14.6629 21.1191 16.0145 15.4332 16.0145Z" fill="#7545FF"/>
<path d="M15.4332 13.6302C23.9567 13.6302 30.8664 10.7208 30.8664 7.13198C30.8664 3.54313 23.9567 0.633789 15.4332 0.633789C6.90968 0.633789 0 3.54313 0 7.13198C0 10.7208 6.90968 13.6302 15.4332 13.6302Z" fill="#7545FF"/>
</svg>
