<svg width="184" height="184" viewBox="0 0 184 184" fill="none" xmlns="http://www.w3.org/2000/svg">
<rect width="184" height="184" fill="#F6F3FF"/>
<path d="M131.535 113.073C131.535 112.875 131.479 112.68 131.373 112.513C131.268 112.345 131.117 112.211 130.938 112.126C130.759 112.041 130.56 112.009 130.363 112.033C130.166 112.056 129.98 112.135 129.827 112.26C121.719 118.862 106.419 122.349 91.7675 122.349C77.1163 122.349 61.8121 118.862 53.7037 112.26C53.5507 112.135 53.365 112.055 53.1685 112.031C52.9719 112.007 52.7726 112.04 52.5938 112.125C52.4151 112.21 52.2643 112.345 52.1591 112.513C52.054 112.68 51.9988 112.875 52 113.073V120.256C52 129.507 69.8075 137 91.7675 137C113.727 137 131.535 129.507 131.535 120.256V113.073Z" fill="#7545FF"/>
<path d="M52 101.419C52 110.67 69.8075 118.163 91.7675 118.163C113.727 118.163 131.535 110.67 131.535 101.419V94.2354C131.535 94.0373 131.479 93.8433 131.373 93.6758C131.268 93.5083 131.117 93.3742 130.938 93.2892C130.759 93.2041 130.56 93.1716 130.363 93.1953C130.166 93.219 129.98 93.2981 129.827 93.4233C121.719 100.025 106.419 103.512 91.7675 103.512C77.1163 103.512 61.8121 100.025 53.7037 93.4233C53.5507 93.2976 53.365 93.2181 53.1685 93.1942C52.9719 93.1702 52.7726 93.2027 52.5938 93.2879C52.4151 93.3731 52.2643 93.5075 52.1591 93.6753C52.054 93.8431 51.9988 94.0373 52 94.2354V101.419Z" fill="#7545FF"/>
<path d="M91.7675 84.6745C77.1163 84.6745 61.8121 81.1875 53.7037 74.582C53.5507 74.4563 53.365 74.3768 53.1685 74.3529C52.9719 74.3289 52.7726 74.3614 52.5938 74.4466C52.4151 74.5318 52.2643 74.6662 52.1591 74.834C52.054 75.0018 51.9988 75.196 52 75.394V82.5815C52 91.8327 69.8075 99.3257 91.7675 99.3257C113.727 99.3257 131.535 91.8327 131.535 82.5815V75.3982C131.534 75.2005 131.478 75.007 131.372 74.8402C131.266 74.6733 131.115 74.5399 130.936 74.4553C130.757 74.3708 130.558 74.3386 130.362 74.3625C130.166 74.3864 129.98 74.4654 129.827 74.5903C121.714 81.1917 106.419 84.6745 91.7675 84.6745Z" fill="#7545FF"/>
<path d="M91.7674 80.4884C113.73 80.4884 131.535 72.9917 131.535 63.7442C131.535 54.4966 113.73 47 91.7674 47C69.8045 47 52 54.4966 52 63.7442C52 72.9917 69.8045 80.4884 91.7674 80.4884Z" fill="#7545FF"/>
</svg>
