<svg width="41" height="41" viewBox="0 0 41 41" fill="none" xmlns="http://www.w3.org/2000/svg">
<path d="M20.5668 0.890625C19.9673 0.890625 19.3923 1.12879 18.9684 1.55274C18.5444 1.97668 18.3062 2.55167 18.3062 3.15122C18.3062 3.75076 18.5444 4.32575 18.9684 4.7497C19.3923 5.17364 19.9673 5.41181 20.5668 5.41181C23.6036 5.41181 26.5723 6.31233 29.0973 7.99949C31.6223 9.68665 33.5903 12.0847 34.7525 14.8903C35.9146 17.696 36.2187 20.7832 35.6262 23.7617C35.0338 26.7402 33.5714 29.4761 31.424 31.6234C29.2767 33.7708 26.5408 35.2331 23.5623 35.8256C20.5839 36.418 17.4966 36.114 14.691 34.9518C11.8853 33.7897 9.48728 31.8217 7.80011 29.2967C6.11295 26.7716 5.21243 23.803 5.21243 20.7662C5.23429 18.4325 5.70266 16.1245 6.59227 13.9668L8.28331 15.1412C8.65117 15.3917 9.08595 15.5257 9.53104 15.5258C9.95776 15.5267 10.3753 15.4022 10.7318 15.1676C11.0974 14.9293 11.3841 14.5878 11.5556 14.1864C11.727 13.785 11.7754 13.3418 11.6947 12.9129L10.541 6.80633C10.4324 6.23819 10.1052 5.73535 9.62978 5.40594C9.15433 5.07653 8.56859 4.94686 7.99853 5.04483L1.83329 6.11641C1.40138 6.18974 1.00116 6.39025 0.683832 6.69228C0.366501 6.99432 0.146481 7.38415 0.0519132 7.81191C-0.0426546 8.23967 -0.0074706 8.68592 0.152965 9.09357C0.3134 9.50123 0.591794 9.85176 0.952537 10.1003L2.77569 11.3539C1.41897 14.3073 0.708326 17.5162 0.691247 20.7662C0.691247 24.6972 1.85693 28.54 4.04089 31.8085C6.22484 35.077 9.32899 37.6245 12.9608 39.1289C16.5926 40.6332 20.5889 41.0268 24.4444 40.2599C28.2999 39.493 31.8413 37.6 34.621 34.8204C37.4006 32.0407 39.2936 28.4992 40.0605 24.6437C40.8274 20.7883 40.4338 16.7919 38.9295 13.1602C37.4251 9.52837 34.8776 6.42422 31.6091 4.24027C28.3406 2.05631 24.4979 0.890625 20.5668 0.890625V0.890625Z" fill="white"/>
<path d="M26.4388 27.3718C26.0973 27.3723 25.7605 27.2928 25.4553 27.1398L19.5836 24.204C19.2178 24.021 18.9101 23.7398 18.6949 23.3919C18.4797 23.044 18.3656 22.6431 18.3652 22.2341V12.6926C18.3652 12.1086 18.5972 11.5486 19.0101 11.1356C19.4231 10.7227 19.9831 10.4907 20.5671 10.4907C21.1511 10.4907 21.7111 10.7227 22.1241 11.1356C22.537 11.5486 22.769 12.1086 22.769 12.6926V20.8748L27.4252 23.1999C27.8693 23.4217 28.2254 23.787 28.4358 24.2365C28.6462 24.6861 28.6986 25.1935 28.5844 25.6766C28.4701 26.1596 28.1961 26.5899 27.8066 26.8976C27.4171 27.2053 26.9351 27.3724 26.4388 27.3718Z" fill="white"/>
</svg>
