<svg width="32" height="29" viewBox="0 0 32 29" fill="none" xmlns="http://www.w3.org/2000/svg">
<path d="M21.1478 4.30803e-07C20.5809 -0.000213728 20.0168 0.0794197 19.4722 0.236554C19.3905 0.260089 19.3154 0.302327 19.2528 0.359921C19.1903 0.417514 19.142 0.488882 19.1118 0.56837C19.0816 0.647857 19.0704 0.733281 19.079 0.817873C19.0875 0.902465 19.1157 0.983901 19.1612 1.05573C20.1012 2.54208 20.6002 4.26467 20.6002 6.02335C20.6002 7.78204 20.1012 9.50462 19.1612 10.991C19.1157 11.0628 19.0875 11.1442 19.079 11.2288C19.0704 11.3134 19.0816 11.3989 19.1118 11.4783C19.142 11.5578 19.1903 11.6292 19.2528 11.6868C19.3154 11.7444 19.3905 11.7866 19.4722 11.8102C20.3005 12.0494 21.1704 12.108 22.0233 11.9821C22.8762 11.8562 23.6922 11.5487 24.416 11.0803C25.1398 10.6119 25.7546 9.99358 26.2189 9.26714C26.6832 8.5407 26.9861 7.72305 27.1072 6.86945C27.2284 6.01586 27.1648 5.14622 26.9209 4.3193C26.677 3.49238 26.2584 2.72745 25.6934 2.07622C25.1285 1.42499 24.4303 0.902629 23.6461 0.544443C22.8619 0.186258 22.0099 0.000593843 21.1478 4.30803e-07V4.30803e-07Z" fill="white"/>
<path d="M22.1711 15.3804C21.9214 15.3563 21.6717 15.3432 21.4264 15.3366C21.3181 15.3337 21.2114 15.363 21.1198 15.4208C21.0282 15.4786 20.9557 15.5622 20.9116 15.6612C20.8676 15.7601 20.8538 15.8699 20.8722 15.9767C20.8905 16.0834 20.9401 16.1824 21.0146 16.2609C23.5594 18.9378 24.9793 22.4896 24.9813 26.183C24.9831 26.7215 24.9094 27.2575 24.7623 27.7754C24.7386 27.8567 24.7343 27.9423 24.7495 28.0256C24.7647 28.1088 24.799 28.1874 24.8499 28.2551C24.9011 28.3228 24.9673 28.3778 25.0433 28.4158C25.1193 28.4538 25.203 28.4738 25.2879 28.4741H29.3619C29.9428 28.4741 30.4999 28.2433 30.9107 27.8326C31.3215 27.4218 31.5522 26.8647 31.5522 26.2838V26.183C31.5958 23.5425 30.6621 20.9791 28.9305 18.9851C27.1989 16.9912 24.7917 15.7074 22.1711 15.3804V15.3804Z" fill="white"/>
<path d="M5.26855 6.02335C5.26855 7.62085 5.90316 9.15291 7.03275 10.2825C8.16235 11.4121 9.69442 12.0467 11.2919 12.0467C12.8894 12.0467 14.4215 11.4121 15.5511 10.2825C16.6807 9.15291 17.3153 7.62085 17.3153 6.02335C17.3153 4.42586 16.6807 2.8938 15.5511 1.7642C14.4215 0.634602 12.8894 0 11.2919 0C9.69442 0 8.16235 0.634602 7.03275 1.7642C5.90316 2.8938 5.26855 4.42586 5.26855 6.02335V6.02335Z" fill="white"/>
<path d="M0.887695 26.2839C0.887695 26.8648 1.11846 27.4219 1.52922 27.8327C1.93999 28.2434 2.4971 28.4742 3.07801 28.4742H19.5053C20.0862 28.4742 20.6434 28.2434 21.0541 27.8327C21.4649 27.4219 21.6956 26.8648 21.6956 26.2839V26.1831C21.7392 23.5426 20.8055 20.9792 19.0739 18.9852C17.3424 16.9913 14.9351 15.7075 12.3145 15.3805C10.869 15.2384 9.40972 15.4004 8.03054 15.8561C6.65137 16.3118 5.38284 17.0511 4.30656 18.0265C3.23028 19.0019 2.37007 20.1918 1.78125 21.5196C1.19244 22.8474 0.88806 24.2838 0.887695 25.7363L0.887695 26.2839Z" fill="white"/>
</svg>
