<svg width="80" height="80" viewBox="0 0 80 80" fill="none" xmlns="http://www.w3.org/2000/svg">
<rect width="80" height="80" fill="#F4F0FF"/>
<path d="M59.4541 33.716C59.357 33.5286 59.2102 33.3714 59.0299 33.2617C58.8495 33.152 58.6424 33.094 58.4313 33.0941H41.4406L45.7344 13.7584C45.7928 13.4989 45.7597 13.2272 45.6405 12.9893C45.5214 12.7515 45.3236 12.5623 45.0807 12.4538C44.8379 12.3452 44.565 12.3241 44.3083 12.3939C44.0517 12.4638 43.8271 12.6203 43.6727 12.837L20.6376 45.0861C20.5124 45.2584 20.4374 45.4619 20.4209 45.6742C20.4045 45.8865 20.4472 46.0993 20.5443 46.2888C20.6414 46.4783 20.7892 46.6371 20.9712 46.7477C21.1532 46.8583 21.3622 46.9162 21.5752 46.9151H38.5659L34.2721 66.2416C34.2137 66.5011 34.2468 66.7728 34.366 67.0106C34.4851 67.2484 34.6829 67.4377 34.9258 67.5462C35.1686 67.6547 35.4415 67.6759 35.6982 67.606C35.9549 67.5362 36.1794 67.3796 36.3338 67.163L59.3689 34.9138C59.4919 34.7413 59.5649 34.5382 59.5799 34.3269C59.595 34.1156 59.5514 33.9042 59.4541 33.716Z" fill="#7545FF"/>
</svg>
