<svg width="64" height="64" viewBox="0 0 64 64" fill="none" xmlns="http://www.w3.org/2000/svg">
<rect width="64" height="64" fill="#F6F3FF"/>
<path d="M47.4338 41.3152C47.4339 41.2384 47.4121 41.1631 47.3711 41.0981C47.3301 41.0331 47.2715 40.981 47.2021 40.948C47.1327 40.915 47.0553 40.9024 46.979 40.9116C46.9027 40.9208 46.8305 40.9515 46.771 41.0001C43.6242 43.562 37.6865 44.9152 32.0006 44.9152C26.3147 44.9152 20.3753 43.562 17.2286 41.0001C17.1692 40.9513 17.0971 40.9205 17.0208 40.9112C16.9446 40.9019 16.8672 40.9145 16.7978 40.9476C16.7285 40.9806 16.67 41.0328 16.6291 41.0979C16.5883 41.163 16.5669 41.2384 16.5674 41.3152V44.103C16.5674 47.6932 23.4782 50.6012 32.0006 50.6012C40.523 50.6012 47.4338 47.6932 47.4338 44.103V41.3152Z" fill="#7545FF"/>
<path d="M16.5674 36.0346C16.5674 39.6249 23.4782 42.5328 32.0006 42.5328C40.523 42.5328 47.4338 39.6249 47.4338 36.0346V33.2469C47.4339 33.17 47.4121 33.0947 47.3711 33.0297C47.3301 32.9647 47.2715 32.9127 47.2021 32.8797C47.1327 32.8467 47.0553 32.834 46.979 32.8433C46.9027 32.8525 46.8305 32.8831 46.771 32.9317C43.6242 35.4936 37.6865 36.8469 32.0006 36.8469C26.3147 36.8469 20.3753 35.4936 17.2286 32.9317C17.1692 32.883 17.0971 32.8521 17.0208 32.8428C16.9446 32.8335 16.8672 32.8461 16.7978 32.8792C16.7285 32.9123 16.67 32.9644 16.6291 33.0295C16.5883 33.0946 16.5669 33.17 16.5674 33.2469V36.0346Z" fill="#7545FF"/>
<path d="M32.0006 28.7782C26.3147 28.7782 20.3753 27.4249 17.2286 24.8614C17.1692 24.8126 17.0971 24.7818 17.0208 24.7725C16.9446 24.7632 16.8672 24.7758 16.7978 24.8089C16.7285 24.842 16.67 24.8941 16.6291 24.9592C16.5883 25.0243 16.5669 25.0997 16.5674 25.1766V27.9659C16.5674 31.5562 23.4782 34.4641 32.0006 34.4641C40.523 34.4641 47.4338 31.5562 47.4338 27.9659V25.1782C47.4336 25.1015 47.4116 25.0264 47.3705 24.9616C47.3293 24.8969 47.2707 24.8451 47.2013 24.8123C47.132 24.7795 47.0547 24.767 46.9786 24.7762C46.9024 24.7855 46.8304 24.8162 46.771 24.8647C43.6226 27.4266 37.6865 28.7782 32.0006 28.7782Z" fill="#7545FF"/>
<path d="M32.0006 26.3948C40.5241 26.3948 47.4338 23.4855 47.4338 19.8966C47.4338 16.3078 40.5241 13.3984 32.0006 13.3984C23.4771 13.3984 16.5674 16.3078 16.5674 19.8966C16.5674 23.4855 23.4771 26.3948 32.0006 26.3948Z" fill="#7545FF"/>
</svg>
