<svg width="37" height="37" viewBox="0 0 37 37" fill="none" xmlns="http://www.w3.org/2000/svg">
<path d="M18.17 0C14.5763 0 11.0633 1.06565 8.0753 3.0622C5.08726 5.05874 2.75836 7.89651 1.38312 11.2166C0.00787294 14.5368 -0.351954 18.1902 0.349139 21.7148C1.05023 25.2394 2.78076 28.477 5.32188 31.0181C7.863 33.5592 11.1006 35.2898 14.6252 35.9909C18.1498 36.692 21.8032 36.3321 25.1234 34.9569C28.4435 33.5816 31.2813 31.2527 33.2778 28.2647C35.2744 25.2767 36.34 21.7637 36.34 18.17C36.3345 13.3527 34.4184 8.73428 31.0121 5.32794C27.6057 1.92159 22.9873 0.00549606 18.17 0ZM27.5146 15.3147L17.194 25.6301C16.9529 25.8714 16.6667 26.0629 16.3516 26.1935C16.0364 26.3241 15.6987 26.3914 15.3576 26.3914C15.0164 26.3914 14.6787 26.3241 14.3635 26.1935C14.0484 26.0629 13.7622 25.8714 13.5211 25.6301L8.82543 20.9422C8.33872 20.4541 8.06583 19.7927 8.0668 19.1034C8.06778 18.4141 8.34253 17.7534 8.83063 17.2667C9.31872 16.78 9.98017 16.5071 10.6695 16.5081C11.3588 16.509 12.0194 16.7838 12.5062 17.2719L15.3614 20.1272L23.8339 11.647C24.3202 11.1589 24.9806 10.884 25.6696 10.8828C26.3587 10.8815 27.02 11.1541 27.5081 11.6405C27.9962 12.1269 28.2711 12.7872 28.2723 13.4763C28.2735 14.1653 28.0009 14.8266 27.5146 15.3147Z" fill="white"/>
</svg>
