<svg width="20" height="24" viewBox="0 0 20 24" fill="none" xmlns="http://www.w3.org/2000/svg">
<path d="M19.169 17.7427C19.169 17.6954 19.1556 17.6491 19.1304 17.6091C19.1051 17.569 19.069 17.537 19.0263 17.5167C18.9836 17.4964 18.936 17.4886 18.889 17.4943C18.842 17.5 18.7976 17.5188 18.761 17.5487C16.824 19.1257 13.169 19.9587 9.66895 19.9587C6.16895 19.9587 2.51295 19.1257 0.57595 17.5487C0.53939 17.5187 0.495036 17.4997 0.448079 17.494C0.401123 17.4883 0.353507 17.4961 0.310806 17.5164C0.268105 17.5368 0.232085 17.5689 0.206963 17.6089C0.18184 17.649 0.168655 17.6954 0.16895 17.7427V19.4587C0.16895 21.6687 4.42295 23.4587 9.66895 23.4587C14.9149 23.4587 19.169 21.6687 19.169 19.4587V17.7427Z" fill="white"/>
<path d="M0.16895 14.4929C0.16895 16.7029 4.42295 18.4929 9.66895 18.4929C14.9149 18.4929 19.169 16.7029 19.169 14.4929V12.7769C19.169 12.7296 19.1556 12.6833 19.1304 12.6432C19.1051 12.6032 19.069 12.5712 19.0263 12.5509C18.9836 12.5306 18.936 12.5228 18.889 12.5285C18.842 12.5341 18.7976 12.553 18.761 12.5829C16.824 14.1599 13.169 14.9929 9.66895 14.9929C6.16895 14.9929 2.51295 14.1599 0.57595 12.5829C0.53939 12.5529 0.495036 12.5339 0.448079 12.5282C0.401123 12.5225 0.353507 12.5302 0.310806 12.5506C0.268105 12.5709 0.232085 12.603 0.206963 12.6431C0.18184 12.6832 0.168655 12.7296 0.16895 12.7769V14.4929Z" fill="white"/>
<path d="M9.66895 10.0261C6.16895 10.0261 2.51295 9.19315 0.57595 7.61515C0.53939 7.58513 0.495036 7.56615 0.448079 7.56042C0.401123 7.5547 0.353507 7.56247 0.310806 7.58282C0.268105 7.60318 0.232085 7.63527 0.206963 7.67535C0.18184 7.71544 0.168655 7.76184 0.16895 7.80915V9.52615C0.16895 11.7361 4.42295 13.5261 9.66895 13.5261C14.9149 13.5261 19.169 11.7361 19.169 9.52615V7.81015C19.1688 7.76292 19.1553 7.7167 19.13 7.67683C19.1046 7.63697 19.0685 7.60509 19.0259 7.5849C18.9832 7.5647 18.9356 7.55701 18.8887 7.56272C18.8419 7.56843 18.7976 7.5873 18.761 7.61715C16.823 9.19415 13.169 10.0261 9.66895 10.0261Z" fill="white"/>
<path d="M9.66895 8.55859C14.9157 8.55859 19.1689 6.76773 19.1689 4.55859C19.1689 2.34945 14.9157 0.558594 9.66895 0.558594C4.42224 0.558594 0.168945 2.34945 0.168945 4.55859C0.168945 6.76773 4.42224 8.55859 9.66895 8.55859Z" fill="white"/>
</svg>
