<svg width="41" height="42" viewBox="0 0 41 42" fill="none" xmlns="http://www.w3.org/2000/svg">
<path d="M39.3969 26.6265L36.0194 24.6792C36.5303 22.4137 36.5303 20.0628 36.0194 17.7973L39.3778 15.8469C39.5581 15.7423 39.7159 15.6031 39.8423 15.4374C39.9687 15.2717 40.0612 15.0828 40.1145 14.8813C40.1678 14.6798 40.1809 14.4698 40.153 14.2633C40.1251 14.0568 40.0567 13.8578 39.9519 13.6777L36.7361 8.16582C36.5264 7.80536 36.1832 7.54201 35.7807 7.43279C35.3783 7.32358 34.949 7.37728 34.5859 7.58228L31.0974 9.5644C29.4541 7.79009 27.2916 6.58119 24.9195 6.11076V2.20679C24.9195 1.78623 24.7524 1.38291 24.4551 1.08553C24.1577 0.788156 23.7544 0.621094 23.3338 0.621094H16.991C16.5705 0.621094 16.1672 0.788156 15.8698 1.08553C15.5724 1.38291 15.4053 1.78623 15.4053 2.20679V6.10759C13.047 6.5878 10.8992 7.79704 9.26554 9.5644L5.76433 7.59814C5.40119 7.39314 4.97192 7.33943 4.56948 7.44865C4.16703 7.55787 3.8238 7.82122 3.61413 8.18168L0.398342 13.6777C0.29347 13.8578 0.225126 14.0568 0.197218 14.2633C0.169311 14.4698 0.182387 14.6798 0.235699 14.8813C0.289011 15.0828 0.381513 15.2717 0.507916 15.4374C0.634319 15.6031 0.792143 15.7423 0.972363 15.8469L4.33086 17.7973C3.81835 20.0627 3.81835 22.4139 4.33086 24.6792L0.927964 26.6265C0.747214 26.7306 0.588785 26.8693 0.461751 27.0348C0.334718 27.2002 0.241577 27.3891 0.187665 27.5906C0.133753 27.7921 0.120129 28.0023 0.147573 28.2091C0.175018 28.4159 0.242991 28.6152 0.3476 28.7957L3.51899 34.3076C3.72704 34.6679 4.06842 34.9321 4.46949 35.043C4.87055 35.154 5.29916 35.1028 5.66284 34.9006L9.25285 32.9058C10.8899 34.6766 13.0422 35.8881 15.4053 36.369V40.2634C15.4053 40.684 15.5724 41.0873 15.8698 41.3847C16.1672 41.682 16.5705 41.8491 16.991 41.8491H23.3338C23.7544 41.8491 24.1577 41.682 24.4551 41.3847C24.7524 41.0873 24.9195 40.684 24.9195 40.2634V36.369C27.2778 35.8887 29.4256 34.6795 31.0593 32.9121L34.6525 34.9069C35.0162 35.1092 35.4448 35.1603 35.8458 35.0494C36.2469 34.9384 36.5883 34.6743 36.7963 34.3139L39.9677 28.802C40.0723 28.6216 40.1403 28.4222 40.1678 28.2154C40.1952 28.0087 40.1816 27.7985 40.1277 27.597C40.0737 27.3955 39.9806 27.2066 39.8536 27.0411C39.7265 26.8757 39.5681 26.7369 39.3874 26.6328L39.3969 26.6265ZM20.1624 29.1636C18.5943 29.1636 17.0614 28.6986 15.7576 27.8274C14.4538 26.9562 13.4376 25.7179 12.8375 24.2692C12.2374 22.8205 12.0804 21.2263 12.3863 19.6883C12.6922 18.1504 13.4473 16.7376 14.5561 15.6288C15.665 14.52 17.0777 13.7649 18.6157 13.459C20.1536 13.1531 21.7478 13.3101 23.1965 13.9102C24.6452 14.5102 25.8835 15.5265 26.7547 16.8303C27.6259 18.1341 28.0909 19.667 28.0909 21.2351C28.0909 23.3379 27.2556 25.3545 25.7687 26.8414C24.2818 28.3282 22.2652 29.1636 20.1624 29.1636V29.1636Z" fill="#7545FF"/>
</svg>
