<svg width="37" height="54" viewBox="0 0 37 54" fill="none" xmlns="http://www.w3.org/2000/svg">
<path d="M31.6133 50.017C30.9833 49.3895 30.1311 49.036 29.2419 49.0332H11.0228C10.1329 49.0356 9.27993 49.3892 8.64924 50.017L7.07205 51.6009C6.91628 51.7571 6.81036 51.9561 6.76766 52.1725C6.72497 52.389 6.74743 52.6132 6.83221 52.8169C6.91698 53.0206 7.06025 53.1946 7.24391 53.3169C7.42757 53.4391 7.64336 53.5042 7.86399 53.5038H32.403C32.623 53.5033 32.8379 53.4378 33.0207 53.3154C33.2036 53.1931 33.3462 53.0195 33.4306 52.8163C33.515 52.6132 33.5374 52.3896 33.4951 52.1737C33.4528 51.9579 33.3476 51.7593 33.1927 51.6031L31.6133 50.017Z" fill="white"/>
<path d="M24.5972 17.811V16.6956C24.5972 16.3998 24.7147 16.1161 24.9239 15.9069C25.133 15.6977 25.4167 15.5802 25.7126 15.5802C25.9614 15.5802 26.203 15.4969 26.3991 15.3437C26.5951 15.1905 26.7343 14.9762 26.7945 14.7347L27.9099 10.2731C27.9564 10.0864 27.9538 9.89078 27.9024 9.70535C27.8509 9.51992 27.7524 9.35095 27.6163 9.21488C27.4802 9.0788 27.3112 8.98025 27.1258 8.92879C26.9404 8.87734 26.7448 8.87473 26.558 8.92123L23.3211 9.73102C23.1341 9.77767 22.9382 9.77507 22.7525 9.72346C22.5668 9.67186 22.3976 9.57301 22.2615 9.43655L20.923 8.09806C20.7138 7.88895 20.4302 7.77148 20.1344 7.77148C19.8386 7.77148 19.555 7.88895 19.3458 8.09806L18.0073 9.43655C17.8714 9.57263 17.7026 9.67126 17.5173 9.72286C17.3321 9.77445 17.1366 9.77727 16.9499 9.73102L13.713 8.92123C13.5261 8.87426 13.3302 8.8765 13.1445 8.92775C12.9587 8.97899 12.7894 9.07749 12.653 9.21363C12.5167 9.34978 12.4179 9.51893 12.3663 9.70461C12.3148 9.89028 12.3122 10.0861 12.3589 10.2731L13.4743 14.7347C13.5346 14.9765 13.6741 15.1912 13.8706 15.3444C14.0671 15.4976 14.3093 15.5807 14.5585 15.5802C14.8543 15.5802 15.138 15.6977 15.3472 15.9069C15.5564 16.1161 15.6739 16.3998 15.6739 16.6956V17.811C15.6739 18.9943 16.1439 20.1292 16.9807 20.9659C17.8174 21.8026 18.9522 22.2727 20.1355 22.2727C21.3188 22.2727 22.4537 21.8026 23.2904 20.9659C24.1271 20.1292 24.5972 18.9943 24.5972 17.811V17.811Z" fill="white"/>
<path d="M10.6437 7.77233C10.6437 5.58612 8.06491 2.03466 6.95174 0.609167C6.78943 0.418225 6.58756 0.264849 6.3601 0.159664C6.13265 0.0544795 5.88504 0 5.63444 0C5.38384 0 5.13623 0.0544795 4.90877 0.159664C4.68131 0.264849 4.47944 0.418225 4.31714 0.609167C3.20173 2.03466 0.616211 5.58612 0.616211 7.77233C0.616211 9.10354 1.14503 10.3802 2.08634 11.3215C3.02765 12.2628 4.30434 12.7917 5.63555 12.7917C6.96677 12.7917 8.24345 12.2628 9.18476 11.3215C10.1261 10.3802 10.6549 9.10354 10.6549 7.77233H10.6437Z" fill="white"/>
<path d="M33.9374 23.9462H28.695C28.4 23.9467 28.1169 23.8304 27.9075 23.6227C27.0278 22.7608 25.8441 22.28 24.6126 22.2842H16.7824C16.2536 22.2751 15.7338 22.1458 15.2623 21.9062C14.7908 21.6666 14.3799 21.3229 14.0608 20.9011C14.0608 20.8788 14.0385 20.8565 14.0162 20.8342L8.28298 14.521C8.1772 14.4081 8.04934 14.3182 7.90735 14.2568C7.76537 14.1954 7.61227 14.1638 7.45757 14.1641H4.35673C4.16208 14.1652 3.97112 14.2173 3.80284 14.3152C3.63456 14.413 3.49481 14.5532 3.39748 14.7218C3.29959 14.8913 3.24805 15.0837 3.24805 15.2795C3.24805 15.4753 3.29959 15.6676 3.39748 15.8372L12.8562 31.676C12.8785 31.6983 12.8785 31.7206 12.9008 31.7652C13.2129 32.4253 13.3067 33.1676 13.1685 33.8845C13.1626 33.8845 13.1569 33.8869 13.1527 33.891C13.1485 33.8952 13.1462 33.9009 13.1462 33.9068L11.2277 45.5071C11.2007 45.6672 11.2086 45.8313 11.2508 45.9882C11.293 46.145 11.3686 46.2909 11.4724 46.4158C11.5762 46.5408 11.7057 46.6419 11.8521 46.7122C11.9985 46.7825 12.1584 46.8204 12.3208 46.8233H27.9365C28.1019 46.8233 28.2653 46.7865 28.4147 46.7156C28.5642 46.6447 28.696 46.5415 28.8006 46.4134C28.9053 46.2853 28.9801 46.1355 29.0197 45.9749C29.0593 45.8142 29.0627 45.6468 29.0296 45.4848L27.468 37.5587C27.4349 37.3964 27.4383 37.2288 27.4781 37.068C27.5178 36.9073 27.5928 36.7573 27.6977 36.6292C27.8026 36.501 27.9347 36.3978 28.0844 36.3271C28.2341 36.2563 28.3977 36.2198 28.5634 36.2202H30.5956C31.115 36.2262 31.6255 36.0847 32.0677 35.8123C32.51 35.5398 32.8659 35.1475 33.0942 34.6809L36.4404 27.9884C36.6555 27.5625 36.7576 27.0884 36.7369 26.6116C36.7162 26.1348 36.5734 25.6713 36.3222 25.2656C36.0709 24.8599 35.7197 24.5255 35.3021 24.2944C34.8845 24.0634 34.4146 23.9435 33.9374 23.9462ZM32.6413 28.0911L30.5644 32.2449C30.4717 32.4299 30.3293 32.5855 30.1532 32.6942C29.9771 32.803 29.7742 32.8606 29.5672 32.8606H25.7168C25.6216 32.8607 25.528 32.8366 25.4448 32.7903C25.3616 32.7441 25.2916 32.6773 25.2415 32.5963C25.1914 32.5154 25.1629 32.4229 25.1586 32.3278C25.1543 32.2327 25.1745 32.1381 25.2171 32.053L27.294 27.9014C27.3864 27.716 27.5287 27.5599 27.7048 27.4508C27.8809 27.3417 28.084 27.2837 28.2912 27.2835H32.1438C32.2388 27.2837 32.3322 27.3082 32.4151 27.3546C32.498 27.401 32.5677 27.4678 32.6175 27.5487C32.6674 27.6296 32.6957 27.7219 32.6999 27.8168C32.704 27.9117 32.6839 28.0061 32.6413 28.0911Z" fill="white"/>
</svg>
