<svg width="184" height="184" viewBox="0 0 184 184" fill="none" xmlns="http://www.w3.org/2000/svg">
<rect width="184" height="184" fill="#F6F3FF"/>
<path d="M92 34C80.5287 34 69.315 37.4016 59.7769 43.7748C50.2389 50.1479 42.8049 59.2062 38.415 69.8044C34.0251 80.4025 32.8765 92.0643 35.1145 103.315C37.3524 114.566 42.8764 124.901 50.9878 133.012C59.0993 141.124 69.4339 146.648 80.6848 148.886C91.9357 151.123 103.598 149.975 114.196 145.585C124.794 141.195 133.852 133.761 140.225 124.223C146.598 114.685 150 103.471 150 92C149.982 76.6229 143.866 61.8808 132.992 51.0076C122.119 40.1344 107.377 34.0179 92 34V34ZM125.481 73.6333L92.3963 118.53C92.0057 119.048 91.5158 119.484 90.9552 119.81C90.3946 120.137 89.7745 120.349 89.1311 120.434C88.4876 120.518 87.8338 120.474 87.2078 120.303C86.5817 120.132 85.996 119.838 85.4847 119.439L61.8594 100.55C61.3636 100.153 60.9509 99.663 60.6447 99.1068C60.3386 98.5506 60.1449 97.9395 60.0749 97.3085C59.9335 96.034 60.3042 94.7556 61.1054 93.7545C61.9065 92.7533 63.0726 92.1115 64.347 91.9701C64.9781 91.9 65.6167 91.955 66.2265 92.1318C66.8363 92.3086 67.4053 92.6038 67.901 93.0005L87.6017 108.762L117.699 67.9155C118.061 67.3718 118.53 66.9072 119.077 66.5498C119.624 66.1923 120.238 65.9495 120.881 65.836C121.525 65.7225 122.184 65.7406 122.821 65.8892C123.457 66.0379 124.056 66.314 124.583 66.7009C125.109 67.0878 125.552 67.5774 125.884 68.1401C126.216 68.7029 126.43 69.3272 126.514 69.9751C126.598 70.6231 126.55 71.2814 126.372 71.9101C126.194 72.5389 125.891 73.1251 125.481 73.6333V73.6333Z" fill="#7545FF"/>
</svg>
