<svg width="80" height="80" viewBox="0 0 80 80" fill="none" xmlns="http://www.w3.org/2000/svg">
<rect width="80" height="80" fill="#F4F0FF"/>
<path d="M21.0777 61.6253C21.7946 61.6253 22.4822 61.3405 22.9892 60.8335C23.4961 60.3266 23.7809 59.639 23.7809 58.9221V52.0199C23.781 51.9273 23.8095 51.837 23.8627 51.7612C23.9159 51.6854 23.9912 51.6279 24.0783 51.5964L26.2516 50.8125C28.4614 50.1101 30.7986 49.9028 33.0974 50.2052C35.3963 50.5076 37.6003 51.3124 39.5532 52.5623C41.7541 53.9141 44.2122 54.793 46.7712 55.1433C49.3302 55.4936 51.934 55.3075 54.4172 54.597L59.4632 53.0237C60.0838 52.8462 60.6301 52.4722 61.0201 51.9578C61.41 51.4434 61.6226 50.8164 61.6258 50.1709V26.4566C61.6244 25.9975 61.5168 25.5449 61.3115 25.1343C61.1061 24.7237 60.8086 24.3661 60.4422 24.0895C60.0757 23.8129 59.6503 23.6249 59.1991 23.54C58.7479 23.4551 58.2832 23.4757 57.8413 23.6002L53.9271 24.8473C51.6831 25.4845 49.3313 25.6493 47.0204 25.3314C44.7095 25.0134 42.4897 24.2196 40.5011 23.0001C38.3221 21.6127 35.8647 20.7213 33.3029 20.389C30.7412 20.0567 28.1377 20.2917 25.6768 21.0772L24.3846 21.5476C24.3165 21.5722 24.2434 21.5801 24.1715 21.5704C24.0997 21.5608 24.0312 21.534 23.972 21.4922C23.9127 21.4505 23.8644 21.395 23.8312 21.3306C23.7979 21.2662 23.7807 21.1948 23.7809 21.1223V21.0772C23.7809 20.3603 23.4961 19.6727 22.9892 19.1658C22.4822 18.6588 21.7946 18.374 21.0777 18.374C20.3608 18.374 19.6732 18.6588 19.1663 19.1658C18.6593 19.6727 18.3745 20.3603 18.3745 21.0772V58.9221C18.3745 59.639 18.6593 60.3266 19.1663 60.8335C19.6732 61.3405 20.3608 61.6253 21.0777 61.6253ZM45.803 32.847C45.6702 32.7232 45.5637 32.574 45.4898 32.4082C45.416 32.2424 45.3762 32.0635 45.373 31.882C45.3698 31.7005 45.4032 31.5202 45.4712 31.3519C45.5392 31.1836 45.6404 31.0307 45.7687 30.9024C45.8971 30.7741 46.0499 30.6729 46.2182 30.6049C46.3865 30.5369 46.5668 30.5035 46.7483 30.5067C46.9298 30.5099 47.1087 30.5497 47.2745 30.6235C47.4403 30.6974 47.5895 30.8039 47.7133 30.9367L53.1197 36.3431C53.2452 36.4685 53.3448 36.6174 53.4128 36.7813C53.4807 36.9452 53.5157 37.1208 53.5157 37.2983C53.5157 37.4757 53.4807 37.6514 53.4128 37.8152C53.3448 37.9791 53.2452 38.128 53.1197 38.2534L47.7133 43.6598C47.5895 43.7926 47.4403 43.8991 47.2745 43.973C47.1087 44.0468 46.9298 44.0866 46.7483 44.0898C46.5668 44.093 46.3865 44.0596 46.2182 43.9916C46.0499 43.9236 45.8971 43.8224 45.7687 43.6941C45.6404 43.5658 45.5392 43.4129 45.4712 43.2446C45.4032 43.0763 45.3698 42.896 45.373 42.7145C45.3762 42.5331 45.416 42.3541 45.4898 42.1883C45.5637 42.0225 45.6702 41.8733 45.803 41.7495L49.9353 37.6172C50.0192 37.5322 50.0662 37.4177 50.0662 37.2983C50.0662 37.1789 50.0192 37.0643 49.9353 36.9793L45.803 32.847ZM38.2214 43.9878C37.8813 43.8743 37.6001 43.6304 37.4396 43.3098C37.2791 42.9891 37.2524 42.6179 37.3654 42.2776L40.9697 31.4647C41.083 31.1244 41.3268 30.8431 41.6475 30.6825C41.8063 30.603 41.9792 30.5556 42.1564 30.5429C42.3335 30.5303 42.5114 30.5526 42.6799 30.6087C42.8484 30.6648 43.0042 30.7535 43.1384 30.8698C43.2726 30.9861 43.3826 31.1277 43.4621 31.2866C43.5416 31.4454 43.589 31.6183 43.6017 31.7954C43.6144 31.9726 43.592 32.1504 43.5359 32.319L39.9317 43.1318C39.8417 43.4009 39.6694 43.635 39.4392 43.8009C39.2089 43.9668 38.9323 44.0562 38.6485 44.0563C38.5035 44.0554 38.3595 44.0323 38.2214 43.9878V43.9878ZM27.7817 38.2534C27.6561 38.128 27.5565 37.9791 27.4886 37.8152C27.4206 37.6514 27.3856 37.4757 27.3856 37.2983C27.3856 37.1208 27.4206 36.9452 27.4886 36.7813C27.5565 36.6174 27.6561 36.4685 27.7817 36.3431L33.1881 30.9367C33.4443 30.698 33.7832 30.568 34.1333 30.5742C34.4835 30.5803 34.8176 30.7222 35.0652 30.9698C35.3128 31.2175 35.4547 31.5516 35.4609 31.9017C35.4671 32.2519 35.3371 32.5908 35.0983 32.847L30.966 36.9793C30.8822 37.0643 30.8352 37.1789 30.8352 37.2983C30.8352 37.4177 30.8822 37.5322 30.966 37.6172L35.0983 41.7495C35.2311 41.8733 35.3376 42.0225 35.4115 42.1883C35.4854 42.3541 35.5251 42.5331 35.5283 42.7145C35.5315 42.896 35.4981 43.0763 35.4301 43.2446C35.3622 43.4129 35.261 43.5658 35.1326 43.6941C35.0043 43.8224 34.8514 43.9236 34.6831 43.9916C34.5148 44.0596 34.3346 44.093 34.1531 44.0898C33.9716 44.0866 33.7926 44.0468 33.6268 43.973C33.461 43.8991 33.3118 43.7926 33.1881 43.6598L27.7817 38.2534Z" fill="#7545FF"/>
<rect x="24.0928" y="27.0146" width="31.6961" height="20.5164" fill="#7545FF"/>
</svg>
