<svg width="26" height="27" viewBox="0 0 26 27" fill="none" xmlns="http://www.w3.org/2000/svg">
<path d="M24.7782 16.4115L22.6467 15.1826C22.9691 13.7529 22.9691 12.2693 22.6467 10.8396L24.7662 9.60873C24.8799 9.54269 24.9795 9.45488 25.0593 9.35031C25.1391 9.24575 25.1974 9.12648 25.2311 8.99934C25.2647 8.8722 25.273 8.73967 25.2554 8.60934C25.2378 8.47901 25.1946 8.35342 25.1284 8.23977L23.099 4.76134C22.9667 4.53386 22.7501 4.36766 22.4961 4.29874C22.2421 4.22981 21.9712 4.2637 21.7421 4.39308L19.5405 5.64395C18.5035 4.52422 17.1388 3.7613 15.6418 3.46443V1.0007C15.6418 0.735299 15.5364 0.480766 15.3487 0.293098C15.161 0.10543 14.9065 0 14.6411 0H10.6383C10.3729 0 10.1184 0.10543 9.93069 0.293098C9.74302 0.480766 9.63759 0.735299 9.63759 1.0007V3.46242C8.14928 3.76548 6.79385 4.52861 5.76287 5.64395L3.55333 4.40308C3.32416 4.27371 3.05325 4.23982 2.79928 4.30874C2.5453 4.37767 2.3287 4.54387 2.19638 4.77134L0.166955 8.23977C0.100772 8.35342 0.0576411 8.47901 0.0400291 8.60934C0.0224171 8.73967 0.0306691 8.8722 0.0643133 8.99934C0.0979575 9.12648 0.156334 9.24575 0.236104 9.35031C0.315875 9.45488 0.415475 9.54269 0.529208 9.60873L2.64869 10.8396C2.32526 12.2692 2.32526 13.753 2.64869 15.1826L0.501189 16.4115C0.387121 16.4772 0.287139 16.5648 0.206971 16.6692C0.126802 16.7736 0.0680232 16.8928 0.0340003 17.02C-2.27067e-05 17.1471 -0.0086207 17.2798 0.00869895 17.4103C0.0260186 17.5408 0.0689155 17.6666 0.134932 17.7805L2.13633 21.2589C2.26763 21.4863 2.48307 21.653 2.73618 21.723C2.98928 21.7931 3.25977 21.7608 3.48928 21.6332L5.75487 20.3743C6.788 21.4918 8.14624 22.2563 9.63759 22.5598V25.0175C9.63759 25.2829 9.74302 25.5375 9.93069 25.7251C10.1184 25.9128 10.3729 26.0182 10.6383 26.0182H14.6411C14.9065 26.0182 15.161 25.9128 15.3487 25.7251C15.5364 25.5375 15.6418 25.2829 15.6418 25.0175V22.5598C17.1301 22.2567 18.4855 21.4936 19.5165 20.3783L21.7841 21.6372C22.0136 21.7648 22.2841 21.7971 22.5372 21.727C22.7903 21.657 23.0057 21.4903 23.137 21.2629L25.1384 17.7845C25.2045 17.6706 25.2474 17.5448 25.2647 17.4143C25.282 17.2838 25.2734 17.1511 25.2394 17.024C25.2054 16.8968 25.1466 16.7776 25.0664 16.6732C24.9862 16.5688 24.8863 16.4812 24.7722 16.4155L24.7782 16.4115ZM12.6397 18.0126C11.6501 18.0126 10.6827 17.7192 9.85989 17.1694C9.03707 16.6196 8.39576 15.8381 8.01706 14.9239C7.63835 14.0096 7.53927 13.0036 7.73233 12.033C7.92539 11.0624 8.40193 10.1709 9.10168 9.4711C9.80143 8.77135 10.693 8.29481 11.6636 8.10175C12.6341 7.90869 13.6402 8.00777 14.5545 8.38648C15.4687 8.76518 16.2502 9.40649 16.8 10.2293C17.3497 11.0521 17.6432 12.0195 17.6432 13.0091C17.6432 14.3361 17.116 15.6088 16.1777 16.5471C15.2394 17.4855 13.9667 18.0126 12.6397 18.0126V18.0126Z" fill="white"/>
</svg>
