<svg width="156" height="156" viewBox="0 0 156 156" fill="none" xmlns="http://www.w3.org/2000/svg">
<rect width="156" height="156" fill="#F6F3FF"/>
<path d="M130.78 66.3971L83.5942 105.555C80.3503 108.247 75.6493 108.247 72.4054 105.555L25.2197 66.3971L72.4056 27.2387C75.6496 24.5467 80.3505 24.5467 83.5944 27.2387L130.78 66.3971Z" fill="#4421AA"/>
<path d="M83.5943 27.2388C81.9725 25.8927 79.9863 25.2197 78 25.2197V107.574C79.9863 107.574 81.9725 106.901 83.5943 105.555L130.78 66.3971L83.5943 27.2388Z" fill="#4421AA"/>
<path d="M121.296 76.5039V46.8715C121.296 44.5941 119.45 42.748 117.173 42.748H38.8273C36.5499 42.748 34.7039 44.5941 34.7039 46.8715V76.5039L72.7215 108.176C75.7794 110.723 80.2206 110.723 83.2787 108.176L121.296 76.5039Z" fill="white"/>
<path d="M117.173 42.748H78V110.087C79.8747 110.087 81.7497 109.45 83.2786 108.176L121.296 76.5039V46.8715C121.296 44.5941 119.45 42.748 117.173 42.748V42.748Z" fill="white"/>
<path d="M130.78 66.3975L83.5942 105.556C80.3503 108.248 75.6493 108.248 72.4054 105.556L25.2197 66.3975V122.02C25.2197 126.858 29.1417 130.78 33.98 130.78H122.02C126.858 130.78 130.78 126.858 130.78 122.02V66.3975Z" fill="#7545FF"/>
<path d="M83.5943 105.556C81.9723 106.902 79.9861 107.575 78 107.575V130.78H122.02C126.858 130.78 130.78 126.858 130.78 122.02V66.3975L83.5943 105.556Z" fill="#7545FF"/>
<path d="M83.5942 105.555C80.3503 108.247 75.6494 108.247 72.4054 105.555L67.4439 101.438L28.0303 128.447C29.5926 129.894 31.6824 130.78 33.98 130.78H122.02C124.317 130.78 126.407 129.894 127.969 128.447L88.556 101.438L83.5942 105.555Z" fill="#7545FF"/>
<path d="M127.97 128.447L88.556 101.438L83.5943 105.555C81.9723 106.901 79.9861 107.574 78 107.574V130.78H122.02C124.318 130.78 126.407 129.894 127.97 128.447Z" fill="#7545FF"/>
<path d="M84.7004 62.3307H55.4239C53.716 62.3307 52.3313 60.946 52.3313 59.2381C52.3313 57.5302 53.716 56.1455 55.4239 56.1455H84.7004C86.4083 56.1455 87.793 57.5302 87.793 59.2381C87.793 60.946 86.4083 62.3307 84.7004 62.3307Z" fill="#7545FF"/>
<path d="M100.576 74.7008H55.4239C53.716 74.7008 52.3313 73.3161 52.3313 71.6082C52.3313 69.9003 53.716 68.5156 55.4239 68.5156H100.576C102.284 68.5156 103.668 69.9003 103.668 71.6082C103.668 73.3161 102.284 74.7008 100.576 74.7008Z" fill="#7545FF"/>
<path d="M87.7932 59.2381C87.7932 57.5302 86.4085 56.1455 84.7006 56.1455H78V62.3307H84.7006C86.4085 62.3307 87.7932 60.946 87.7932 59.2381Z" fill="#7545FF"/>
<path d="M100.576 68.5156H78V74.7008H100.576C102.284 74.7008 103.668 73.3161 103.668 71.6082C103.668 69.9003 102.284 68.5156 100.576 68.5156Z" fill="#7545FF"/>
</svg>
