<svg width="716" height="677" viewBox="0 0 716 677" fill="none" xmlns="http://www.w3.org/2000/svg">
<mask id="mask0" mask-type="alpha" maskUnits="userSpaceOnUse" x="3" y="7" width="710" height="664">
<rect width="687.791" height="587.193" rx="54.498" transform="matrix(0.991445 -0.130526 -0.0579125 0.998322 34.0059 90.5283)" fill="#FF9494"/>
</mask>
<g mask="url(#mask0)">
<g filter="url(#filter0_dd)">
<rect width="1137.92" height="587.193" rx="54.498" transform="matrix(0.991445 -0.130526 -0.0579125 0.998322 34.0059 90.5283)" fill="white"/>
</g>
<path d="M30.8497 144.935C32.5928 114.887 58.1967 87.3435 88.0377 83.4149L128.034 78.1493L94.0283 664.357L54.0319 669.622C24.1909 673.551 1.41308 652.377 3.15615 622.329L30.8497 144.935Z" fill="#F0F0F8"/>
<rect width="130.76" height="23.1567" rx="11.5783" transform="matrix(0.991445 -0.130526 -0.0579125 0.998322 175.739 118.649)" fill="#9292C8"/>
<g filter="url(#filter1_ddd)">
<rect width="512.554" height="241.25" rx="26.8743" transform="matrix(0.991445 -0.130526 -0.0579125 0.998322 161.173 373.374)" fill="white"/>
</g>
<rect width="46.3071" height="10.2909" rx="5.14546" transform="matrix(0.991445 -0.130526 -0.0579125 0.998322 226.377 394.613)" fill="#E9E9FB"/>
<rect width="25.4992" height="10.2909" rx="5.14546" transform="matrix(0.991445 -0.130526 -0.0579125 0.998322 319.493 382.354)" fill="#E9E9FB"/>
<g filter="url(#filter2_d)">
<rect width="23.5221" height="23.5221" rx="7.32937" transform="matrix(0.991445 -0.130526 -0.0579125 0.998322 197.211 391.103)" fill="#7545FF"/>
</g>
<g filter="url(#filter3_d)">
<rect width="23.5221" height="23.5221" rx="7.32937" transform="matrix(0.991445 -0.130526 -0.0579125 0.998322 290.327 378.844)" fill="#9292C8"/>
</g>
<rect width="19.7224" height="20.1275" rx="5.70062" transform="matrix(0.991445 -0.130526 -0.0579125 0.998322 188.4 565.514)" fill="#9292C8"/>
<g filter="url(#filter4_d)">
<rect width="19.7224" height="54.149" rx="5.70062" transform="matrix(0.991445 -0.130526 -0.0579125 0.998322 219.909 527.661)" fill="#7545FF"/>
</g>
<rect width="19.7224" height="41.5319" rx="5.70062" transform="matrix(0.991445 -0.130526 -0.0579125 0.998322 265.988 534.094)" fill="#9292C8"/>
<g filter="url(#filter5_d)">
<rect width="19.7224" height="80.7991" rx="5.70062" transform="matrix(0.991445 -0.130526 -0.0579125 0.998322 297.801 491.004)" fill="#7545FF"/>
</g>
<rect width="19.7224" height="59.2522" rx="5.70062" transform="matrix(0.991445 -0.130526 -0.0579125 0.998322 343.362 506.352)" fill="#9292C8"/>
<g filter="url(#filter6_d)">
<rect width="19.7224" height="113.119" rx="5.70062" transform="matrix(0.991445 -0.130526 -0.0579125 0.998322 376.02 448.687)" fill="#7545FF"/>
</g>
<rect width="19.7224" height="80.7991" rx="5.70062" transform="matrix(0.991445 -0.130526 -0.0579125 0.998322 420.958 474.79)" fill="#9292C8"/>
<g filter="url(#filter7_d)">
<rect width="19.7224" height="142.605" rx="5.70062" transform="matrix(0.991445 -0.130526 -0.0579125 0.998322 454.075 409.199)" fill="#7545FF"/>
</g>
<rect width="19.7224" height="106.365" rx="5.70062" transform="matrix(0.991445 -0.130526 -0.0579125 0.998322 498.786 439.216)" fill="#9292C8"/>
<g filter="url(#filter8_d)">
<rect width="19.7224" height="164.152" rx="5.70062" transform="matrix(0.991445 -0.130526 -0.0579125 0.998322 531.671 377.637)" fill="#7545FF"/>
</g>
<rect width="19.7224" height="138.257" rx="5.70062" transform="matrix(0.991445 -0.130526 -0.0579125 0.998322 576.981 397.327)" fill="#9292C8"/>
<g filter="url(#filter9_d)">
<rect width="19.7224" height="172.09" rx="5.70062" transform="matrix(0.991445 -0.130526 -0.0579125 0.998322 608.479 359.661)" fill="#7545FF"/>
</g>
<g filter="url(#filter10_dd)">
<rect width="158.109" height="165.649" rx="30.1318" transform="matrix(0.991445 -0.130526 -0.0579125 0.998322 347.141 152.227)" fill="white"/>
</g>
<circle r="38.0651" transform="matrix(0.991445 -0.130526 -0.0579125 0.998322 419.211 250.646)" stroke="#EFEFF5" stroke-width="12.4818"/>
<g filter="url(#filter11_d)">
<path d="M417.006 288.647C422.725 287.894 428.445 285.842 433.734 282.646C439.024 279.451 443.743 275.195 447.537 270.2C451.331 265.205 454.099 259.602 455.634 253.814C457.168 248.027 457.428 242.205 456.393 236.791" stroke="#3C16A8" stroke-width="12.4818" stroke-linecap="round"/>
</g>
<g filter="url(#filter12_d)">
<path d="M456.766 239.203C456.027 232.968 453.665 227.335 449.902 222.839C446.14 218.343 441.102 215.134 435.268 213.515C429.434 211.897 422.997 211.923 416.569 213.592C410.14 215.261 403.933 218.517 398.538 223.05" stroke="#7545FF" stroke-width="12.4818" stroke-linecap="round"/>
</g>
<rect width="29.7634" height="8.75045" rx="4.37522" transform="matrix(0.991445 -0.130526 -0.0579125 0.998322 404.71 248.22)" fill="#DADAE3"/>
<g filter="url(#filter13_dd)">
<rect width="158.109" height="165.649" rx="30.1318" transform="matrix(0.991445 -0.130526 -0.0579125 0.998322 172.669 175.197)" fill="white"/>
</g>
<circle r="36.5901" transform="matrix(0.991445 -0.130526 -0.0579125 0.998322 244.903 270.793)" stroke="#EFEFF5" stroke-width="11.9981"/>
<g filter="url(#filter14_d)">
<path d="M258.94 234.749C251.615 233.085 243.487 234.047 235.8 237.487C228.112 240.927 221.288 246.657 216.37 253.8" stroke="#CAB7FF" stroke-width="11.9981" stroke-linecap="round"/>
</g>
<g filter="url(#filter15_d)">
<path d="M216.462 253.667C213.035 258.609 210.631 264.077 209.434 269.657C208.236 275.237 208.276 280.783 209.55 285.876C210.824 290.97 213.299 295.477 216.788 299.057C220.277 302.638 224.688 305.198 229.689 306.545" stroke="#3C16A8" stroke-width="11.9981" stroke-linecap="round"/>
</g>
<g filter="url(#filter16_d)">
<path d="M269.057 293.246C273.685 288.267 277.184 282.393 279.221 276.18C281.258 269.968 281.766 263.624 280.696 257.751C279.627 251.877 277.015 246.67 273.11 242.623C269.204 238.576 264.134 235.824 258.381 234.628" stroke="#7545FF" stroke-width="11.9981" stroke-linecap="round"/>
</g>
<rect width="39.0373" height="8.41137" rx="4.20568" transform="matrix(0.991445 -0.130526 -0.0579125 0.998322 225.717 270.492)" fill="#DADAE3"/>
<rect opacity="0.9" width="56.6086" height="11.4012" rx="5.70062" transform="matrix(0.991445 -0.130526 -0.0579125 0.998322 187.376 194.195)" fill="#9292C8"/>
<rect width="97.7645" height="11.4012" rx="5.70062" transform="matrix(0.991445 -0.130526 -0.0579125 0.998322 186.386 211.268)" fill="#E9E9FB"/>
<rect opacity="0.9" width="97.7645" height="11.4012" rx="5.70062" transform="matrix(0.991445 -0.130526 -0.0579125 0.998322 364.978 170.813)" fill="#9292C8"/>
<rect width="66.3018" height="11.4012" rx="5.70062" transform="matrix(0.991445 -0.130526 -0.0579125 0.998322 363.987 187.887)" fill="#E9E9FB"/>
<g filter="url(#filter17_dd)">
<rect width="158.109" height="165.968" rx="30.1318" transform="matrix(0.991445 -0.130526 -0.0579125 0.998322 524.101 128.615)" fill="white"/>
</g>
<circle r="36.5901" transform="matrix(0.991445 -0.130526 -0.0579125 0.998322 596.152 227.351)" stroke="#EFEFF5" stroke-width="11.9981"/>
<g filter="url(#filter18_d)">
<path d="M610.189 191.308C602.864 189.643 594.736 190.605 587.049 194.045C579.361 197.486 572.537 203.215 567.619 210.358" stroke="#CAB7FF" stroke-width="11.9981" stroke-linecap="round"/>
</g>
<g filter="url(#filter19_d)">
<path d="M567.2 210.977C564.262 215.392 562.131 220.202 560.933 225.122C559.735 230.042 559.496 234.972 560.228 239.619C560.96 244.267 562.649 248.538 565.195 252.179C567.741 255.821 571.092 258.758 575.051 260.819C579.009 262.879 583.493 264.019 588.239 264.173C592.984 264.327 597.893 263.49 602.676 261.713C607.459 259.936 612.018 257.254 616.084 253.827C620.149 250.4 623.638 246.296 626.344 241.76" stroke="#7545FF" stroke-width="11.9981" stroke-linecap="round"/>
</g>
<rect width="29.7771" height="8.41137" rx="4.20568" transform="matrix(0.991445 -0.130526 -0.0579125 0.998322 581.557 226.446)" fill="#DADAE3"/>
<g filter="url(#filter20_dd)">
<rect width="300.605" height="440.079" rx="30.1318" transform="matrix(0.991445 -0.130526 -0.0579125 0.998322 711.451 103.95)" fill="white"/>
</g>
<line y1="-1.63494" x2="299.323" y2="-1.63494" transform="matrix(0.991445 -0.130526 -0.0579125 0.998322 705.538 227.635)" stroke="#EFEFF5" stroke-width="3.26988"/>
<line y1="-1.63494" x2="299.323" y2="-1.63494" transform="matrix(0.991445 -0.130526 -0.0579125 0.998322 701.91 290.18)" stroke="#EFEFF5" stroke-width="3.26988"/>
<line y1="-1.63494" x2="299.323" y2="-1.63494" transform="matrix(0.991445 -0.130526 -0.0579125 0.998322 698.281 352.726)" stroke="#EFEFF5" stroke-width="3.26988"/>
<line y1="-1.63494" x2="299.323" y2="-1.63494" transform="matrix(0.991445 -0.130526 -0.0579125 0.998322 694.882 411.33)" stroke="#EFEFF5" stroke-width="3.26988"/>
<line y1="-1.63494" x2="299.323" y2="-1.63494" transform="matrix(0.991445 -0.130526 -0.0579125 0.998322 691.254 473.875)" stroke="#EFEFF5" stroke-width="3.26988"/>
<path d="M709.846 132.85C710.753 117.225 724.067 102.902 739.584 100.859L981.845 68.9648C997.362 66.922 1009.21 77.9324 1008.3 93.5573L1006.64 122.265L708.181 161.557L709.846 132.85Z" fill="#7545FF"/>
<rect opacity="0.9" width="62.7709" height="11.4012" rx="5.70062" transform="matrix(0.991445 -0.130526 -0.0579125 0.998322 541.928 147.36)" fill="#9292C8"/>
<rect width="106.557" height="11.4012" rx="5.70062" transform="matrix(0.991445 -0.130526 -0.0579125 0.998322 540.938 164.433)" fill="#E9E9FB"/>
<g filter="url(#filter21_d)">
<circle r="21.3032" transform="matrix(0.991445 -0.130526 -0.0579125 0.998322 73.5933 151.364)" fill="#7545FF"/>
</g>
<circle opacity="0.8" r="21.3032" transform="matrix(0.991445 -0.130526 -0.0579125 0.998322 70.0884 211.786)" fill="#9292C8"/>
<circle opacity="0.8" r="21.3032" transform="matrix(0.991445 -0.130526 -0.0579125 0.998322 66.5835 272.207)" fill="#9292C8"/>
<circle opacity="0.8" r="21.3032" transform="matrix(0.991445 -0.130526 -0.0579125 0.998322 63.0787 332.628)" fill="#9292C8"/>
<circle opacity="0.8" r="21.3032" transform="matrix(0.991445 -0.130526 -0.0579125 0.998322 59.5738 393.049)" fill="#9292C8"/>
<circle opacity="0.6" r="21.3032" transform="matrix(0.991445 -0.130526 -0.0579125 0.998322 47.0425 609.069)" fill="#9292C8"/>
</g>
<defs>
<filter id="filter0_dd" x="-121.193" y="-160.352" width="1404.58" height="969.958" filterUnits="userSpaceOnUse" color-interpolation-filters="sRGB">
<feFlood flood-opacity="0" result="BackgroundImageFix"/>
<feColorMatrix in="SourceAlpha" type="matrix" values="0 0 0 0 0 0 0 0 0 0 0 0 0 0 0 0 0 0 127 0"/>
<feOffset dy="15.2595"/>
<feGaussianBlur stdDeviation="62.1278"/>
<feColorMatrix type="matrix" values="0 0 0 0 0.0593252 0 0 0 0 0.0578472 0 0 0 0 0.204167 0 0 0 0.05 0"/>
<feBlend mode="normal" in2="BackgroundImageFix" result="effect1_dropShadow"/>
<feColorMatrix in="SourceAlpha" type="matrix" values="0 0 0 0 0 0 0 0 0 0 0 0 0 0 0 0 0 0 127 0"/>
<feOffset dy="47.9583"/>
<feGaussianBlur stdDeviation="40.3286"/>
<feColorMatrix type="matrix" values="0 0 0 0 0.460416 0 0 0 0 0.270833 0 0 0 0 1 0 0 0 0.02 0"/>
<feBlend mode="normal" in2="effect1_dropShadow" result="effect2_dropShadow"/>
<feBlend mode="normal" in="SourceGraphic" in2="effect2_dropShadow" result="shape"/>
</filter>
<filter id="filter1_ddd" x="116.137" y="284.503" width="584.27" height="366.344" filterUnits="userSpaceOnUse" color-interpolation-filters="sRGB">
<feFlood flood-opacity="0" result="BackgroundImageFix"/>
<feColorMatrix in="SourceAlpha" type="matrix" values="0 0 0 0 0 0 0 0 0 0 0 0 0 0 0 0 0 0 127 0"/>
<feOffset dy="3.2575"/>
<feGaussianBlur stdDeviation="8.95812"/>
<feColorMatrix type="matrix" values="0 0 0 0 0.0494858 0 0 0 0 0.0466319 0 0 0 0 0.329167 0 0 0 0.02 0"/>
<feBlend mode="normal" in2="BackgroundImageFix" result="effect1_dropShadow"/>
<feColorMatrix in="SourceAlpha" type="matrix" values="0 0 0 0 0 0 0 0 0 0 0 0 0 0 0 0 0 0 127 0"/>
<feOffset dy="7.32937"/>
<feGaussianBlur stdDeviation="16.2875"/>
<feColorMatrix type="matrix" values="0 0 0 0 0.460416 0 0 0 0 0.270833 0 0 0 0 1 0 0 0 0.03 0"/>
<feBlend mode="normal" in2="effect1_dropShadow" result="effect2_dropShadow"/>
<feColorMatrix in="SourceAlpha" type="matrix" values="0 0 0 0 0 0 0 0 0 0 0 0 0 0 0 0 0 0 127 0"/>
<feOffset dy="-0.814374"/>
<feGaussianBlur stdDeviation="3.2575"/>
<feColorMatrix type="matrix" values="0 0 0 0 0.208782 0 0 0 0 0.149844 0 0 0 0 0.570833 0 0 0 0.02 0"/>
<feBlend mode="normal" in2="effect2_dropShadow" result="effect3_dropShadow"/>
<feBlend mode="normal" in="SourceGraphic" in2="effect3_dropShadow" result="shape"/>
</filter>
<filter id="filter2_d" x="188.117" y="384.04" width="40.1468" height="41.0532" filterUnits="userSpaceOnUse" color-interpolation-filters="sRGB">
<feFlood flood-opacity="0" result="BackgroundImageFix"/>
<feColorMatrix in="SourceAlpha" type="matrix" values="0 0 0 0 0 0 0 0 0 0 0 0 0 0 0 0 0 0 127 0"/>
<feOffset dy="3.2575"/>
<feGaussianBlur stdDeviation="4.07187"/>
<feColorMatrix type="matrix" values="0 0 0 0 0.460416 0 0 0 0 0.270833 0 0 0 0 1 0 0 0 0.18 0"/>
<feBlend mode="normal" in2="BackgroundImageFix" result="effect1_dropShadow"/>
<feBlend mode="normal" in="SourceGraphic" in2="effect1_dropShadow" result="shape"/>
</filter>
<filter id="filter3_d" x="281.233" y="371.781" width="40.1468" height="41.0532" filterUnits="userSpaceOnUse" color-interpolation-filters="sRGB">
<feFlood flood-opacity="0" result="BackgroundImageFix"/>
<feColorMatrix in="SourceAlpha" type="matrix" values="0 0 0 0 0 0 0 0 0 0 0 0 0 0 0 0 0 0 127 0"/>
<feOffset dy="3.2575"/>
<feGaussianBlur stdDeviation="4.07187"/>
<feColorMatrix type="matrix" values="0 0 0 0 0.0888541 0 0 0 0 0.046875 0 0 0 0 0.208333 0 0 0 0.12 0"/>
<feBlend mode="normal" in2="BackgroundImageFix" result="effect1_dropShadow"/>
<feBlend mode="normal" in="SourceGraphic" in2="effect1_dropShadow" result="shape"/>
</filter>
<filter id="filter4_d" x="205.693" y="518.452" width="44.8513" height="78.0449" filterUnits="userSpaceOnUse" color-interpolation-filters="sRGB">
<feFlood flood-opacity="0" result="BackgroundImageFix"/>
<feColorMatrix in="SourceAlpha" type="matrix" values="0 0 0 0 0 0 0 0 0 0 0 0 0 0 0 0 0 0 127 0"/>
<feOffset dy="4.07187"/>
<feGaussianBlur stdDeviation="5.70062"/>
<feColorMatrix type="matrix" values="0 0 0 0 0.460416 0 0 0 0 0.270833 0 0 0 0 1 0 0 0 0.17 0"/>
<feBlend mode="normal" in2="BackgroundImageFix" result="effect1_dropShadow"/>
<feBlend mode="normal" in="SourceGraphic" in2="effect1_dropShadow" result="shape"/>
</filter>
<filter id="filter5_d" x="282.04" y="481.795" width="46.3947" height="104.65" filterUnits="userSpaceOnUse" color-interpolation-filters="sRGB">
<feFlood flood-opacity="0" result="BackgroundImageFix"/>
<feColorMatrix in="SourceAlpha" type="matrix" values="0 0 0 0 0 0 0 0 0 0 0 0 0 0 0 0 0 0 127 0"/>
<feOffset dy="4.07187"/>
<feGaussianBlur stdDeviation="5.70062"/>
<feColorMatrix type="matrix" values="0 0 0 0 0.460416 0 0 0 0 0.270833 0 0 0 0 1 0 0 0 0.17 0"/>
<feBlend mode="normal" in2="BackgroundImageFix" result="effect1_dropShadow"/>
<feBlend mode="normal" in="SourceGraphic" in2="effect1_dropShadow" result="shape"/>
</filter>
<filter id="filter6_d" x="358.388" y="439.478" width="48.2665" height="136.916" filterUnits="userSpaceOnUse" color-interpolation-filters="sRGB">
<feFlood flood-opacity="0" result="BackgroundImageFix"/>
<feColorMatrix in="SourceAlpha" type="matrix" values="0 0 0 0 0 0 0 0 0 0 0 0 0 0 0 0 0 0 127 0"/>
<feOffset dy="4.07187"/>
<feGaussianBlur stdDeviation="5.70062"/>
<feColorMatrix type="matrix" values="0 0 0 0 0.460416 0 0 0 0 0.270833 0 0 0 0 1 0 0 0 0.17 0"/>
<feBlend mode="normal" in2="BackgroundImageFix" result="effect1_dropShadow"/>
<feBlend mode="normal" in="SourceGraphic" in2="effect1_dropShadow" result="shape"/>
</filter>
<filter id="filter7_d" x="434.735" y="399.99" width="49.974" height="166.352" filterUnits="userSpaceOnUse" color-interpolation-filters="sRGB">
<feFlood flood-opacity="0" result="BackgroundImageFix"/>
<feColorMatrix in="SourceAlpha" type="matrix" values="0 0 0 0 0 0 0 0 0 0 0 0 0 0 0 0 0 0 127 0"/>
<feOffset dy="4.07187"/>
<feGaussianBlur stdDeviation="5.70062"/>
<feColorMatrix type="matrix" values="0 0 0 0 0.460416 0 0 0 0 0.270833 0 0 0 0 1 0 0 0 0.17 0"/>
<feBlend mode="normal" in2="BackgroundImageFix" result="effect1_dropShadow"/>
<feBlend mode="normal" in="SourceGraphic" in2="effect1_dropShadow" result="shape"/>
</filter>
<filter id="filter8_d" x="511.083" y="368.428" width="51.2219" height="187.863" filterUnits="userSpaceOnUse" color-interpolation-filters="sRGB">
<feFlood flood-opacity="0" result="BackgroundImageFix"/>
<feColorMatrix in="SourceAlpha" type="matrix" values="0 0 0 0 0 0 0 0 0 0 0 0 0 0 0 0 0 0 127 0"/>
<feOffset dy="4.07187"/>
<feGaussianBlur stdDeviation="5.70062"/>
<feColorMatrix type="matrix" values="0 0 0 0 0.460416 0 0 0 0 0.270833 0 0 0 0 1 0 0 0 0.17 0"/>
<feBlend mode="normal" in2="BackgroundImageFix" result="effect1_dropShadow"/>
<feBlend mode="normal" in="SourceGraphic" in2="effect1_dropShadow" result="shape"/>
</filter>
<filter id="filter9_d" x="587.432" y="350.452" width="51.6816" height="195.788" filterUnits="userSpaceOnUse" color-interpolation-filters="sRGB">
<feFlood flood-opacity="0" result="BackgroundImageFix"/>
<feColorMatrix in="SourceAlpha" type="matrix" values="0 0 0 0 0 0 0 0 0 0 0 0 0 0 0 0 0 0 127 0"/>
<feOffset dy="4.07187"/>
<feGaussianBlur stdDeviation="5.70062"/>
<feColorMatrix type="matrix" values="0 0 0 0 0.460416 0 0 0 0 0.270833 0 0 0 0 1 0 0 0 0.17 0"/>
<feBlend mode="normal" in2="BackgroundImageFix" result="effect1_dropShadow"/>
<feBlend mode="normal" in="SourceGraphic" in2="effect1_dropShadow" result="shape"/>
</filter>
<filter id="filter10_dd" x="319.695" y="120.605" width="202.053" height="217.751" filterUnits="userSpaceOnUse" color-interpolation-filters="sRGB">
<feFlood flood-opacity="0" result="BackgroundImageFix"/>
<feColorMatrix in="SourceAlpha" type="matrix" values="0 0 0 0 0 0 0 0 0 0 0 0 0 0 0 0 0 0 127 0"/>
<feOffset dy="3.2575"/>
<feGaussianBlur stdDeviation="6.10781"/>
<feColorMatrix type="matrix" values="0 0 0 0 0.0494858 0 0 0 0 0.0466319 0 0 0 0 0.329167 0 0 0 0.03 0"/>
<feBlend mode="normal" in2="BackgroundImageFix" result="effect1_dropShadow"/>
<feColorMatrix in="SourceAlpha" type="matrix" values="0 0 0 0 0 0 0 0 0 0 0 0 0 0 0 0 0 0 127 0"/>
<feOffset dy="4.88624"/>
<feGaussianBlur stdDeviation="9.77249"/>
<feColorMatrix type="matrix" values="0 0 0 0 0.460416 0 0 0 0 0.270833 0 0 0 0 1 0 0 0 0.04 0"/>
<feBlend mode="normal" in2="effect1_dropShadow" result="effect2_dropShadow"/>
<feBlend mode="normal" in="SourceGraphic" in2="effect2_dropShadow" result="shape"/>
</filter>
<filter id="filter11_d" x="406.21" y="230.505" width="61.6016" height="73.6226" filterUnits="userSpaceOnUse" color-interpolation-filters="sRGB">
<feFlood flood-opacity="0" result="BackgroundImageFix"/>
<feColorMatrix in="SourceAlpha" type="matrix" values="0 0 0 0 0 0 0 0 0 0 0 0 0 0 0 0 0 0 127 0"/>
<feOffset dy="4.59855"/>
<feGaussianBlur stdDeviation="2.29928"/>
<feColorMatrix type="matrix" values="0 0 0 0 0.460416 0 0 0 0 0.270833 0 0 0 0 1 0 0 0 0.09 0"/>
<feBlend mode="normal" in2="BackgroundImageFix" result="effect1_dropShadow"/>
<feBlend mode="normal" in="SourceGraphic" in2="effect1_dropShadow" result="shape"/>
</filter>
<filter id="filter12_d" x="387.74" y="206.037" width="79.8221" height="48.6481" filterUnits="userSpaceOnUse" color-interpolation-filters="sRGB">
<feFlood flood-opacity="0" result="BackgroundImageFix"/>
<feColorMatrix in="SourceAlpha" type="matrix" values="0 0 0 0 0 0 0 0 0 0 0 0 0 0 0 0 0 0 127 0"/>
<feOffset dy="4.59855"/>
<feGaussianBlur stdDeviation="2.29928"/>
<feColorMatrix type="matrix" values="0 0 0 0 0.460416 0 0 0 0 0.270833 0 0 0 0 1 0 0 0 0.09 0"/>
<feBlend mode="normal" in2="BackgroundImageFix" result="effect1_dropShadow"/>
<feBlend mode="normal" in="SourceGraphic" in2="effect1_dropShadow" result="shape"/>
</filter>
<filter id="filter13_dd" x="145.224" y="143.574" width="202.053" height="217.751" filterUnits="userSpaceOnUse" color-interpolation-filters="sRGB">
<feFlood flood-opacity="0" result="BackgroundImageFix"/>
<feColorMatrix in="SourceAlpha" type="matrix" values="0 0 0 0 0 0 0 0 0 0 0 0 0 0 0 0 0 0 127 0"/>
<feOffset dy="3.2575"/>
<feGaussianBlur stdDeviation="6.10781"/>
<feColorMatrix type="matrix" values="0 0 0 0 0.0494858 0 0 0 0 0.0466319 0 0 0 0 0.329167 0 0 0 0.03 0"/>
<feBlend mode="normal" in2="BackgroundImageFix" result="effect1_dropShadow"/>
<feColorMatrix in="SourceAlpha" type="matrix" values="0 0 0 0 0 0 0 0 0 0 0 0 0 0 0 0 0 0 127 0"/>
<feOffset dy="4.88624"/>
<feGaussianBlur stdDeviation="9.77249"/>
<feColorMatrix type="matrix" values="0 0 0 0 0.460416 0 0 0 0 0.270833 0 0 0 0 1 0 0 0 0.04 0"/>
<feBlend mode="normal" in2="effect1_dropShadow" result="effect2_dropShadow"/>
<feBlend mode="normal" in="SourceGraphic" in2="effect2_dropShadow" result="shape"/>
</filter>
<filter id="filter14_d" x="205.992" y="227.914" width="63.3275" height="40.7679" filterUnits="userSpaceOnUse" color-interpolation-filters="sRGB">
<feFlood flood-opacity="0" result="BackgroundImageFix"/>
<feColorMatrix in="SourceAlpha" type="matrix" values="0 0 0 0 0 0 0 0 0 0 0 0 0 0 0 0 0 0 127 0"/>
<feOffset dy="4.42036"/>
<feGaussianBlur stdDeviation="2.21018"/>
<feColorMatrix type="matrix" values="0 0 0 0 0.460416 0 0 0 0 0.270833 0 0 0 0 1 0 0 0 0.09 0"/>
<feBlend mode="normal" in2="BackgroundImageFix" result="effect1_dropShadow"/>
<feBlend mode="normal" in="SourceGraphic" in2="effect1_dropShadow" result="shape"/>
</filter>
<filter id="filter15_d" x="198.186" y="247.625" width="41.8827" height="73.8015" filterUnits="userSpaceOnUse" color-interpolation-filters="sRGB">
<feFlood flood-opacity="0" result="BackgroundImageFix"/>
<feColorMatrix in="SourceAlpha" type="matrix" values="0 0 0 0 0 0 0 0 0 0 0 0 0 0 0 0 0 0 127 0"/>
<feOffset dy="4.42036"/>
<feGaussianBlur stdDeviation="2.21018"/>
<feColorMatrix type="matrix" values="0 0 0 0 0.460416 0 0 0 0 0.270833 0 0 0 0 1 0 0 0 0.09 0"/>
<feBlend mode="normal" in2="BackgroundImageFix" result="effect1_dropShadow"/>
<feBlend mode="normal" in="SourceGraphic" in2="effect1_dropShadow" result="shape"/>
</filter>
<filter id="filter16_d" x="248.002" y="228.587" width="43.6186" height="79.5399" filterUnits="userSpaceOnUse" color-interpolation-filters="sRGB">
<feFlood flood-opacity="0" result="BackgroundImageFix"/>
<feColorMatrix in="SourceAlpha" type="matrix" values="0 0 0 0 0 0 0 0 0 0 0 0 0 0 0 0 0 0 127 0"/>
<feOffset dy="4.42036"/>
<feGaussianBlur stdDeviation="2.21018"/>
<feColorMatrix type="matrix" values="0 0 0 0 0.460416 0 0 0 0 0.270833 0 0 0 0 1 0 0 0 0.09 0"/>
<feBlend mode="normal" in2="BackgroundImageFix" result="effect1_dropShadow"/>
<feBlend mode="normal" in="SourceGraphic" in2="effect1_dropShadow" result="shape"/>
</filter>
<filter id="filter17_dd" x="496.638" y="96.9924" width="202.071" height="218.069" filterUnits="userSpaceOnUse" color-interpolation-filters="sRGB">
<feFlood flood-opacity="0" result="BackgroundImageFix"/>
<feColorMatrix in="SourceAlpha" type="matrix" values="0 0 0 0 0 0 0 0 0 0 0 0 0 0 0 0 0 0 127 0"/>
<feOffset dy="3.2575"/>
<feGaussianBlur stdDeviation="6.10781"/>
<feColorMatrix type="matrix" values="0 0 0 0 0.0494858 0 0 0 0 0.0466319 0 0 0 0 0.329167 0 0 0 0.03 0"/>
<feBlend mode="normal" in2="BackgroundImageFix" result="effect1_dropShadow"/>
<feColorMatrix in="SourceAlpha" type="matrix" values="0 0 0 0 0 0 0 0 0 0 0 0 0 0 0 0 0 0 127 0"/>
<feOffset dy="4.88624"/>
<feGaussianBlur stdDeviation="9.77249"/>
<feColorMatrix type="matrix" values="0 0 0 0 0.460416 0 0 0 0 0.270833 0 0 0 0 1 0 0 0 0.04 0"/>
<feBlend mode="normal" in2="effect1_dropShadow" result="effect2_dropShadow"/>
<feBlend mode="normal" in="SourceGraphic" in2="effect2_dropShadow" result="shape"/>
</filter>
<filter id="filter18_d" x="557.241" y="184.472" width="63.3275" height="40.7679" filterUnits="userSpaceOnUse" color-interpolation-filters="sRGB">
<feFlood flood-opacity="0" result="BackgroundImageFix"/>
<feColorMatrix in="SourceAlpha" type="matrix" values="0 0 0 0 0 0 0 0 0 0 0 0 0 0 0 0 0 0 127 0"/>
<feOffset dy="4.42036"/>
<feGaussianBlur stdDeviation="2.21018"/>
<feColorMatrix type="matrix" values="0 0 0 0 0.460416 0 0 0 0 0.270833 0 0 0 0 1 0 0 0 0.09 0"/>
<feBlend mode="normal" in2="BackgroundImageFix" result="effect1_dropShadow"/>
<feBlend mode="normal" in="SourceGraphic" in2="effect1_dropShadow" result="shape"/>
</filter>
<filter id="filter19_d" x="549.435" y="204.936" width="87.2875" height="74.1359" filterUnits="userSpaceOnUse" color-interpolation-filters="sRGB">
<feFlood flood-opacity="0" result="BackgroundImageFix"/>
<feColorMatrix in="SourceAlpha" type="matrix" values="0 0 0 0 0 0 0 0 0 0 0 0 0 0 0 0 0 0 127 0"/>
<feOffset dy="4.42036"/>
<feGaussianBlur stdDeviation="2.21018"/>
<feColorMatrix type="matrix" values="0 0 0 0 0.460416 0 0 0 0 0.270833 0 0 0 0 1 0 0 0 0.09 0"/>
<feBlend mode="normal" in2="BackgroundImageFix" result="effect1_dropShadow"/>
<feBlend mode="normal" in="SourceGraphic" in2="effect1_dropShadow" result="shape"/>
</filter>
<filter id="filter20_dd" x="668.113" y="53.7277" width="359.223" height="510.32" filterUnits="userSpaceOnUse" color-interpolation-filters="sRGB">
<feFlood flood-opacity="0" result="BackgroundImageFix"/>
<feColorMatrix in="SourceAlpha" type="matrix" values="0 0 0 0 0 0 0 0 0 0 0 0 0 0 0 0 0 0 127 0"/>
<feOffset dy="3.2575"/>
<feGaussianBlur stdDeviation="6.10781"/>
<feColorMatrix type="matrix" values="0 0 0 0 0.0494858 0 0 0 0 0.0466319 0 0 0 0 0.329167 0 0 0 0.03 0"/>
<feBlend mode="normal" in2="BackgroundImageFix" result="effect1_dropShadow"/>
<feColorMatrix in="SourceAlpha" type="matrix" values="0 0 0 0 0 0 0 0 0 0 0 0 0 0 0 0 0 0 127 0"/>
<feOffset dy="4.88624"/>
<feGaussianBlur stdDeviation="9.77249"/>
<feColorMatrix type="matrix" values="0 0 0 0 0.460416 0 0 0 0 0.270833 0 0 0 0 1 0 0 0 0.04 0"/>
<feBlend mode="normal" in2="effect1_dropShadow" result="effect2_dropShadow"/>
<feBlend mode="normal" in="SourceGraphic" in2="effect2_dropShadow" result="shape"/>
</filter>
<filter id="filter21_d" x="41.0343" y="121.77" width="65.1177" height="65.7043" filterUnits="userSpaceOnUse" color-interpolation-filters="sRGB">
<feFlood flood-opacity="0" result="BackgroundImageFix"/>
<feColorMatrix in="SourceAlpha" type="matrix" values="0 0 0 0 0 0 0 0 0 0 0 0 0 0 0 0 0 0 127 0"/>
<feOffset dy="3.2575"/>
<feGaussianBlur stdDeviation="5.70062"/>
<feColorMatrix type="matrix" values="0 0 0 0 0.460416 0 0 0 0 0.270833 0 0 0 0 1 0 0 0 0.15 0"/>
<feBlend mode="normal" in2="BackgroundImageFix" result="effect1_dropShadow"/>
<feBlend mode="normal" in="SourceGraphic" in2="effect1_dropShadow" result="shape"/>
</filter>
</defs>
</svg>
