<svg width="624" height="351" viewBox="0 0 624 351" fill="none" xmlns="http://www.w3.org/2000/svg">
<mask id="mask0" mask-type="alpha" maskUnits="userSpaceOnUse" x="0" y="0" width="624" height="351">
<rect width="624" height="351" fill="url(#paint0_linear)"/>
</mask>
<g mask="url(#mask0)">
<rect width="624" height="351" fill="url(#paint1_linear)"/>
<mask id="mask1" mask-type="alpha" maskUnits="userSpaceOnUse" x="0" y="0" width="625" height="351">
<rect width="624" height="351" fill="#3C16A8"/>
</mask>
<g mask="url(#mask1)">
<circle cx="402.708" cy="120.682" r="3" fill="#6E6AD2"/>
<circle cx="416.708" cy="120.682" r="3" fill="#6E6AD2"/>
<circle cx="430.708" cy="120.682" r="3" fill="#6E6AD2"/>
<circle cx="444.708" cy="120.682" r="3" fill="#6E6AD2"/>
<circle cx="458.708" cy="120.682" r="3" fill="#6E6AD2"/>
<circle cx="472.708" cy="120.682" r="3" fill="#6E6AD2"/>
<circle cx="486.708" cy="120.682" r="3" fill="#6E6AD2"/>
<circle cx="402.708" cy="134.682" r="3" fill="#6E6AD2"/>
<circle cx="416.708" cy="134.682" r="3" fill="#6E6AD2"/>
<circle cx="430.708" cy="134.682" r="3" fill="#6E6AD2"/>
<circle cx="444.708" cy="134.682" r="3" fill="#6E6AD2"/>
<circle cx="458.708" cy="134.682" r="3" fill="#6E6AD2"/>
<circle cx="472.708" cy="134.682" r="3" fill="#6E6AD2"/>
<circle cx="486.708" cy="134.682" r="3" fill="#6E6AD2"/>
<circle cx="402.708" cy="148.682" r="3" fill="#6E6AD2"/>
<circle cx="416.708" cy="148.682" r="3" fill="#6E6AD2"/>
<circle cx="430.708" cy="148.682" r="3" fill="#6E6AD2"/>
<circle cx="444.708" cy="148.682" r="3" fill="#6E6AD2"/>
<circle cx="458.708" cy="148.682" r="3" fill="#6E6AD2"/>
<circle cx="472.708" cy="148.682" r="3" fill="#6E6AD2"/>
<circle cx="486.708" cy="148.682" r="3" fill="#6E6AD2"/>
<circle cx="402.708" cy="162.682" r="3" fill="#6E6AD2"/>
<circle cx="416.708" cy="162.682" r="3" fill="#6E6AD2"/>
<circle cx="430.708" cy="162.682" r="3" fill="#6E6AD2"/>
<circle cx="444.708" cy="162.682" r="3" fill="#6E6AD2"/>
<circle cx="458.708" cy="162.682" r="3" fill="#6E6AD2"/>
<circle cx="472.708" cy="162.682" r="3" fill="#6E6AD2"/>
<circle cx="486.708" cy="162.682" r="3" fill="#6E6AD2"/>
<circle cx="402.708" cy="176.682" r="3" fill="#6E6AD2"/>
<circle cx="416.708" cy="176.682" r="3" fill="#6E6AD2"/>
<circle cx="430.708" cy="176.682" r="3" fill="#6E6AD2"/>
<circle cx="444.708" cy="176.682" r="3" fill="#6E6AD2"/>
<circle cx="458.708" cy="176.682" r="3" fill="#6E6AD2"/>
<circle cx="472.708" cy="176.682" r="3" fill="#6E6AD2"/>
<circle cx="486.708" cy="176.682" r="3" fill="#6E6AD2"/>
<circle cx="402.708" cy="190.682" r="3" fill="#6E6AD2"/>
<circle cx="416.708" cy="190.682" r="3" fill="#6E6AD2"/>
<circle cx="430.708" cy="190.682" r="3" fill="#6E6AD2"/>
<circle cx="444.708" cy="190.682" r="3" fill="#6E6AD2"/>
<circle cx="458.708" cy="190.682" r="3" fill="#6E6AD2"/>
<circle cx="472.708" cy="190.682" r="3" fill="#6E6AD2"/>
<circle cx="486.708" cy="190.682" r="3" fill="#6E6AD2"/>
<circle cx="402.708" cy="204.682" r="3" fill="#6E6AD2"/>
<circle cx="416.708" cy="204.682" r="3" fill="#6E6AD2"/>
<circle cx="430.708" cy="204.682" r="3" fill="#6E6AD2"/>
<circle cx="444.708" cy="204.682" r="3" fill="#6E6AD2"/>
<circle cx="458.708" cy="204.682" r="3" fill="#6E6AD2"/>
<circle cx="472.708" cy="204.682" r="3" fill="#6E6AD2"/>
<circle cx="486.708" cy="204.682" r="3" fill="#6E6AD2"/>
<circle cx="402.708" cy="218.682" r="3" fill="#6E6AD2"/>
<circle cx="416.708" cy="218.682" r="3" fill="#6E6AD2"/>
<circle cx="430.708" cy="218.682" r="3" fill="#6E6AD2"/>
<circle cx="444.708" cy="218.682" r="3" fill="#6E6AD2"/>
<circle cx="458.708" cy="218.682" r="3" fill="#6E6AD2"/>
<circle cx="472.708" cy="218.682" r="3" fill="#6E6AD2"/>
<circle cx="486.708" cy="218.682" r="3" fill="#6E6AD2"/>
<circle cx="402.708" cy="232.682" r="3" fill="#6E6AD2"/>
<circle cx="416.708" cy="232.682" r="3" fill="#6E6AD2"/>
<circle cx="430.708" cy="232.682" r="3" fill="#6E6AD2"/>
<circle cx="444.708" cy="232.682" r="3" fill="#6E6AD2"/>
<circle cx="458.708" cy="232.682" r="3" fill="#6E6AD2"/>
<circle cx="472.708" cy="232.682" r="3" fill="#6E6AD2"/>
<circle cx="486.708" cy="232.682" r="3" fill="#6E6AD2"/>
<circle cx="402.708" cy="246.682" r="3" fill="#6E6AD2"/>
<circle cx="416.708" cy="246.682" r="3" fill="#6E6AD2"/>
<circle cx="430.708" cy="246.682" r="3" fill="#6E6AD2"/>
<circle cx="444.708" cy="246.682" r="3" fill="#6E6AD2"/>
<circle cx="458.708" cy="246.682" r="3" fill="#6E6AD2"/>
<circle cx="472.708" cy="246.682" r="3" fill="#6E6AD2"/>
<circle cx="486.708" cy="246.682" r="3" fill="#6E6AD2"/>
<circle cx="402.708" cy="260.682" r="3" fill="#6E6AD2"/>
<circle cx="416.708" cy="260.682" r="3" fill="#6E6AD2"/>
<circle cx="430.708" cy="260.682" r="3" fill="#6E6AD2"/>
<circle cx="444.708" cy="260.682" r="3" fill="#6E6AD2"/>
<circle cx="458.708" cy="260.682" r="3" fill="#6E6AD2"/>
<circle cx="472.708" cy="260.682" r="3" fill="#6E6AD2"/>
<circle cx="486.708" cy="260.682" r="3" fill="#6E6AD2"/>
<circle cx="402.708" cy="274.682" r="3" fill="#6E6AD2"/>
<circle cx="416.708" cy="274.682" r="3" fill="#6E6AD2"/>
<circle cx="430.708" cy="274.682" r="3" fill="#6E6AD2"/>
<circle cx="444.708" cy="274.682" r="3" fill="#6E6AD2"/>
<circle cx="458.708" cy="274.682" r="3" fill="#6E6AD2"/>
<circle cx="472.708" cy="274.682" r="3" fill="#6E6AD2"/>
<circle cx="486.708" cy="274.682" r="3" fill="#6E6AD2"/>
<circle cx="500.708" cy="120.682" r="3" fill="#6E6AD2"/>
<circle cx="514.708" cy="120.682" r="3" fill="#6E6AD2"/>
<circle cx="528.708" cy="120.682" r="3" fill="#6E6AD2"/>
<circle cx="542.708" cy="120.682" r="3" fill="#6E6AD2"/>
<circle cx="556.708" cy="120.682" r="3" fill="#6E6AD2"/>
<circle cx="570.708" cy="120.682" r="3" fill="#6E6AD2"/>
<circle cx="584.708" cy="120.682" r="3" fill="#6E6AD2"/>
<circle cx="500.708" cy="134.682" r="3" fill="#6E6AD2"/>
<circle cx="514.708" cy="134.682" r="3" fill="#6E6AD2"/>
<circle cx="528.708" cy="134.682" r="3" fill="#6E6AD2"/>
<circle cx="542.708" cy="134.682" r="3" fill="#6E6AD2"/>
<circle cx="556.708" cy="134.682" r="3" fill="#6E6AD2"/>
<circle cx="570.708" cy="134.682" r="3" fill="#6E6AD2"/>
<circle cx="584.708" cy="134.682" r="3" fill="#6E6AD2"/>
<circle cx="500.708" cy="148.682" r="3" fill="#6E6AD2"/>
<circle cx="514.708" cy="148.682" r="3" fill="#6E6AD2"/>
<circle cx="528.708" cy="148.682" r="3" fill="#6E6AD2"/>
<circle cx="542.708" cy="148.682" r="3" fill="#6E6AD2"/>
<circle cx="556.708" cy="148.682" r="3" fill="#6E6AD2"/>
<circle cx="570.708" cy="148.682" r="3" fill="#6E6AD2"/>
<circle cx="584.708" cy="148.682" r="3" fill="#6E6AD2"/>
<circle cx="500.708" cy="162.682" r="3" fill="#6E6AD2"/>
<circle cx="514.708" cy="162.682" r="3" fill="#6E6AD2"/>
<circle cx="528.708" cy="162.682" r="3" fill="#6E6AD2"/>
<circle cx="542.708" cy="162.682" r="3" fill="#6E6AD2"/>
<circle cx="556.708" cy="162.682" r="3" fill="#6E6AD2"/>
<circle cx="570.708" cy="162.682" r="3" fill="#6E6AD2"/>
<circle cx="584.708" cy="162.682" r="3" fill="#6E6AD2"/>
<circle cx="500.708" cy="176.682" r="3" fill="#6E6AD2"/>
<circle cx="514.708" cy="176.682" r="3" fill="#6E6AD2"/>
<circle cx="528.708" cy="176.682" r="3" fill="#6E6AD2"/>
<circle cx="542.708" cy="176.682" r="3" fill="#6E6AD2"/>
<circle cx="556.708" cy="176.682" r="3" fill="#6E6AD2"/>
<circle cx="570.708" cy="176.682" r="3" fill="#6E6AD2"/>
<circle cx="584.708" cy="176.682" r="3" fill="#6E6AD2"/>
<circle cx="500.708" cy="190.682" r="3" fill="#6E6AD2"/>
<circle cx="514.708" cy="190.682" r="3" fill="#6E6AD2"/>
<circle cx="528.708" cy="190.682" r="3" fill="#6E6AD2"/>
<circle cx="542.708" cy="190.682" r="3" fill="#6E6AD2"/>
<circle cx="556.708" cy="190.682" r="3" fill="#6E6AD2"/>
<circle cx="570.708" cy="190.682" r="3" fill="#6E6AD2"/>
<circle cx="584.708" cy="190.682" r="3" fill="#6E6AD2"/>
<circle cx="500.708" cy="204.682" r="3" fill="#6E6AD2"/>
<circle cx="514.708" cy="204.682" r="3" fill="#6E6AD2"/>
<circle cx="528.708" cy="204.682" r="3" fill="#6E6AD2"/>
<circle cx="542.708" cy="204.682" r="3" fill="#6E6AD2"/>
<circle cx="556.708" cy="204.682" r="3" fill="#6E6AD2"/>
<circle cx="570.708" cy="204.682" r="3" fill="#6E6AD2"/>
<circle cx="584.708" cy="204.682" r="3" fill="#6E6AD2"/>
<circle cx="500.708" cy="218.682" r="3" fill="#6E6AD2"/>
<circle cx="514.708" cy="218.682" r="3" fill="#6E6AD2"/>
<circle cx="528.708" cy="218.682" r="3" fill="#6E6AD2"/>
<circle cx="542.708" cy="218.682" r="3" fill="#6E6AD2"/>
<circle cx="556.708" cy="218.682" r="3" fill="#6E6AD2"/>
<circle cx="570.708" cy="218.682" r="3" fill="#6E6AD2"/>
<circle cx="584.708" cy="218.682" r="3" fill="#6E6AD2"/>
<circle cx="500.708" cy="232.682" r="3" fill="#6E6AD2"/>
<circle cx="514.708" cy="232.682" r="3" fill="#6E6AD2"/>
<circle cx="528.708" cy="232.682" r="3" fill="#6E6AD2"/>
<circle cx="542.708" cy="232.682" r="3" fill="#6E6AD2"/>
<circle cx="556.708" cy="232.682" r="3" fill="#6E6AD2"/>
<circle cx="570.708" cy="232.682" r="3" fill="#6E6AD2"/>
<circle cx="584.708" cy="232.682" r="3" fill="#6E6AD2"/>
<circle cx="500.708" cy="246.682" r="3" fill="#6E6AD2"/>
<circle cx="514.708" cy="246.682" r="3" fill="#6E6AD2"/>
<circle cx="528.708" cy="246.682" r="3" fill="#6E6AD2"/>
<circle cx="542.708" cy="246.682" r="3" fill="#6E6AD2"/>
<circle cx="556.708" cy="246.682" r="3" fill="#6E6AD2"/>
<circle cx="570.708" cy="246.682" r="3" fill="#6E6AD2"/>
<circle cx="584.708" cy="246.682" r="3" fill="#6E6AD2"/>
<circle cx="500.708" cy="260.682" r="3" fill="#6E6AD2"/>
<circle cx="514.708" cy="260.682" r="3" fill="#6E6AD2"/>
<circle cx="528.708" cy="260.682" r="3" fill="#6E6AD2"/>
<circle cx="542.708" cy="260.682" r="3" fill="#6E6AD2"/>
<circle cx="556.708" cy="260.682" r="3" fill="#6E6AD2"/>
<circle cx="570.708" cy="260.682" r="3" fill="#6E6AD2"/>
<circle cx="584.708" cy="260.682" r="3" fill="#6E6AD2"/>
<circle cx="500.708" cy="274.682" r="3" fill="#6E6AD2"/>
<circle cx="514.708" cy="274.682" r="3" fill="#6E6AD2"/>
<circle cx="528.708" cy="274.682" r="3" fill="#6E6AD2"/>
<circle cx="542.708" cy="274.682" r="3" fill="#6E6AD2"/>
<circle cx="556.708" cy="274.682" r="3" fill="#6E6AD2"/>
<circle cx="570.708" cy="274.682" r="3" fill="#6E6AD2"/>
<circle cx="584.708" cy="274.682" r="3" fill="#6E6AD2"/>
<path d="M35.5449 321.9H236L35.5449 115.156V321.9Z" fill="url(#paint2_linear)"/>
<path d="M-17.9102 380.072H182.545L-17.9102 173.328V380.072Z" fill="url(#paint3_linear)"/>
<path d="M230.036 -14.5312H636.896V336.469L326.039 244.587L230.036 -14.5312Z" fill="url(#paint4_linear)"/>
<circle cx="285" cy="44" r="3" fill="#BDA6FF"/>
<circle cx="299" cy="44" r="3" fill="#BDA6FF"/>
<circle cx="313" cy="44" r="3" fill="#BDA6FF"/>
<circle cx="285" cy="58" r="3" fill="#BDA6FF"/>
<circle cx="299" cy="58" r="3" fill="#BDA6FF"/>
<circle cx="313" cy="58" r="3" fill="#BDA6FF"/>
<circle cx="327" cy="58" r="3" fill="#BDA6FF"/>
<circle cx="341" cy="58" r="3" fill="#BDA6FF"/>
<circle cx="285" cy="72" r="3" fill="#BDA6FF"/>
<circle cx="299" cy="72" r="3" fill="#BDA6FF"/>
<circle cx="313" cy="72" r="3" fill="#BDA6FF"/>
<circle cx="327" cy="72" r="3" fill="#BDA6FF"/>
<circle cx="341" cy="72" r="3" fill="#BDA6FF"/>
<circle cx="355" cy="72" r="3" fill="#BDA6FF"/>
<circle cx="369" cy="72" r="3" fill="#BDA6FF"/>
</g>
<g filter="url(#filter0_dd)">
<rect x="114.067" y="88.9473" width="402.041" height="205.32" rx="26.8744" fill="white"/>
</g>
<line x1="165.421" y1="114.042" x2="165.421" y2="269.174" stroke="#EFEFF5" stroke-width="3.22492" stroke-linecap="round"/>
<line x1="220.782" y1="114.042" x2="220.782" y2="269.174" stroke="#EFEFF5" stroke-width="3.22492" stroke-linecap="round"/>
<line x1="276.144" y1="114.042" x2="276.144" y2="269.174" stroke="#EFEFF5" stroke-width="3.22492" stroke-linecap="round"/>
<line x1="331.504" y1="114.042" x2="331.504" y2="269.174" stroke="#EFEFF5" stroke-width="3.22492" stroke-linecap="round"/>
<line x1="386.865" y1="114.042" x2="386.865" y2="269.174" stroke="#EFEFF5" stroke-width="3.22492" stroke-linecap="round"/>
<line x1="442.228" y1="114.042" x2="442.228" y2="269.174" stroke="#EFEFF5" stroke-width="3.22492" stroke-linecap="round"/>
<path d="M169.966 205.438C158.238 205.011 144.146 221.6 137.794 231.547V260.392C137.794 269.298 145.013 276.517 153.919 276.517H467.494C476.399 276.517 483.618 269.298 483.618 260.392V126.578C467.795 146.471 448.816 182.364 430.098 187.321C407.969 193.182 397.802 161.745 370.402 162.811C343.002 163.877 339.525 205.438 317.911 205.438C296.297 205.438 290.636 172.402 269.537 173.467C248.437 174.533 244.32 225.685 219.618 224.62C194.917 223.554 184.624 205.97 169.966 205.438Z" fill="url(#paint5_linear)"/>
<g filter="url(#filter1_d)">
<path d="M137.794 227.958C144.146 218.352 158.238 202.33 169.966 202.742C184.624 203.256 194.917 220.239 219.618 221.268C244.32 222.297 248.437 172.894 269.537 171.865C290.636 170.835 296.297 202.742 317.911 202.742C339.525 202.742 343.002 162.601 370.402 161.572C397.802 160.543 407.969 190.905 430.098 185.245C448.816 180.457 467.795 145.791 483.618 126.578" stroke="#7545FF" stroke-width="5.37487" stroke-linecap="round"/>
</g>
<g filter="url(#filter2_d)">
<circle cx="220.655" cy="220.134" r="10.919" fill="#7545FF"/>
<circle cx="220.655" cy="220.134" r="9.57531" stroke="white" stroke-width="2.68744"/>
</g>
<g filter="url(#filter3_d)">
<circle cx="270.844" cy="173.31" r="10.919" fill="#7545FF"/>
<circle cx="270.844" cy="173.31" r="9.57531" stroke="white" stroke-width="2.68744"/>
</g>
<g filter="url(#filter4_d)">
<circle cx="481.763" cy="126.577" r="10.919" fill="#7545FF"/>
<circle cx="481.763" cy="126.577" r="9.57531" stroke="white" stroke-width="2.68744"/>
</g>
<g filter="url(#filter5_dd)">
<rect x="107.893" y="42.041" width="231.12" height="266.918" rx="26.8744" fill="white"/>
</g>
<circle cx="223.452" cy="204.648" r="68.1398" stroke="#EFEFF5" stroke-width="22.3434"/>
<g filter="url(#filter6_d)">
<path d="M246.062 140.368C232.016 135.428 216.738 135.224 202.565 139.788C188.392 144.353 176.104 153.434 167.58 165.643" stroke="#CAB7FF" stroke-width="22.3434" stroke-linecap="round"/>
</g>
<g filter="url(#filter7_d)">
<path d="M214.23 272.16C224.461 273.558 234.875 272.612 244.687 269.394C254.498 266.176 263.45 260.771 270.866 253.586C278.282 246.401 283.968 237.624 287.495 227.919C291.021 218.214 292.296 207.835 291.223 197.565" stroke="#3C16A8" stroke-width="22.3434" stroke-linecap="round"/>
</g>
<g filter="url(#filter8_d)">
<path d="M291.592 204.648C291.592 188.449 285.821 172.78 275.315 160.451C264.808 148.122 250.253 139.939 234.259 137.37" stroke="#7545FF" stroke-width="22.3434" stroke-linecap="round"/>
</g>
<rect x="187.104" y="199.334" width="72.6972" height="15.664" rx="7.83202" fill="#DADAE3"/>
<rect x="123.415" y="71.3535" width="70.9993" height="16.1246" rx="8.06231" fill="#9292C8"/>
<rect x="123.414" y="93.9062" width="104.99" height="12.635" rx="6.3175" fill="#E8E8F3"/>
<g filter="url(#filter9_d)">
<circle cx="265.495" cy="88.9487" r="8.35304" fill="#7545FF"/>
</g>
<circle cx="288.651" cy="88.9468" r="8.35304" fill="#CAB7FF"/>
<circle cx="311.805" cy="88.9468" r="8.35304" fill="#3C16A8"/>
</g>
<defs>
<filter id="filter0_dd" x="52.7938" y="35.1985" width="524.588" height="327.867" filterUnits="userSpaceOnUse" color-interpolation-filters="sRGB">
<feFlood flood-opacity="0" result="BackgroundImageFix"/>
<feColorMatrix in="SourceAlpha" type="matrix" values="0 0 0 0 0 0 0 0 0 0 0 0 0 0 0 0 0 0 127 0"/>
<feOffset dy="7.52482"/>
<feGaussianBlur stdDeviation="30.6368"/>
<feColorMatrix type="matrix" values="0 0 0 0 0.0593252 0 0 0 0 0.0578472 0 0 0 0 0.204167 0 0 0 0.09 0"/>
<feBlend mode="normal" in2="BackgroundImageFix" result="effect1_dropShadow"/>
<feColorMatrix in="SourceAlpha" type="matrix" values="0 0 0 0 0 0 0 0 0 0 0 0 0 0 0 0 0 0 127 0"/>
<feOffset dy="23.6494"/>
<feGaussianBlur stdDeviation="19.887"/>
<feColorMatrix type="matrix" values="0 0 0 0 0.460416 0 0 0 0 0.270833 0 0 0 0 1 0 0 0 0.04 0"/>
<feBlend mode="normal" in2="effect1_dropShadow" result="effect2_dropShadow"/>
<feBlend mode="normal" in="SourceGraphic" in2="effect2_dropShadow" result="shape"/>
</filter>
<filter id="filter1_d" x="125.432" y="119.053" width="370.549" height="126.105" filterUnits="userSpaceOnUse" color-interpolation-filters="sRGB">
<feFlood flood-opacity="0" result="BackgroundImageFix"/>
<feColorMatrix in="SourceAlpha" type="matrix" values="0 0 0 0 0 0 0 0 0 0 0 0 0 0 0 0 0 0 127 0"/>
<feOffset dy="4.83739"/>
<feGaussianBlur stdDeviation="4.83739"/>
<feColorMatrix type="matrix" values="0 0 0 0 0.460416 0 0 0 0 0.270833 0 0 0 0 1 0 0 0 0.09 0"/>
<feBlend mode="normal" in2="BackgroundImageFix" result="effect1_dropShadow"/>
<feBlend mode="normal" in="SourceGraphic" in2="effect1_dropShadow" result="shape"/>
</filter>
<filter id="filter2_d" x="206.511" y="208.14" width="28.2879" height="28.2879" filterUnits="userSpaceOnUse" color-interpolation-filters="sRGB">
<feFlood flood-opacity="0" result="BackgroundImageFix"/>
<feColorMatrix in="SourceAlpha" type="matrix" values="0 0 0 0 0 0 0 0 0 0 0 0 0 0 0 0 0 0 127 0"/>
<feOffset dy="2.14995"/>
<feGaussianBlur stdDeviation="1.61246"/>
<feColorMatrix type="matrix" values="0 0 0 0 0.460416 0 0 0 0 0.270833 0 0 0 0 1 0 0 0 0.2 0"/>
<feBlend mode="normal" in2="BackgroundImageFix" result="effect1_dropShadow"/>
<feBlend mode="normal" in="SourceGraphic" in2="effect1_dropShadow" result="shape"/>
</filter>
<filter id="filter3_d" x="256.7" y="161.316" width="28.2879" height="28.2879" filterUnits="userSpaceOnUse" color-interpolation-filters="sRGB">
<feFlood flood-opacity="0" result="BackgroundImageFix"/>
<feColorMatrix in="SourceAlpha" type="matrix" values="0 0 0 0 0 0 0 0 0 0 0 0 0 0 0 0 0 0 127 0"/>
<feOffset dy="2.14995"/>
<feGaussianBlur stdDeviation="1.61246"/>
<feColorMatrix type="matrix" values="0 0 0 0 0.460416 0 0 0 0 0.270833 0 0 0 0 1 0 0 0 0.2 0"/>
<feBlend mode="normal" in2="BackgroundImageFix" result="effect1_dropShadow"/>
<feBlend mode="normal" in="SourceGraphic" in2="effect1_dropShadow" result="shape"/>
</filter>
<filter id="filter4_d" x="467.619" y="114.583" width="28.2879" height="28.2879" filterUnits="userSpaceOnUse" color-interpolation-filters="sRGB">
<feFlood flood-opacity="0" result="BackgroundImageFix"/>
<feColorMatrix in="SourceAlpha" type="matrix" values="0 0 0 0 0 0 0 0 0 0 0 0 0 0 0 0 0 0 127 0"/>
<feOffset dy="2.14995"/>
<feGaussianBlur stdDeviation="1.61246"/>
<feColorMatrix type="matrix" values="0 0 0 0 0.460416 0 0 0 0 0.270833 0 0 0 0 1 0 0 0 0.2 0"/>
<feBlend mode="normal" in2="BackgroundImageFix" result="effect1_dropShadow"/>
<feBlend mode="normal" in="SourceGraphic" in2="effect1_dropShadow" result="shape"/>
</filter>
<filter id="filter5_dd" x="84.2431" y="25.9164" width="278.419" height="314.217" filterUnits="userSpaceOnUse" color-interpolation-filters="sRGB">
<feFlood flood-opacity="0" result="BackgroundImageFix"/>
<feColorMatrix in="SourceAlpha" type="matrix" values="0 0 0 0 0 0 0 0 0 0 0 0 0 0 0 0 0 0 127 0"/>
<feOffset dy="7.52482"/>
<feGaussianBlur stdDeviation="11.8247"/>
<feColorMatrix type="matrix" values="0 0 0 0 0.0593252 0 0 0 0 0.0578472 0 0 0 0 0.204167 0 0 0 0.05 0"/>
<feBlend mode="normal" in2="BackgroundImageFix" result="effect1_dropShadow"/>
<feColorMatrix in="SourceAlpha" type="matrix" values="0 0 0 0 0 0 0 0 0 0 0 0 0 0 0 0 0 0 127 0"/>
<feOffset dy="2.14995"/>
<feGaussianBlur stdDeviation="6.44985"/>
<feColorMatrix type="matrix" values="0 0 0 0 0.460416 0 0 0 0 0.270833 0 0 0 0 1 0 0 0 0.03 0"/>
<feBlend mode="normal" in2="effect1_dropShadow" result="effect2_dropShadow"/>
<feBlend mode="normal" in="SourceGraphic" in2="effect2_dropShadow" result="shape"/>
</filter>
<filter id="filter6_d" x="148.175" y="125.336" width="117.293" height="67.9433" filterUnits="userSpaceOnUse" color-interpolation-filters="sRGB">
<feFlood flood-opacity="0" result="BackgroundImageFix"/>
<feColorMatrix in="SourceAlpha" type="matrix" values="0 0 0 0 0 0 0 0 0 0 0 0 0 0 0 0 0 0 127 0"/>
<feOffset dy="8.23179"/>
<feGaussianBlur stdDeviation="4.1159"/>
<feColorMatrix type="matrix" values="0 0 0 0 0.460416 0 0 0 0 0.270833 0 0 0 0 1 0 0 0 0.09 0"/>
<feBlend mode="normal" in2="BackgroundImageFix" result="effect1_dropShadow"/>
<feBlend mode="normal" in="SourceGraphic" in2="effect1_dropShadow" result="shape"/>
</filter>
<filter id="filter7_d" x="194.825" y="186.393" width="116.17" height="114.03" filterUnits="userSpaceOnUse" color-interpolation-filters="sRGB">
<feFlood flood-opacity="0" result="BackgroundImageFix"/>
<feColorMatrix in="SourceAlpha" type="matrix" values="0 0 0 0 0 0 0 0 0 0 0 0 0 0 0 0 0 0 127 0"/>
<feOffset dy="8.23179"/>
<feGaussianBlur stdDeviation="4.1159"/>
<feColorMatrix type="matrix" values="0 0 0 0 0.460416 0 0 0 0 0.270833 0 0 0 0 1 0 0 0 0.09 0"/>
<feBlend mode="normal" in2="BackgroundImageFix" result="effect1_dropShadow"/>
<feBlend mode="normal" in="SourceGraphic" in2="effect1_dropShadow" result="shape"/>
</filter>
<filter id="filter8_d" x="214.854" y="126.197" width="96.1413" height="106.086" filterUnits="userSpaceOnUse" color-interpolation-filters="sRGB">
<feFlood flood-opacity="0" result="BackgroundImageFix"/>
<feColorMatrix in="SourceAlpha" type="matrix" values="0 0 0 0 0 0 0 0 0 0 0 0 0 0 0 0 0 0 127 0"/>
<feOffset dy="8.23179"/>
<feGaussianBlur stdDeviation="4.1159"/>
<feColorMatrix type="matrix" values="0 0 0 0 0.460416 0 0 0 0 0.270833 0 0 0 0 1 0 0 0 0.09 0"/>
<feBlend mode="normal" in2="BackgroundImageFix" result="effect1_dropShadow"/>
<feBlend mode="normal" in="SourceGraphic" in2="effect1_dropShadow" result="shape"/>
</filter>
<filter id="filter9_d" x="251.767" y="78.9832" width="27.4558" height="27.4558" filterUnits="userSpaceOnUse" color-interpolation-filters="sRGB">
<feFlood flood-opacity="0" result="BackgroundImageFix"/>
<feColorMatrix in="SourceAlpha" type="matrix" values="0 0 0 0 0 0 0 0 0 0 0 0 0 0 0 0 0 0 127 0"/>
<feOffset dy="3.76241"/>
<feGaussianBlur stdDeviation="2.68744"/>
<feColorMatrix type="matrix" values="0 0 0 0 0.460416 0 0 0 0 0.270833 0 0 0 0 1 0 0 0 0.18 0"/>
<feBlend mode="normal" in2="BackgroundImageFix" result="effect1_dropShadow"/>
<feBlend mode="normal" in="SourceGraphic" in2="effect1_dropShadow" result="shape"/>
</filter>
<linearGradient id="paint0_linear" x1="312" y1="0" x2="312" y2="338.369" gradientUnits="userSpaceOnUse">
<stop stop-color="#1C1B7E"/>
<stop offset="1" stop-color="#1E1079"/>
</linearGradient>
<linearGradient id="paint1_linear" x1="312" y1="0" x2="312" y2="338.369" gradientUnits="userSpaceOnUse">
<stop stop-color="#1C1B7E"/>
<stop offset="1" stop-color="#1E1079"/>
</linearGradient>
<linearGradient id="paint2_linear" x1="135.773" y1="115.156" x2="135.773" y2="321.9" gradientUnits="userSpaceOnUse">
<stop stop-color="#282599"/>
<stop offset="1" stop-color="#261B86"/>
</linearGradient>
<linearGradient id="paint3_linear" x1="82.3175" y1="173.328" x2="82.3175" y2="380.072" gradientUnits="userSpaceOnUse">
<stop stop-color="#3936B4"/>
<stop offset="1" stop-color="#2B2092"/>
</linearGradient>
<linearGradient id="paint4_linear" x1="509.26" y1="-14.5313" x2="509.26" y2="336.469" gradientUnits="userSpaceOnUse">
<stop stop-color="#2D29A3"/>
<stop offset="1" stop-color="#261B86" stop-opacity="0"/>
</linearGradient>
<linearGradient id="paint5_linear" x1="310.706" y1="126.578" x2="310.706" y2="276.517" gradientUnits="userSpaceOnUse">
<stop stop-color="#EEE9FF"/>
<stop offset="1" stop-color="#FAF9FF"/>
</linearGradient>
</defs>
</svg>
