<svg width="430" height="497" viewBox="0 0 430 497" fill="none" xmlns="http://www.w3.org/2000/svg">
<rect width="430" height="496.604" fill="white"/>
<circle cx="215" cy="302.532" r="126.775" stroke="#EFEFF5" stroke-width="41.5702"/>
<g filter="url(#filter0_d)">
<path d="M257.066 182.94C230.933 173.748 202.508 173.369 176.139 181.861C149.769 190.353 126.908 207.249 111.05 229.964" stroke="#CAB7FF" stroke-width="41.5702" stroke-linecap="round"/>
</g>
<g filter="url(#filter1_d)">
<path d="M197.842 428.141C216.877 430.741 236.253 428.981 254.507 422.994C272.762 417.007 289.417 406.95 303.214 393.582C317.012 380.214 327.591 363.886 334.152 345.83C340.713 327.774 343.085 308.463 341.088 289.356" stroke="#3C16A8" stroke-width="41.5702" stroke-linecap="round"/>
</g>
<g filter="url(#filter2_d)">
<path d="M341.775 302.532C341.775 272.395 331.038 243.243 311.491 220.305C291.943 197.367 264.863 182.142 235.107 177.362" stroke="#7545FF" stroke-width="41.5702" stroke-linecap="round"/>
</g>
<rect x="147.373" y="292.646" width="135.254" height="29.1431" rx="14.5715" fill="#DADAE3"/>
<rect x="28.8779" y="54.5361" width="132.095" height="30" rx="15" fill="#9292C8"/>
<rect x="28.8779" y="96.4941" width="195.334" height="23.5075" rx="11.7538" fill="#E8E8F3"/>
<g filter="url(#filter3_d)">
<circle cx="293.221" cy="87.2694" r="15.5409" fill="#7545FF"/>
</g>
<circle cx="336.303" cy="87.2694" r="15.5409" fill="#CAB7FF"/>
<circle cx="379.385" cy="87.2694" r="15.5409" fill="#3C16A8"/>
<defs>
<filter id="filter0_d" x="74.9474" y="154.973" width="218.225" height="126.409" filterUnits="userSpaceOnUse" color-interpolation-filters="sRGB">
<feFlood flood-opacity="0" result="BackgroundImageFix"/>
<feColorMatrix in="SourceAlpha" type="matrix" values="0 0 0 0 0 0 0 0 0 0 0 0 0 0 0 0 0 0 127 0"/>
<feOffset dy="15.3153"/>
<feGaussianBlur stdDeviation="7.65766"/>
<feColorMatrix type="matrix" values="0 0 0 0 0.460416 0 0 0 0 0.270833 0 0 0 0 1 0 0 0 0.09 0"/>
<feBlend mode="normal" in2="BackgroundImageFix" result="effect1_dropShadow"/>
<feBlend mode="normal" in="SourceGraphic" in2="effect1_dropShadow" result="shape"/>
</filter>
<filter id="filter1_d" x="161.739" y="268.569" width="216.136" height="212.154" filterUnits="userSpaceOnUse" color-interpolation-filters="sRGB">
<feFlood flood-opacity="0" result="BackgroundImageFix"/>
<feColorMatrix in="SourceAlpha" type="matrix" values="0 0 0 0 0 0 0 0 0 0 0 0 0 0 0 0 0 0 127 0"/>
<feOffset dy="15.3153"/>
<feGaussianBlur stdDeviation="7.65766"/>
<feColorMatrix type="matrix" values="0 0 0 0 0.460416 0 0 0 0 0.270833 0 0 0 0 1 0 0 0 0.09 0"/>
<feBlend mode="normal" in2="BackgroundImageFix" result="effect1_dropShadow"/>
<feBlend mode="normal" in="SourceGraphic" in2="effect1_dropShadow" result="shape"/>
</filter>
<filter id="filter2_d" x="199.004" y="156.574" width="178.872" height="197.374" filterUnits="userSpaceOnUse" color-interpolation-filters="sRGB">
<feFlood flood-opacity="0" result="BackgroundImageFix"/>
<feColorMatrix in="SourceAlpha" type="matrix" values="0 0 0 0 0 0 0 0 0 0 0 0 0 0 0 0 0 0 127 0"/>
<feOffset dy="15.3153"/>
<feGaussianBlur stdDeviation="7.65766"/>
<feColorMatrix type="matrix" values="0 0 0 0 0.460416 0 0 0 0 0.270833 0 0 0 0 1 0 0 0 0.09 0"/>
<feBlend mode="normal" in2="BackgroundImageFix" result="effect1_dropShadow"/>
<feBlend mode="normal" in="SourceGraphic" in2="effect1_dropShadow" result="shape"/>
</filter>
<filter id="filter3_d" x="267.68" y="68.7285" width="51.0818" height="51.0818" filterUnits="userSpaceOnUse" color-interpolation-filters="sRGB">
<feFlood flood-opacity="0" result="BackgroundImageFix"/>
<feColorMatrix in="SourceAlpha" type="matrix" values="0 0 0 0 0 0 0 0 0 0 0 0 0 0 0 0 0 0 127 0"/>
<feOffset dy="7"/>
<feGaussianBlur stdDeviation="5"/>
<feColorMatrix type="matrix" values="0 0 0 0 0.460416 0 0 0 0 0.270833 0 0 0 0 1 0 0 0 0.18 0"/>
<feBlend mode="normal" in2="BackgroundImageFix" result="effect1_dropShadow"/>
<feBlend mode="normal" in="SourceGraphic" in2="effect1_dropShadow" result="shape"/>
</filter>
</defs>
</svg>
