<svg width="105" height="40" viewBox="0 0 105 40" fill="none" xmlns="http://www.w3.org/2000/svg">
<path d="M50.8885 12.5V15.5H56.1885V30H59.4885V15.5H64.7885V12.5H50.8885ZM63.1549 23.8C63.1549 27.75 65.7299 30.35 69.4299 30.35C72.8299 30.35 74.3049 28.425 75.0049 27.1L72.4299 25.75C72.0049 26.7 71.2799 27.65 69.5299 27.65C67.7799 27.65 66.4549 26.425 66.3799 24.725H75.4049V23.65C75.4049 19.85 73.0299 17.25 69.3799 17.25C65.7299 17.25 63.1549 19.85 63.1549 23.8ZM66.4049 22.375C66.6049 21 67.6549 19.95 69.3549 19.95C70.9799 19.95 72.0549 20.95 72.2049 22.375H66.4049ZM76.607 23.8C76.607 27.65 79.457 30.35 83.057 30.35C86.532 30.35 88.557 28.325 89.257 25.6L86.207 24.875C85.932 26.475 85.007 27.6 83.107 27.6C81.207 27.6 79.757 26.2 79.757 23.8C79.757 21.4 81.207 20 83.107 20C85.007 20 85.932 21.2 86.107 22.7L89.157 22.05C88.607 19.275 86.507 17.25 83.057 17.25C79.457 17.25 76.607 19.95 76.607 23.8ZM91.1998 12.5V30H94.3498V23.6C94.3498 21.3 95.4748 19.95 97.3998 19.95C99.0998 19.95 100.05 20.875 100.05 22.75V30H103.2V22.6C103.2 19.525 101.275 17.4 98.3748 17.4C96.0998 17.4 95.0748 18.4 94.5998 19.35H94.3498V12.5H91.1998Z" fill="#0D0C54"/>
<rect width="40" height="40" rx="13" fill="url(#paint0_linear)"/>
<path d="M17.6599 29.7031L17.7112 29.6547C18.1032 29.2624 18.3276 28.7332 18.3372 28.1787C18.3468 27.6242 18.1407 27.0877 17.7625 26.6821L11.9797 20.486C11.8561 20.3544 11.7872 20.1807 11.7872 20.0001C11.7872 19.8195 11.8561 19.6458 11.9797 19.5142L17.7597 13.3181C18.1502 12.91 18.3634 12.3639 18.3525 11.7991C18.3416 11.2343 18.1077 10.6968 17.7017 10.304C17.2957 9.91118 16.7508 9.69506 16.1859 9.70284C15.6211 9.71062 15.0823 9.94167 14.6873 10.3455L14.636 10.3996L7.0377 18.5394C6.66828 18.9361 6.46289 19.458 6.46289 20.0001C6.46289 20.5421 6.66828 21.0641 7.0377 21.4608L14.636 29.6034C15.0243 30.0167 15.5605 30.2593 16.1273 30.278C16.6941 30.2966 17.2452 30.09 17.6599 29.7031V29.7031Z" fill="white"/>
<path d="M22.2395 26.682C21.8489 27.0902 21.6358 27.6363 21.6467 28.2011C21.6575 28.7659 21.8915 29.3034 22.2975 29.6962C22.7035 30.089 23.2484 30.3051 23.8133 30.2973C24.3781 30.2895 24.9169 30.0585 25.3119 29.6547L25.3632 29.6034L32.9615 21.4607C33.3309 21.064 33.5363 20.5421 33.5363 20.0001C33.5363 19.458 33.3309 18.9361 32.9615 18.5394L25.3632 10.3996C24.9757 9.98523 24.4395 9.74166 23.8725 9.72242C23.3055 9.70318 22.754 9.90985 22.3393 10.297C22.1276 10.4846 21.9564 10.7133 21.836 10.9692C21.7155 11.2251 21.6485 11.5028 21.6389 11.7855C21.6293 12.0682 21.6773 12.3498 21.7801 12.6133C21.8829 12.8768 22.0382 13.1166 22.2367 13.3181L28.0195 19.5141C28.1431 19.6457 28.2119 19.8195 28.2119 20.0001C28.2119 20.1806 28.1431 20.3544 28.0195 20.486L22.2395 26.682Z" fill="white"/>
<defs>
<linearGradient id="paint0_linear" x1="20" y1="0" x2="20" y2="40" gradientUnits="userSpaceOnUse">
<stop stop-color="#916AFF"/>
<stop offset="1" stop-color="#7545FF"/>
</linearGradient>
</defs>
</svg>
