<svg width="160" height="160" viewBox="0 0 160 160" fill="none" xmlns="http://www.w3.org/2000/svg">
<circle cx="80" cy="80" r="80" fill="#F6F3FF"/>
<path d="M61.1313 54.4149C61.1313 44.0091 69.5968 35.5468 79.9993 35.5468C90.4019 35.5468 98.8674 44.0091 98.8674 54.4149V82.7169H108.301V54.4149C108.301 38.7827 95.6315 26.1128 79.9993 26.1128C64.3672 26.1128 51.6973 38.7827 51.6973 54.4149V82.7169H61.1313V54.4149Z" fill="#D4CBEC"/>
<path d="M109.843 129.887H50.1568C45.7983 129.887 42.2637 126.352 42.2637 121.994V71.742C42.2637 67.3835 45.7983 63.8489 50.1568 63.8489H109.843C114.201 63.8489 117.736 67.3835 117.736 71.742V121.994C117.736 126.352 114.201 129.887 109.843 129.887Z" fill="#7545FF"/>
<path d="M80.0004 101.585C85.2107 101.585 89.4345 97.3613 89.4345 92.1511C89.4345 86.9408 85.2107 82.717 80.0004 82.717C74.7902 82.717 70.5664 86.9408 70.5664 92.1511C70.5664 97.3613 74.7902 101.585 80.0004 101.585Z" fill="#4421AA"/>
<path d="M84.7172 92.1509H75.2832V111.019H84.7172V92.1509Z" fill="#4421AA"/>
</svg>
