<svg xmlns="http://www.w3.org/2000/svg" xmlns:xlink="http://www.w3.org/1999/xlink" viewBox="0 0 60.62 69.65"><defs><style>.cls-1{fill:url(#linear-gradient);}</style><linearGradient id="linear-gradient" x1="2.01" y1="34.82" x2="58.62" y2="34.82" gradientUnits="userSpaceOnUse"><stop offset="0" stop-color="#ffec19"/><stop offset="1" stop-color="#ff9800"/></linearGradient></defs><g id="icons"><g id="uG720r.tif"><path class="cls-1" d="M29.21,32.08A26.82,26.82,0,0,1,38,33.48c1.5.56,3,1.24,4.42,1.89a5.57,5.57,0,0,0,6.48-1,8.76,8.76,0,0,0,.78-.71c.78-.88,1.58-1.76,2.3-2.68a2.5,2.5,0,0,1,4.29.05,12.9,12.9,0,0,1,2.16,6.18,27.11,27.11,0,0,1-2.93,16.11c-3.6,6.81-9.36,10.84-16.7,12.78a43.34,43.34,0,0,1-14.4,1.08,28.92,28.92,0,0,1-10.59-2.63,17.34,17.34,0,0,1-10.26-14,11.12,11.12,0,0,1,1.14-6,26.84,26.84,0,0,1,5-7.1,29.38,29.38,0,0,0,3.19-4.26,5.71,5.71,0,0,0,.72-5,2.75,2.75,0,0,0-2.64-2c-.9,0-1.8,0-2.7.1a8.64,8.64,0,0,1-4.12-.64c-.43-.19-1-.68-1-1.06s.52-.89.93-1.09a25.65,25.65,0,0,1,2.74-1l.51-.15c-1-.85-2-1.65-3-2.55a7.67,7.67,0,0,1-2.3-4.31c-.24-1.36.49-2.14,1.83-1.83s2.43.85,3.68,1a13,13,0,0,0,3.58-.08,2.15,2.15,0,0,0,1.21-1.08A17.72,17.72,0,0,1,15.7,9.07a9.11,9.11,0,0,1,3.43-2c1.28-.42,1.42-.76.81-1.93-.23-.42-.06-.62.36-.65a8.1,8.1,0,0,1,.87.06A14.07,14.07,0,0,1,21.36,3c.07-.25.34-.45.52-.67A3.09,3.09,0,0,1,22.4,3a4.7,4.7,0,0,0,3.8,3.24,20.87,20.87,0,0,1,3.88.8c4.33,1.53,7.18,4.48,7.92,9.11S38,25,34.79,28.54a12.21,12.21,0,0,1-4.69,3.19Z"/></g></g></svg>