<svg xmlns="http://www.w3.org/2000/svg" xmlns:xlink="http://www.w3.org/1999/xlink" viewBox="0 0 70.22 70.25"><defs><style>.cls-1{fill:#002a7e;}.cls-2{fill:url(#linear-gradient);}</style><linearGradient id="linear-gradient" x1="6.15" y1="35.11" x2="64.06" y2="35.11" gradientUnits="userSpaceOnUse"><stop offset="0" stop-color="#ffec19"/><stop offset="1" stop-color="#ff9800"/></linearGradient></defs><g id="icons"><g id="uG720r.tif"><path class="cls-1" d="M34.08,68.1l-2-.16A32.34,32.34,0,0,1,13.27,59.8,31.63,31.63,0,0,1,2.77,41.43a32.15,32.15,0,0,1,8.16-28.7A31.27,31.27,0,0,1,29.3,2.67,32.18,32.18,0,0,1,57,10.45,31.26,31.26,0,0,1,67.31,28.13a32.17,32.17,0,0,1-7.4,28.66A31.58,31.58,0,0,1,42,67.33c-1.83.39-3.71.49-5.57.72l-.34,0Zm30-32.95a29,29,0,1,0-29,28.92A28.93,28.93,0,0,0,64.06,35.15Z"/><path class="cls-2" d="M64.06,35.15A29,29,0,1,1,36,6.16,29,29,0,0,1,64.06,35.15Zm-29.6-1.64.52-.2a7.07,7.07,0,0,0,2.74-1.86,8.37,8.37,0,0,0,1.87-7.26A6.49,6.49,0,0,0,35,18.88a12.26,12.26,0,0,0-2.26-.47,2.74,2.74,0,0,1-2.22-1.89,1.74,1.74,0,0,0-.3-.37c-.11.12-.27.24-.3.38a7.47,7.47,0,0,0-.12.95,4.07,4.07,0,0,0-.5,0c-.25,0-.35.13-.22.38.36.67.28.87-.47,1.12a5.26,5.26,0,0,0-2,1.14,10.69,10.69,0,0,0-1.95,2.58c-.15.27-.44.6-.71.63a7.25,7.25,0,0,1-2.08.05c-.73-.1-1.43-.43-2.15-.6s-1.21.28-1.07,1.07A4.45,4.45,0,0,0,20,26.34c.55.52,1.15,1,1.73,1.48l-.3.09a15.35,15.35,0,0,0-1.6.59c-.24.12-.55.43-.54.64s.33.51.58.62a4.92,4.92,0,0,0,2.4.37c.53,0,1.05-.07,1.58-.06a1.6,1.6,0,0,1,1.54,1.17,3.36,3.36,0,0,1-.42,2.94,18,18,0,0,1-1.86,2.48,15.58,15.58,0,0,0-2.92,4.15,6.39,6.39,0,0,0-.66,3.49,10.12,10.12,0,0,0,6,8.16A16.88,16.88,0,0,0,31.64,54a25.31,25.31,0,0,0,8.41-.63,14.69,14.69,0,0,0,9.74-7.46,15.83,15.83,0,0,0,1.71-9.39,7.48,7.48,0,0,0-1.27-3.61,1.45,1.45,0,0,0-2.49,0c-.43.54-.89,1.05-1.35,1.57a5.92,5.92,0,0,1-.45.41,3.25,3.25,0,0,1-3.78.58c-.86-.38-1.71-.78-2.58-1.1A15.79,15.79,0,0,0,34.46,33.51Z"/><path class="cls-1" d="M34.46,33.51a15.79,15.79,0,0,1,5.12.82c.87.32,1.72.72,2.58,1.1a3.25,3.25,0,0,0,3.78-.58,5.92,5.92,0,0,0,.45-.41c.46-.52.92-1,1.35-1.57a1.45,1.45,0,0,1,2.49,0,7.48,7.48,0,0,1,1.27,3.61,15.83,15.83,0,0,1-1.71,9.39,14.69,14.69,0,0,1-9.74,7.46,25.31,25.31,0,0,1-8.41.63,16.88,16.88,0,0,1-6.17-1.53,10.12,10.12,0,0,1-6-8.16,6.39,6.39,0,0,1,.66-3.49,15.58,15.58,0,0,1,2.92-4.15,18,18,0,0,0,1.86-2.48,3.36,3.36,0,0,0,.42-2.94,1.6,1.6,0,0,0-1.54-1.17c-.53,0-1,0-1.58.06a4.92,4.92,0,0,1-2.4-.37c-.25-.11-.57-.4-.58-.62s.3-.52.54-.64a15.35,15.35,0,0,1,1.6-.59l.3-.09c-.58-.5-1.18-1-1.73-1.48a4.45,4.45,0,0,1-1.34-2.52c-.14-.79.29-1.25,1.07-1.07s1.42.5,2.15.6a7.25,7.25,0,0,0,2.08-.05c.27,0,.56-.36.71-.63a10.69,10.69,0,0,1,1.95-2.58,5.26,5.26,0,0,1,2-1.14c.75-.25.83-.45.47-1.12-.13-.25,0-.37.22-.38a4.07,4.07,0,0,1,.5,0,7.47,7.47,0,0,1,.12-.95c0-.14.19-.26.3-.38a1.74,1.74,0,0,1,.3.37,2.74,2.74,0,0,0,2.22,1.89,12.26,12.26,0,0,1,2.26.47,6.49,6.49,0,0,1,4.62,5.31,8.37,8.37,0,0,1-1.87,7.26A7.07,7.07,0,0,1,35,33.31Z"/></g></g></svg>