<svg xmlns="http://www.w3.org/2000/svg" xmlns:xlink="http://www.w3.org/1999/xlink" viewBox="0 0 53.1 53.1"><defs><style>.cls-1{fill:#cfe4ff;}.cls-2{fill:#4095fe;}.cls-2,.cls-3,.cls-4{fill-rule:evenodd;}.cls-3{fill:url(#linear-gradient);}.cls-4,.cls-5{fill:#fff;}</style><linearGradient id="linear-gradient" x1="13.71" y1="30.81" x2="29.4" y2="30.81" gradientUnits="userSpaceOnUse"><stop offset="0" stop-color="#ffea00"/><stop offset="1" stop-color="#ff9000"/></linearGradient></defs><g id="circles"><circle class="cls-1" cx="26.55" cy="26.55" r="26.55"/></g><g id="icons"><path class="cls-2" d="M28.75,10.12A13.58,13.58,0,0,1,40.94,29.5L42.17,35A1.66,1.66,0,0,1,40,37.16l-5.48-1.24a13.4,13.4,0,0,1-4.38,1.24,10.71,10.71,0,0,1-13.61,3.1l-3.64,1.12c-1.51.47-2.36-.38-1.9-1.89l1.11-3.64a10.71,10.71,0,0,1,3.23-13.76A13.51,13.51,0,0,1,28.75,10.12Z"/><path class="cls-3" d="M15.2,35.56l-.73,2.36,2.36-.73,1.06.56a7.84,7.84,0,1,0-3.25-3.23Z"/><path class="cls-4" d="M34.21,32.92,39,34,38,29.16l.42-.89a10.66,10.66,0,1,0-19.8-7.74,10.91,10.91,0,0,1,3-.42A10.7,10.7,0,0,1,32.26,30.8a10.9,10.9,0,0,1-.47,3.14C32.32,33.78,34.21,32.92,34.21,32.92Z"/><circle class="cls-5" cx="17.28" cy="30.81" r="1.43"/><circle class="cls-5" cx="25.84" cy="30.81" r="1.43"/><circle class="cls-5" cx="21.56" cy="30.81" r="1.43"/></g></svg>